<svg width="90" height="81" viewBox="0 0 90 81" fill="none" xmlns="http://www.w3.org/2000/svg">
<g filter="url(#filter0_f)">
<path d="M16.4867 5.16576L77.6675 8.96787C81.713 9.21928 84.7999 12.715 84.5484 16.7607L82.3254 52.533C82.0739 56.5784 78.5782 59.6653 74.5325 59.4139L36.2297 57.0336L19.7472 71.5874C19.1225 72.1389 18.317 72.4023 17.5172 72.3526C17.1212 72.328 16.7264 72.2266 16.356 72.0454C15.2374 71.4982 14.5578 70.3311 14.6351 69.0878L15.4644 55.7428L13.352 55.6116C9.30654 55.3601 6.21964 51.8644 6.47106 47.8187L8.69414 12.0465C8.94529 8.001 12.441 4.91434 16.4867 5.16576ZM12.618 48.201C12.5772 48.8568 13.0777 49.4236 13.7335 49.4643L18.9188 49.7866C20.5363 49.8871 21.7814 51.2193 21.8042 52.8135C21.8079 52.8812 21.2432 62.0494 21.2432 62.0494L33.0967 51.5827C33.1092 51.5717 33.1221 51.5616 33.1345 51.5506C33.1809 51.5105 33.2247 51.476 33.266 51.4451C33.8365 51.0043 34.5612 50.7584 35.3368 50.8066L74.9145 53.2662C75.5706 53.307 76.1372 52.8065 76.1779 52.1507L78.401 16.3784C78.4418 15.7224 77.9413 15.1558 77.2855 15.1151L16.1044 11.313C15.4487 11.2722 14.8819 11.7727 14.8411 12.4285L12.618 48.201Z" fill="#E3E3E3"/>
<path d="M45.6974 29.2211C47.394 29.3265 48.6854 30.7891 48.58 32.4857C48.4745 34.1823 47.012 35.4738 45.3154 35.3683C43.6185 35.2629 42.3273 33.8003 42.4328 32.1037C42.5382 30.4071 44.0008 29.1157 45.6974 29.2211Z" fill="#E3E3E3"/>
<path d="M59.9825 30.1098C61.6789 30.2152 62.9706 31.6778 62.8651 33.3744C62.7597 35.071 61.2969 36.3624 59.6005 36.257C57.9037 36.1515 56.6125 34.689 56.7179 32.9924C56.8234 31.2958 58.2857 30.0043 59.9825 30.1098Z" fill="#E3E3E3"/>
<path d="M31.1339 28.3168C32.8303 28.4222 34.1219 29.8848 34.0165 31.5814C33.9111 33.278 32.4483 34.5694 30.7519 34.464C29.055 34.3586 27.7639 32.896 27.8693 31.1994C27.9747 29.5028 29.437 28.2113 31.1339 28.3168Z" fill="#E3E3E3"/>
</g>
<defs>
<filter id="filter0_f" x="0.994629" y="0.708984" width="88.0096" height="79.5786" filterUnits="userSpaceOnUse" color-interpolation-filters="sRGB">
<feFlood flood-opacity="0" result="BackgroundImageFix"/>
<feBlend mode="normal" in="SourceGraphic" in2="BackgroundImageFix" result="shape"/>
<feGaussianBlur stdDeviation="2" result="effect1_foregroundBlur"/>
</filter>
</defs>
</svg>
