<svg width="20" height="10" viewBox="0 0 20 10" fill="none" xmlns="http://www.w3.org/2000/svg">
<path d="M15.8202 6.1543C15.1063 6.1543 14.5254 6.7352 14.5254 7.44918C14.5254 8.16317 15.1063 8.74407 15.8202 8.74407C16.5342 8.74407 17.1151 8.16317 17.1151 7.44918C17.1152 6.7352 16.5343 6.1543 15.8202 6.1543ZM15.8202 8.15813C15.4293 8.15813 15.1113 7.84008 15.1113 7.44918C15.1113 7.05824 15.4294 6.74024 15.8202 6.74024C16.2112 6.74024 16.5292 7.05828 16.5292 7.44918C16.5292 7.84012 16.2112 8.15813 15.8202 8.15813Z" fill="#FF3B6A"/>
<path d="M3.33199 6.1543C2.61801 6.1543 2.03711 6.7352 2.03711 7.44918C2.03711 8.16317 2.61801 8.74407 3.33199 8.74407C4.04598 8.74407 4.62688 8.16317 4.62688 7.44918C4.62688 6.7352 4.04598 6.1543 3.33199 6.1543ZM3.33199 8.15813C2.94106 8.15813 2.62305 7.84008 2.62305 7.44918C2.62305 7.05824 2.9411 6.74024 3.33199 6.74024C3.72289 6.74024 4.04094 7.05828 4.04094 7.44918C4.04094 7.84012 3.72293 8.15813 3.33199 8.15813Z" fill="#FF3B6A"/>
<path d="M0 7.30253V7.61937C0 7.97335 0.287969 8.26132 0.641993 8.26132H1.18395C1.51285 9.12789 2.35137 9.7457 3.33184 9.7457C4.31231 9.7457 5.15087 9.12792 5.47974 8.26132H8.33728C8.49912 8.26132 8.63025 8.13015 8.63025 7.96835C8.63025 7.80656 8.49912 7.67538 8.33728 7.67538H5.61743C5.63177 7.53019 5.632 7.38613 5.61974 7.24648H13.5321C13.52 7.38402 13.5199 7.53007 13.5345 7.67538H9.70451C9.54268 7.67538 9.41154 7.80656 9.41154 7.96835C9.41154 8.13015 9.54268 8.26132 9.70451 8.26132H13.6721C14.001 9.12789 14.8396 9.7457 15.82 9.7457C16.8005 9.7457 17.6391 9.12792 17.968 8.26132H19.358C19.712 8.26132 20 7.97335 20 7.61937V7.30253C20 7.04835 19.8511 6.82886 19.6363 6.72491V5.81804C19.6363 4.89077 18.9891 4.07846 18.0614 3.88932L15.1547 3.29635C15.1319 3.2917 15.1092 3.28557 15.0867 3.27885C15.0005 2.93221 14.6875 2.67428 14.3146 2.67428H14.2772L13.3799 1.90158C13.2573 1.796 13.0723 1.80979 12.9668 1.9324C12.8612 2.05502 12.8749 2.23998 12.9976 2.34557L13.4926 2.7719C13.3534 2.84826 13.2389 2.96748 13.1679 3.10342L11.8094 1.93354C11.4997 1.66674 11.1268 1.47752 10.7311 1.38631C8.49529 0.870799 5.98755 0.924275 3.71841 1.69225C3.1745 1.87635 2.70497 2.24236 2.39622 2.72299C2.27508 2.91158 2.31176 3.16518 2.48137 3.31291L3.68391 4.36042C3.76704 4.43292 3.8736 4.47284 3.98403 4.47284H13.3106C13.4592 4.62198 13.6602 4.70749 13.8745 4.70749H14.3147C14.7527 4.70749 15.1112 4.35131 15.1112 3.91096V3.88553L17.6776 4.40909V5.2603C17.6776 5.70768 18.0416 6.07167 18.489 6.07167H19.0505V6.66066H17.9781C17.6482 5.7544 16.7844 5.15217 15.8201 5.15217C14.8599 5.15217 13.9934 5.75089 13.6623 6.66066H5.48974C5.15814 5.74948 4.29052 5.15217 3.33184 5.15217C2.37297 5.15217 1.50547 5.74968 1.17395 6.66066H0.865744L0.794923 6.40104C0.753673 6.24979 0.732775 6.09362 0.732775 5.93686V5.73815H1.02727C1.46645 5.73815 1.82375 5.38085 1.82375 4.94163V4.68346C1.82375 4.26686 1.50215 3.92456 1.09426 3.89034L2.00774 2.4708C2.37301 1.90318 2.92782 1.47088 3.56989 1.25357C6.61826 0.221852 9.43018 0.61115 10.835 0.935018C11.2479 1.03025 11.6292 1.20916 11.9683 1.46678C12.0972 1.56471 12.281 1.53955 12.3789 1.41076C12.4767 1.28193 12.4517 1.09814 12.3228 1.00025C11.9173 0.692088 11.461 0.478064 10.9666 0.364079C9.50131 0.026227 6.56751 -0.379555 3.38204 0.698572C2.61477 0.958221 1.95176 1.47498 1.515 2.15369L0.520704 3.69885C0.277735 4.07647 0.146836 4.51948 0.146836 4.97081V5.44514V5.93683C0.146836 6.14565 0.174688 6.3537 0.22961 6.55519L0.287618 6.7678C0.114492 6.8828 0 7.07948 0 7.30253H0ZM11.427 2.37748L13.0779 3.79916V3.88686H9.31389V1.73232C9.81986 1.79463 10.2556 1.87795 10.5994 1.95721C10.9029 2.02713 11.189 2.17248 11.427 2.37748ZM2.9529 2.94655C3.39114 2.34549 3.98024 2.18955 4.80786 1.98416L5.13056 3.88686H4.03235L2.9529 2.94655ZM5.72486 3.88686L5.38064 1.85729C7.13326 1.51533 8.47041 1.67061 8.72791 1.67357V3.88686H5.72486ZM14.3146 4.12151H13.8744C13.7507 4.12151 13.6638 4.01663 13.6638 3.91092C13.6638 3.74834 13.6638 3.63303 13.6638 3.47077C13.6638 3.35467 13.7583 3.26018 13.8744 3.26018H14.3146C14.4307 3.26018 14.5252 3.35463 14.5252 3.47077V3.91092C14.5252 4.02702 14.4307 4.12151 14.3146 4.12151ZM15.82 9.15976C14.8692 9.15976 14.1092 8.38421 14.1092 7.4489C14.1092 6.51761 14.8666 5.73803 15.82 5.73803C16.775 5.73803 17.5309 6.51886 17.5309 7.4489C17.5309 8.38476 16.7697 9.15976 15.82 9.15976ZM18.2634 5.26022V4.57104C18.6345 4.74909 18.9095 5.08635 19.0093 5.48565H18.4889C18.3646 5.48565 18.2634 5.38452 18.2634 5.26022ZM19.3434 7.24651H19.358C19.3889 7.24651 19.4141 7.27167 19.4141 7.30257V7.61941C19.4141 7.65031 19.3889 7.67542 19.358 7.67542H18.1056C18.1205 7.52648 18.1198 7.38128 18.108 7.24651H19.3434ZM3.33184 9.15976C2.38106 9.15976 1.62098 8.38421 1.62098 7.4489C1.62098 6.50675 2.38852 5.73803 3.33184 5.73803C4.27278 5.73803 5.04271 6.50433 5.04271 7.4489C5.04271 8.38706 4.27966 9.15976 3.33184 9.15976ZM1.04395 7.24651C1.0316 7.38698 1.03215 7.53398 1.04629 7.67542H0.641993C0.611095 7.67542 0.585939 7.65027 0.585939 7.61941V7.30253C0.585939 7.27163 0.611095 7.24648 0.641993 7.24648H1.04395V7.24651ZM1.23782 4.68335V4.94151C1.23782 5.0576 1.14336 5.1521 1.02727 5.1521H0.732814C0.738087 5.04471 0.708908 4.79663 0.804455 4.4728H1.02731C1.1434 4.4728 1.23782 4.56725 1.23782 4.68335Z" fill="#FF3B6A"/>
<path d="M10.2597 5.58203C10.4216 5.58203 10.5527 5.45086 10.5527 5.28906C10.5527 5.12727 10.4216 4.99609 10.2597 4.99609H9.89258C9.73074 4.99609 9.59961 5.12727 9.59961 5.28906C9.59961 5.45086 9.73074 5.58203 9.89258 5.58203H10.2597Z" fill="#FF3B6A"/>
<path d="M6.58785 5.58203C6.74969 5.58203 6.88082 5.45086 6.88082 5.28906C6.88082 5.12727 6.74969 4.99609 6.58785 4.99609H6.2207C6.05887 4.99609 5.92773 5.12727 5.92773 5.28906C5.92773 5.45086 6.05887 5.58203 6.2207 5.58203H6.58785Z" fill="#FF3B6A"/>
</svg>
