<svg width="39" height="53" viewBox="0 0 39 53" fill="none" xmlns="http://www.w3.org/2000/svg">
<path d="M19.425 0C8.71406 0 0 8.27982 0 18.457C0 21.8956 1.00244 25.2513 2.89961 28.1626L18.3193 51.7729C18.6147 52.2252 19.135 52.5 19.6947 52.5C19.699 52.5 19.7032 52.5 19.7075 52.5C20.272 52.4958 20.7935 52.2125 21.0835 51.7523L36.1101 27.9132C37.9026 25.0634 38.85 21.7936 38.85 18.457C38.85 8.27982 30.1359 0 19.425 0ZM33.3318 26.3339L19.6702 48.0074L5.65127 26.5418C4.07213 24.1186 3.21592 21.323 3.21592 18.457C3.21592 9.97603 10.4992 3.05566 19.425 3.05566C28.3508 3.05566 35.6233 9.97603 35.6233 18.457C35.6233 21.238 34.8235 23.9621 33.3318 26.3339Z" fill="white"/>
<path d="M19.4244 8.88672C14.0689 8.88672 9.71191 13.0266 9.71191 18.1152C9.71191 23.1713 13.998 27.3438 19.4244 27.3438C24.9177 27.3438 29.1369 23.1158 29.1369 18.1152C29.1369 13.0266 24.7799 8.88672 19.4244 8.88672ZM19.4244 24.2881C15.8354 24.2881 12.9278 21.5161 12.9278 18.1152C12.9278 14.7228 15.8541 11.9424 19.4244 11.9424C22.9947 11.9424 25.9102 14.7228 25.9102 18.1152C25.9102 21.4665 23.0703 24.2881 19.4244 24.2881Z" fill="white"/>
</svg>
