<svg width="61" height="53" viewBox="0 0 61 53" fill="none" xmlns="http://www.w3.org/2000/svg">
<path d="M32.5729 44.2577C32.1945 43.218 31.197 42.5195 30.0911 42.5195C29.7831 42.5195 29.4793 42.5733 29.1879 42.6792C27.8196 43.1773 27.1117 44.6959 27.6095 46.0643C27.9879 47.104 28.9855 47.8024 30.0914 47.8024C30.3994 47.8024 30.7032 47.7486 30.9944 47.6427C32.3629 47.1447 33.0709 45.6261 32.5729 44.2577ZM30.3924 45.9883C30.2948 46.0238 30.1935 46.0418 30.0915 46.0418C29.7227 46.0418 29.3902 45.8089 29.264 45.4622C29.098 45.006 29.3341 44.4998 29.7901 44.3338C29.8876 44.2982 29.9889 44.2802 30.0909 44.2802C30.4596 44.2802 30.7922 44.5131 30.9184 44.86C31.0845 45.316 30.8485 45.8222 30.3924 45.9883Z" fill="white"/>
<path d="M60.046 36.1406L58.8414 32.8317C58.759 32.6052 58.5933 32.4335 58.3916 32.3377C58.3898 32.3369 58.3881 32.3358 58.3863 32.335C58.3732 32.3288 58.3594 32.324 58.3459 32.3185C58.3333 32.3133 58.3208 32.3074 58.3079 32.3029C58.3048 32.3017 58.3016 32.301 58.2984 32.3C58.1149 32.2372 57.9096 32.2338 57.7132 32.3054L54.8345 33.3524L48.7106 16.526C48.7105 16.5256 48.7101 16.5252 48.71 16.5249L46.3021 9.90834C46.1753 9.56206 45.8431 9.32953 45.4745 9.32953C45.3724 9.32953 45.2703 9.34714 45.174 9.38235C44.7174 9.54786 44.4815 10.0549 44.647 10.5104L46.7553 16.301L35.4497 20.4157C35.4496 20.4157 35.4494 20.4157 35.4491 20.4158C35.4488 20.4159 35.4486 20.4162 35.4482 20.4162L28.5558 22.9246L23.9385 10.241L30.0056 8.03306L31.3104 11.6172C31.436 11.9634 31.7682 12.1971 32.1368 12.1971C32.2401 12.1971 32.341 12.1795 32.4384 12.143L36.8507 10.5373C37.0714 10.4574 37.2474 10.2955 37.3472 10.083C37.4209 9.925 37.445 9.75281 37.4204 9.5846C37.4203 9.58366 37.4203 9.58272 37.4202 9.5819C37.4168 9.55901 37.4119 9.536 37.4066 9.51335C37.4051 9.50689 37.4042 9.50079 37.4027 9.49433C37.3956 9.46581 37.3869 9.43752 37.3767 9.40935L36.0723 5.82512L42.1381 3.61754L43.4427 7.2013C43.5694 7.54757 43.9016 7.78116 44.2702 7.78116C44.3723 7.78116 44.4744 7.76355 44.5719 7.72716C45.0273 7.56166 45.2632 7.05563 45.0977 6.59913L43.492 2.1869C43.381 1.88394 43.1129 1.66808 42.8006 1.61878C42.756 1.61174 42.7104 1.6081 42.6644 1.6081C42.5623 1.6081 42.4602 1.6257 42.3639 1.66092L34.6468 4.46996C34.6456 4.47043 34.6441 4.47055 34.6429 4.47102C34.6405 4.47184 34.6384 4.47301 34.636 4.47383L30.2384 6.07468C30.2358 6.07561 30.2332 6.07585 30.2306 6.07679C30.2263 6.07843 30.2222 6.08054 30.2178 6.08219L22.5095 8.88794C22.2889 8.96776 22.1128 9.12975 22.013 9.34221C21.9132 9.55584 21.9027 9.79518 21.9837 10.016L27.2022 24.3546L32.2206 38.1436C31.5844 37.9492 30.9164 37.8401 30.2323 37.8268L17.5189 2.89635C16.6887 0.615759 14.158 -0.564272 11.8772 0.265612C11.8768 0.265729 11.8765 0.265964 11.8761 0.266081L0.581386 4.33967C0.581269 4.33979 0.581034 4.33979 0.580799 4.3399C0.580212 4.34014 0.579626 4.34026 0.578921 4.34049C0.558614 4.34789 0.539364 4.35669 0.519996 4.36537C0.512601 4.36866 0.504854 4.37136 0.497576 4.37488C0.478561 4.38392 0.460484 4.39449 0.442407 4.40482C0.435012 4.40904 0.427148 4.41268 0.41987 4.41726C0.402498 4.42782 0.386299 4.43956 0.369866 4.45118C0.362588 4.45635 0.354841 4.46104 0.347798 4.46632C0.332539 4.47794 0.318336 4.4905 0.303898 4.50306C0.29662 4.50952 0.288756 4.51527 0.281713 4.52184C0.268097 4.53429 0.255654 4.54802 0.242977 4.56128C0.236052 4.56868 0.228657 4.57537 0.221966 4.58288C0.209993 4.59638 0.199077 4.61082 0.187926 4.62502C0.181587 4.633 0.174662 4.64075 0.168675 4.64908C0.15858 4.66294 0.149659 4.67749 0.140386 4.69193C0.1344 4.70132 0.127827 4.71024 0.122192 4.71975C0.113741 4.73407 0.106463 4.74909 0.0988335 4.76388C0.0935514 4.7741 0.0876823 4.78407 0.0827523 4.79452C0.0759442 4.80908 0.0704273 4.8241 0.0643235 4.83901C0.0597457 4.85039 0.0545809 4.86119 0.0505899 4.8727C0.0454252 4.88725 0.0414342 4.90228 0.0370911 4.91707C0.0334523 4.92927 0.0292266 4.94136 0.0260573 4.95381C0.0224185 4.96836 0.0199535 4.98339 0.017019 4.99818C0.0144366 5.01109 0.0112673 5.024 0.00927187 5.03703C0.00692425 5.05205 0.00610259 5.06731 0.00457664 5.08245C0.00328545 5.0956 0.00128997 5.10875 0.000585686 5.12201C-0.00023598 5.13751 0.000350924 5.153 0.000350924 5.1685C0.000350924 5.18176 -0.000353361 5.19502 0.000233543 5.20829C0.000937829 5.22402 0.00316807 5.23986 0.00469402 5.25559C0.00598521 5.26862 0.00668949 5.28177 0.00856759 5.29491C0.0109152 5.31053 0.0146714 5.32614 0.0178407 5.34175C0.0205404 5.35501 0.0225359 5.3684 0.0258226 5.38166C0.0296961 5.39727 0.035213 5.41265 0.0400257 5.42814C0.0440166 5.44094 0.0471859 5.45397 0.0517638 5.46676C0.0518811 5.46699 0.0519985 5.46735 0.0521159 5.46758C0.0522333 5.46817 0.0523507 5.46864 0.0525854 5.46922L1.25703 8.77819C1.26607 8.80308 1.27851 8.82573 1.28943 8.84933C1.298 8.86764 1.30492 8.88712 1.31466 8.90461C1.3284 8.92938 1.34495 8.95145 1.3608 8.97457C1.37077 8.98901 1.37922 9.00486 1.39002 9.01859C1.40892 9.04289 1.43052 9.06448 1.45165 9.08632C1.46151 9.09653 1.47019 9.10815 1.48052 9.11789C1.50435 9.14031 1.53053 9.1598 1.55647 9.17928C1.56586 9.18644 1.57431 9.19478 1.58394 9.20135C1.61199 9.22072 1.64204 9.23703 1.67209 9.25288C1.68101 9.25758 1.68923 9.26368 1.69827 9.26814C1.72902 9.28317 1.7613 9.29479 1.79358 9.30606C1.80297 9.30934 1.81177 9.31404 1.82128 9.31709C1.85438 9.32754 1.88842 9.33423 1.9227 9.3408C1.93209 9.34256 1.94124 9.34585 1.95075 9.34726C1.99465 9.35418 2.03937 9.35758 2.08445 9.35758C2.10933 9.35758 2.13434 9.35641 2.15946 9.35442C2.16462 9.35395 2.16967 9.35289 2.17483 9.35242C2.19479 9.35031 2.21462 9.34808 2.23458 9.34467C2.24373 9.34303 2.25289 9.34056 2.26205 9.33869C2.27789 9.3354 2.29374 9.33235 2.30947 9.32812C2.32625 9.32378 2.3428 9.31803 2.35947 9.31251C2.36734 9.31005 2.3752 9.30793 2.38295 9.30512L2.38389 9.30476C2.38436 9.30465 2.38483 9.30441 2.3853 9.30429C2.38565 9.30418 2.386 9.30394 2.38635 9.30382L12.8552 5.52792L25.2698 39.6356C23.0552 41.5727 22.133 44.7448 23.1982 47.6712C24.2495 50.5593 27.02 52.5 30.0925 52.5C30.9472 52.5 31.7912 52.3506 32.601 52.0558C34.4424 51.3856 35.9124 50.0386 36.7407 48.2627C37.1809 47.3186 37.4094 46.3137 37.4284 45.3026L59.5196 37.2691C59.5196 37.2691 59.5197 37.2691 59.5199 37.269H59.52C59.5258 37.2669 59.5312 37.2641 59.537 37.2618C59.5594 37.2532 59.5816 37.2444 59.6028 37.234C59.6119 37.2297 59.6202 37.2244 59.6291 37.2197C59.6465 37.2107 59.6639 37.2019 59.6804 37.1918C59.6898 37.1859 59.6985 37.1791 59.7077 37.1731C59.7227 37.163 59.7381 37.1533 59.7524 37.1425C59.757 37.139 59.761 37.135 59.7654 37.1314C59.7835 37.117 59.8015 37.1026 59.8182 37.0869C59.8211 37.0839 59.8236 37.081 59.8265 37.0783C59.8442 37.0611 59.8616 37.0439 59.8779 37.0256C59.8812 37.0219 59.8839 37.0178 59.8871 37.0141C59.9024 36.9962 59.9173 36.9781 59.931 36.9592C59.9326 36.9572 59.9337 36.955 59.9352 36.9529C59.9501 36.9319 59.9644 36.9105 59.9774 36.8883C59.9798 36.8843 59.9816 36.88 59.984 36.8759C59.9956 36.8555 60.0068 36.8349 60.0167 36.8137C60.0206 36.8054 60.0237 36.7965 60.0272 36.7881C60.0347 36.7707 60.0423 36.7533 60.0488 36.7355C60.0531 36.7232 60.0563 36.7105 60.06 36.6981C60.0645 36.6836 60.0696 36.6693 60.0732 36.6546C60.0786 36.6329 60.0826 36.6109 60.0863 36.5888C60.0873 36.5829 60.0889 36.5773 60.0897 36.5715C60.1108 36.4311 60.098 36.2835 60.046 36.1406ZM34.4181 6.42729L35.4211 9.18457L32.6636 10.1882L31.66 7.43101L34.4181 6.42729ZM39.6368 20.7658L40.6405 23.5229L37.8822 24.5267L36.8788 21.7696L39.6368 20.7658ZM29.1585 24.5792L35.2246 22.3716L36.5294 25.9557C36.655 26.302 36.9872 26.5355 37.3569 26.5355C37.4591 26.5355 37.56 26.5168 37.6574 26.4815L42.0697 24.8757C42.5263 24.7102 42.7622 24.2043 42.5955 23.7477L41.2908 20.1638L47.3579 17.9557L53.1806 33.9532L35.6158 40.3407C35.286 39.9641 34.9203 39.622 34.5236 39.3212L29.1585 24.5792ZM14.2098 4.10056C14.2046 4.08648 14.1982 4.07321 14.1924 4.05936C14.1867 4.04586 14.1815 4.0319 14.1751 4.01863C14.1694 4.00654 14.1626 3.99551 14.1564 3.98389C14.1486 3.96945 14.1412 3.95466 14.1328 3.94081C14.1269 3.9313 14.1202 3.92261 14.114 3.91334C14.104 3.89832 14.0944 3.88306 14.0835 3.86885C14.0778 3.86134 14.0714 3.85465 14.0655 3.84726C14.0533 3.83211 14.0412 3.81697 14.028 3.80277C14.0227 3.79702 14.0167 3.79185 14.0112 3.78622C13.9966 3.77143 13.9822 3.75664 13.9667 3.7429C13.9622 3.73903 13.9574 3.73563 13.9529 3.73187C13.9358 3.7172 13.9184 3.70276 13.9002 3.68961C13.8977 3.68774 13.8948 3.68633 13.8923 3.68433C13.8718 3.66978 13.8509 3.65592 13.8293 3.64313C13.8277 3.64219 13.8259 3.64137 13.8243 3.64055C13.7041 3.57071 13.5679 3.52951 13.4271 3.52211C13.4258 3.52211 13.4246 3.52223 13.4233 3.52211C13.3961 3.52082 13.3687 3.5207 13.3412 3.52199C13.3361 3.52223 13.3311 3.52317 13.326 3.52352C13.3023 3.52504 13.2786 3.52692 13.2549 3.53044C13.2435 3.53221 13.2322 3.53502 13.2208 3.53725C13.2035 3.54042 13.186 3.54336 13.1686 3.5477C13.1489 3.55263 13.1293 3.55932 13.1097 3.56554C13.101 3.56836 13.0922 3.57047 13.0835 3.57352L13.0823 3.57399C13.082 3.57411 13.0815 3.57423 13.081 3.57434C13.0807 3.57446 13.0803 3.5747 13.08 3.57481L2.61114 7.35072L2.00886 5.69612L12.4764 1.92068C12.4766 1.92057 12.4768 1.92045 12.477 1.92045C12.4776 1.92021 12.4782 1.9201 12.4789 1.91986C13.8475 1.42181 15.3659 2.12986 15.8639 3.4984L28.4277 38.0174C28.1424 38.0841 27.8601 38.1669 27.582 38.2682C27.3019 38.3702 27.0331 38.4893 26.7734 38.6208L14.2098 4.10056ZM35.1447 47.5182C34.5153 48.868 33.398 49.8918 31.9986 50.4011C31.3824 50.6254 30.7409 50.7392 30.0922 50.7392C27.7572 50.7392 25.6515 49.2642 24.8526 47.0688C23.8011 44.18 25.2959 40.9743 28.1848 39.9226C28.801 39.6983 29.4424 39.5846 30.0912 39.5846C32.4261 39.5846 34.5319 41.0596 35.3308 43.2551C35.8403 44.6545 35.7742 46.1686 35.1447 47.5182ZM37.2357 43.4989C37.1688 43.2144 37.0868 42.9319 36.9853 42.653C36.8839 42.3743 36.7659 42.1045 36.6338 41.8442L57.4879 34.2607L58.0902 35.9152L37.2357 43.4989Z" fill="white"/>
</svg>
