<svg width="36" height="36" viewBox="0 0 36 36" fill="none" xmlns="http://www.w3.org/2000/svg">
<path d="M33.6202 9.76772L33.6191 9.73971C33.6034 9.39391 33.593 9.02807 33.5867 8.62103C33.5573 6.63607 31.9794 4.99417 29.9942 4.88321C25.8551 4.65222 22.6531 3.30255 19.9173 0.635901L19.8939 0.613654C19.0015 -0.204551 17.6554 -0.204551 16.7628 0.613654L16.7395 0.635901C14.0036 3.30255 10.8016 4.65222 6.66255 4.88348C4.6776 4.99417 3.09941 6.63607 3.07002 8.6213C3.06398 9.0256 3.05327 9.39144 3.03762 9.73971L3.03597 9.8048C2.95549 14.0255 2.85552 19.2783 4.61278 24.0461C5.57902 26.668 7.0424 28.9471 8.96198 30.8205C11.1483 32.954 14.0118 34.6479 17.4731 35.8547C17.5857 35.894 17.7027 35.9258 17.8219 35.9497C17.99 35.9832 18.1592 36 18.3284 36C18.4975 36 18.667 35.9832 18.8348 35.9497C18.954 35.9258 19.0719 35.8937 19.185 35.8542C22.6421 34.6451 25.5027 32.9505 27.687 30.8172C29.6058 28.9432 31.0692 26.6636 32.0362 24.0411C33.8001 19.2591 33.7004 13.9964 33.6202 9.76772ZM30.0543 23.3103C28.2009 28.3354 24.4175 31.7865 18.4879 33.8601C18.4668 33.8673 18.4443 33.8736 18.4209 33.8783C18.3597 33.8904 18.2973 33.8904 18.2352 33.878C18.2122 33.8733 18.1897 33.8673 18.1688 33.8601C12.2329 31.7903 8.447 28.3412 6.59498 23.3158C4.97533 18.921 5.06706 14.0991 5.14809 9.84517L5.14863 9.82155C5.16511 9.45598 5.1761 9.07311 5.18214 8.65234C5.19533 7.77096 5.89735 7.04174 6.78038 6.99258C9.12266 6.86184 11.1804 6.40921 13.0711 5.60885C14.9594 4.8096 16.6365 3.68295 18.1976 2.16465C18.277 2.09763 18.38 2.09735 18.4591 2.16465C20.0205 3.68295 21.6976 4.8096 23.5856 5.60885C25.4763 6.40921 27.5341 6.86184 29.8766 6.99258C30.7596 7.04174 31.4617 7.77096 31.4746 8.65261C31.4809 9.07558 31.4919 9.45846 31.5084 9.82155C31.5891 14.0804 31.6786 18.9061 30.0543 23.3103Z" fill="#019529"/>
<path d="M23.374 14.3125C23.1828 14.1359 22.888 14.1356 22.6964 14.3118L16.4549 20.0513C16.2643 20.2265 15.9715 20.2273 15.78 20.0531L14.278 18.6868C14.0873 18.5133 13.7959 18.5133 13.6052 18.6868L12.4067 19.7767C12.1886 19.9751 12.1877 20.3176 12.4044 20.5175C13.425 21.4595 15.0734 23.0133 15.7796 23.68C15.971 23.8607 16.2651 23.8641 16.4583 23.6853C17.7565 22.484 22.4362 18.1556 24.599 16.1793C24.8156 15.9814 24.8146 15.6425 24.5991 15.4435L23.374 14.3125Z" fill="#019529"/>
</svg>
