<svg width="43" height="25" viewBox="0 0 43 25" fill="none" xmlns="http://www.w3.org/2000/svg">
<path d="M42.2258 12.38C42.2258 19.1923 36.7236 24.76 29.8458 24.76C23.0335 24.76 17.4658 19.1923 17.4658 12.38C17.4658 5.56772 22.968 0 29.7803 0C36.7236 0 42.2258 5.56772 42.2258 12.38Z" fill="#FFB600"/>
<path d="M29.8458 0C36.6581 0 42.2258 5.56772 42.2258 12.38C42.2258 19.1923 36.7236 24.76 29.8458 24.76C23.0335 24.76 17.4658 19.1923 17.4658 12.38" fill="#F7981D"/>
<path d="M29.8447 0C36.657 0 42.2247 5.56772 42.2247 12.38C42.2247 19.1923 36.7225 24.76 29.8447 24.76" fill="#FF8500"/>
<path d="M13.207 0C6.46023 0.0655026 0.958008 5.56772 0.958008 12.38C0.958008 19.1923 6.46023 24.76 13.338 24.76C16.5476 24.76 19.4297 23.5154 21.6568 21.5504C22.1154 21.1573 22.5084 20.6988 22.9014 20.2403H20.3468C20.0193 19.8473 19.6918 19.3888 19.4297 18.9958H23.8184C24.0804 18.6027 24.3424 18.1442 24.5389 17.6857H18.7092C18.5127 17.2927 18.3162 16.8342 18.1852 16.3757H24.9975C25.3905 15.1311 25.6525 13.8211 25.6525 12.4455C25.6525 11.5285 25.5215 10.6769 25.3905 9.82539H17.7922C17.8577 9.36688 17.9887 8.97386 18.1197 8.51534H24.932C24.801 8.05682 24.6044 7.5983 24.4079 7.20529H18.6437C18.8402 6.74677 19.1022 6.35375 19.3642 5.89524H23.7529C23.4909 5.43672 23.1634 4.9782 22.7704 4.58518H20.3468C20.7398 4.12667 21.1328 3.73365 21.5913 3.34063C19.4297 1.31005 16.4821 0.131005 13.2725 0.131005C13.2725 -1.26888e-07 13.2725 0 13.207 0Z" fill="#FF5050"/>
<path d="M0.958008 12.3779C0.958008 19.1902 6.46023 24.7579 13.338 24.7579C16.5476 24.7579 19.4297 23.5133 21.6568 21.5483C22.1154 21.1552 22.5084 20.6967 22.9014 20.2382H20.3468C20.0193 19.8452 19.6918 19.3867 19.4297 18.9937H23.8184C24.0804 18.6006 24.3424 18.1421 24.5389 17.6836H18.7092C18.5127 17.2906 18.3162 16.8321 18.1852 16.3736H24.9975C25.3905 15.129 25.6525 13.819 25.6525 12.4434C25.6525 11.5264 25.5215 10.6748 25.3905 9.82329H17.7922C17.8577 9.36477 17.9887 8.97176 18.1197 8.51324H24.932C24.801 8.05472 24.6044 7.5962 24.4079 7.20319H18.6437C18.8402 6.74467 19.1022 6.35165 19.3642 5.89314H23.7529C23.4909 5.43462 23.1634 4.9761 22.7704 4.58308H20.3468C20.7398 4.12457 21.1328 3.73155 21.5913 3.33853C19.4297 1.30795 16.4821 0.128906 13.2725 0.128906H13.207" fill="#E52836"/>
<path d="M13.338 24.7579C16.5477 24.7579 19.4298 23.5133 21.6569 21.5483C22.1154 21.1552 22.5084 20.6967 22.9014 20.2382H20.3468C20.0193 19.8452 19.6918 19.3867 19.4298 18.9937H23.8185C24.0805 18.6006 24.3425 18.1421 24.539 17.6836H18.7093C18.5127 17.2906 18.3162 16.8321 18.1852 16.3736H24.9975C25.3905 15.129 25.6525 13.819 25.6525 12.4434C25.6525 11.5264 25.5215 10.6748 25.3905 9.82329H17.7922C17.8577 9.36477 17.9887 8.97176 18.1197 8.51324H24.932C24.801 8.05472 24.6045 7.5962 24.408 7.20319H18.6437C18.8403 6.74467 19.1023 6.35165 19.3643 5.89314H23.753C23.4909 5.43462 23.1634 4.9761 22.7704 4.58308H20.3468C20.7398 4.12457 21.1328 3.73155 21.5914 3.33853C19.4298 1.30795 16.4822 0.128906 13.2725 0.128906H13.207" fill="#CB2026"/>
<path d="M17.7267 15.5279L17.9232 14.4144C17.8577 14.4144 17.7267 14.4799 17.5957 14.4799C17.1372 14.4799 17.0717 14.2179 17.1372 14.0868L17.5302 11.7943H18.2507L18.4473 10.5497H17.7922L17.9232 9.76367H16.6132C16.6132 9.76367 15.8271 14.0868 15.8271 14.6109C15.8271 15.3969 16.2857 15.7244 16.8752 15.7244C17.2682 15.7244 17.5957 15.5934 17.7267 15.5279Z" fill="white"/>
<path d="M18.1846 13.4266C18.1846 15.2607 19.4291 15.7192 20.4772 15.7192C21.4597 15.7192 21.8527 15.5227 21.8527 15.5227L22.1147 14.2781C22.1147 14.2781 21.3942 14.6057 20.7392 14.6057C19.2981 14.6057 19.5601 13.5576 19.5601 13.5576H22.2457C22.2457 13.5576 22.4422 12.7061 22.4422 12.3786C22.4422 11.527 21.9837 10.479 20.5427 10.479C19.1671 10.348 18.1846 11.789 18.1846 13.4266ZM20.4772 11.527C21.1977 11.527 21.0667 12.3786 21.0667 12.4441H19.6256C19.6256 12.3786 19.7566 11.527 20.4772 11.527Z" fill="white"/>
<path d="M28.796 15.5276L29.058 14.0865C29.058 14.0865 28.403 14.414 27.9445 14.414C27.0274 14.414 26.6344 13.6935 26.6344 12.9075C26.6344 11.3354 27.4204 10.4839 28.3375 10.4839C28.9925 10.4839 29.5165 10.8769 29.5165 10.8769L29.713 9.50134C29.713 9.50134 28.927 9.17383 28.2065 9.17383C26.6999 9.17383 25.1934 10.4839 25.1934 12.973C25.1934 14.6106 25.9794 15.7241 27.5515 15.7241C28.0755 15.7241 28.796 15.5276 28.796 15.5276Z" fill="white"/>
<path d="M10.5204 10.3516C9.60331 10.3516 8.94829 10.6136 8.94829 10.6136L8.75178 11.7271C8.75178 11.7271 9.3413 11.4651 10.1928 11.4651C10.6514 11.4651 11.0444 11.5306 11.0444 11.9236C11.0444 12.1856 10.9789 12.2511 10.9789 12.2511C10.9789 12.2511 10.5859 12.2511 10.3893 12.2511C9.2758 12.2511 8.03125 12.7097 8.03125 14.2162C8.03125 15.3953 8.81728 15.6573 9.2758 15.6573C10.1928 15.6573 10.5859 15.0678 10.6514 15.0678L10.5859 15.5918H11.7649L12.2889 11.9891C12.2889 10.4171 10.9789 10.3516 10.5204 10.3516ZM10.7824 13.2992C10.7824 13.4957 10.6514 14.5437 9.86532 14.5437C9.47231 14.5437 9.3413 14.2162 9.3413 14.0197C9.3413 13.6922 9.53781 13.2337 10.5204 13.2337C10.7169 13.2992 10.7824 13.2992 10.7824 13.2992Z" fill="white"/>
<path d="M13.5349 15.6622C13.8624 15.6622 15.5 15.7277 15.5 13.9592C15.5 12.3216 13.9279 12.6491 13.9279 11.9941C13.9279 11.6666 14.1899 11.5356 14.6484 11.5356C14.8449 11.5356 15.5655 11.6011 15.5655 11.6011L15.762 10.422C15.762 10.422 15.3035 10.291 14.5174 10.291C13.5349 10.291 12.5523 10.684 12.5523 11.9941C12.5523 13.5006 14.1899 13.3696 14.1899 13.9592C14.1899 14.3522 13.7314 14.4177 13.4039 14.4177C12.8144 14.4177 12.2248 14.2212 12.2248 14.2212L12.0283 15.4002C12.0938 15.5312 12.4213 15.6622 13.5349 15.6622Z" fill="white"/>
<path d="M39.6692 9.30273L39.4072 11.0713C39.4072 11.0713 38.8832 10.4163 38.1626 10.4163C36.9836 10.4163 35.9355 11.8573 35.9355 13.5604C35.9355 14.6084 36.4596 15.722 37.5731 15.722C38.3591 15.722 38.8177 15.198 38.8177 15.198L38.7522 15.6565H40.0622L41.0448 9.36824L39.6692 9.30273ZM39.0797 12.7744C39.0797 13.4949 38.7522 14.4119 38.0316 14.4119C37.5731 14.4119 37.3111 14.0189 37.3111 13.3639C37.3111 12.3159 37.7696 11.6608 38.3591 11.6608C38.8177 11.6608 39.0797 11.9883 39.0797 12.7744Z" fill="white"/>
<path d="M3.38127 15.591L4.1673 10.8748L4.2983 15.591H5.21534L6.91841 10.8748L6.19788 15.591H7.57343L8.62148 9.30273H6.45989L5.14984 13.1674L5.08434 9.30273H3.18476L2.13672 15.591H3.38127Z" fill="white"/>
<path d="M23.6872 15.5955C24.0802 13.4339 24.1457 11.6654 25.0627 11.9929C25.1937 11.1414 25.3902 10.8138 25.5212 10.4863C25.5212 10.4863 25.4557 10.4863 25.2592 10.4863C24.6697 10.4863 24.2112 11.2724 24.2112 11.2724L24.3422 10.5518H23.0976L22.2461 15.661H23.6872V15.5955Z" fill="white"/>
<path d="M31.8094 10.3516C30.8924 10.3516 30.2374 10.6136 30.2374 10.6136L30.0408 11.7271C30.0408 11.7271 30.6304 11.4651 31.4819 11.4651C31.9404 11.4651 32.3334 11.5306 32.3334 11.9236C32.3334 12.1856 32.2679 12.2511 32.2679 12.2511C32.2679 12.2511 31.8749 12.2511 31.6784 12.2511C30.5649 12.2511 29.3203 12.7097 29.3203 14.2162C29.3203 15.3953 30.1063 15.6573 30.5649 15.6573C31.4819 15.6573 31.8749 15.0678 31.9404 15.0678L31.8749 15.5918H33.054L33.578 11.9891C33.6435 10.4171 32.2679 10.3516 31.8094 10.3516ZM32.1369 13.2992C32.1369 13.4957 32.0059 14.5437 31.2199 14.5437C30.8269 14.5437 30.6959 14.2162 30.6959 14.0197C30.6959 13.6922 30.8924 13.2337 31.8749 13.2337C32.0714 13.2992 32.0714 13.2992 32.1369 13.2992Z" fill="white"/>
<path d="M34.6911 15.5955C35.0841 13.4339 35.1496 11.6654 36.0666 11.9929C36.1976 11.1414 36.3941 10.8138 36.5251 10.4863C36.5251 10.4863 36.4596 10.4863 36.2631 10.4863C35.6736 10.4863 35.2151 11.2724 35.2151 11.2724L35.3461 10.5518H34.1015L33.25 15.661H34.6911V15.5955Z" fill="white"/>
<path d="M15.6963 14.6109C15.6963 15.3969 16.1548 15.7244 16.7443 15.7244C17.2028 15.7244 17.5959 15.5934 17.7269 15.5279L17.9234 14.4144C17.8579 14.4144 17.7269 14.4799 17.5959 14.4799C17.1373 14.4799 17.0718 14.2179 17.1373 14.0868L17.5304 11.7943H18.2509L18.4474 10.5497H17.7924L17.9234 9.76367" fill="#DCE5E5"/>
<path d="M18.8398 13.4266C18.8398 15.2607 19.4294 15.7192 20.4774 15.7192C21.46 15.7192 21.853 15.5227 21.853 15.5227L22.115 14.2781C22.115 14.2781 21.3945 14.6057 20.7394 14.6057C19.2984 14.6057 19.5604 13.5576 19.5604 13.5576H22.246C22.246 13.5576 22.4425 12.7061 22.4425 12.3786C22.4425 11.527 21.984 10.479 20.5429 10.479C19.1674 10.348 18.8398 11.789 18.8398 13.4266ZM20.4774 11.527C21.1979 11.527 21.3289 12.3786 21.3289 12.4441H19.6259C19.6259 12.3786 19.7569 11.527 20.4774 11.527Z" fill="#DCE5E5"/>
<path d="M28.7972 15.5276L29.0592 14.0865C29.0592 14.0865 28.4042 14.414 27.9457 14.414C27.0287 14.414 26.6356 13.6935 26.6356 12.9075C26.6356 11.3354 27.4217 10.4839 28.3387 10.4839C28.9937 10.4839 29.5178 10.8769 29.5178 10.8769L29.7143 9.50134C29.7143 9.50134 28.9282 9.17383 28.2077 9.17383C26.7011 9.17383 25.8496 10.4839 25.8496 12.973C25.8496 14.6106 25.9806 15.7241 27.5527 15.7241C28.0767 15.7241 28.7972 15.5276 28.7972 15.5276Z" fill="#DCE5E5"/>
<path d="M8.75178 11.7964C8.75178 11.7964 9.3413 11.5344 10.1928 11.5344C10.6514 11.5344 11.0444 11.5999 11.0444 11.9929C11.0444 12.2549 10.9789 12.3204 10.9789 12.3204C10.9789 12.3204 10.5859 12.3204 10.3893 12.3204C9.2758 12.3204 8.03125 12.7789 8.03125 14.2855C8.03125 15.4645 8.81728 15.7265 9.2758 15.7265C10.1928 15.7265 10.5859 15.137 10.6514 15.137L10.5859 15.661H11.7649L12.2889 12.0584C12.2889 10.5518 10.9789 10.4863 10.4548 10.4863L8.75178 11.7964ZM11.4374 13.3029C11.4374 13.4995 10.6514 14.5475 9.86532 14.5475C9.47231 14.5475 9.3413 14.22 9.3413 14.0235C9.3413 13.696 9.53781 13.2374 10.5204 13.2374C10.7169 13.3029 11.4374 13.3029 11.4374 13.3029Z" fill="#DCE5E5"/>
<path d="M12.0928 15.5312C12.0928 15.5312 12.4858 15.6622 13.5993 15.6622C13.9268 15.6622 15.5644 15.7277 15.5644 13.9592C15.5644 12.3216 13.9923 12.6491 13.9923 11.9941C13.9923 11.6666 14.2544 11.5356 14.7129 11.5356C14.9094 11.5356 15.6299 11.6011 15.6299 11.6011L15.8264 10.422C15.8264 10.422 15.3679 10.291 14.5819 10.291C13.5993 10.291 13.2718 10.684 13.2718 11.9941C13.2718 13.5006 14.2544 13.3696 14.2544 13.9592C14.2544 14.3522 13.7958 14.4177 13.4683 14.4177" fill="#DCE5E5"/>
<path d="M39.4073 11.0722C39.4073 11.0722 38.8833 10.4172 38.1627 10.4172C36.9837 10.4172 36.5907 11.8582 36.5907 13.5613C36.5907 14.6094 36.4597 15.7229 37.5732 15.7229C38.3593 15.7229 38.8178 15.1989 38.8178 15.1989L38.7523 15.6574H40.0623L41.0449 9.36914L39.4073 11.0722ZM39.3418 12.7753C39.3418 13.4958 38.7523 14.4128 38.0317 14.4128C37.5732 14.4128 37.3112 14.0198 37.3112 13.3648C37.3112 12.3168 37.7697 11.6617 38.3593 11.6617C38.8178 11.6617 39.3418 11.9892 39.3418 12.7753Z" fill="#DCE5E5"/>
<path d="M3.38127 15.591L4.1673 10.8748L4.2983 15.591H5.21534L6.91841 10.8748L6.19788 15.591H7.57343L8.62148 9.30273H6.98391L5.14984 13.1674L5.08434 9.30273H4.36381L2.13672 15.591H3.38127Z" fill="#DCE5E5"/>
<path d="M22.3115 15.5955H23.6871C24.0801 13.4339 24.1456 11.6654 25.0626 11.9929C25.1936 11.1414 25.3901 10.8138 25.5212 10.4863C25.5212 10.4863 25.4556 10.4863 25.2591 10.4863C24.6696 10.4863 24.2111 11.2724 24.2111 11.2724L24.3421 10.5518" fill="#DCE5E5"/>
<path d="M30.0408 11.7964C30.0408 11.7964 30.6304 11.5344 31.4819 11.5344C31.9404 11.5344 32.3334 11.5999 32.3334 11.9929C32.3334 12.2549 32.2679 12.3204 32.2679 12.3204C32.2679 12.3204 31.8749 12.3204 31.6784 12.3204C30.5649 12.3204 29.3203 12.7789 29.3203 14.2855C29.3203 15.4645 30.1063 15.7265 30.5649 15.7265C31.4819 15.7265 31.8749 15.137 31.9404 15.137L31.8749 15.661H33.054L33.578 12.0584C33.578 10.5518 32.2679 10.4863 31.7439 10.4863L30.0408 11.7964ZM32.7265 13.3029C32.7265 13.4995 31.9404 14.5475 31.1544 14.5475C30.7614 14.5475 30.6304 14.22 30.6304 14.0235C30.6304 13.696 30.8269 13.2374 31.8094 13.2374C32.0714 13.3029 32.7265 13.3029 32.7265 13.3029Z" fill="#DCE5E5"/>
<path d="M33.3164 15.5955H34.692C35.085 13.4339 35.1505 11.6654 36.0675 11.9929C36.1985 11.1414 36.395 10.8138 36.526 10.4863C36.526 10.4863 36.4605 10.4863 36.264 10.4863C35.6745 10.4863 35.216 11.2724 35.216 11.2724L35.347 10.5518" fill="#DCE5E5"/>
</svg>
