<svg width="24" height="24" viewBox="0 0 24 24" fill="none" xmlns="http://www.w3.org/2000/svg">
<path d="M3.07523 13.3047C2.84601 13.3047 2.66016 13.4716 2.66016 13.6775V15.169C2.66016 15.3749 2.84601 15.5418 3.07523 15.5418C3.30446 15.5418 3.4903 15.3749 3.4903 15.169V13.6775C3.4903 13.4716 3.30446 13.3047 3.07523 13.3047Z" fill="#019529"/>
<path d="M4.73539 14.0508C4.50616 14.0508 4.32031 14.2177 4.32031 14.4236V15.9151C4.32031 16.121 4.50616 16.2879 4.73539 16.2879C4.96461 16.2879 5.15046 16.121 5.15046 15.9151V14.4236C5.15046 14.2177 4.96461 14.0508 4.73539 14.0508Z" fill="#019529"/>
<path d="M19.8762 16.0488C19.6828 15.9383 19.4262 15.9897 19.3033 16.1635C19.1853 16.3303 19.2327 16.5509 19.4113 16.6662C20.5523 17.3563 20.8544 18.7465 20.0863 19.7714C19.3181 20.7963 17.7704 21.0677 16.6295 20.3777C15.4886 19.6876 15.1864 18.2973 15.9546 17.2725C16.4172 16.6554 17.191 16.2852 18.0192 16.2848C18.2484 16.2848 18.4343 16.1178 18.4343 15.9119C18.4343 15.706 18.2484 15.5391 18.0192 15.5391C16.1853 15.5394 14.6989 16.8751 14.6992 18.5225C14.6996 20.1699 16.1865 21.5051 18.0204 21.5048C19.8543 21.5045 21.3408 20.1688 21.3404 18.5214C21.3402 17.5298 20.7915 16.6031 19.8762 16.0488Z" fill="#010304"/>
<path d="M22.8034 17.286C22.4012 16.0345 21.4117 15.0028 20.0934 14.4603V6.22011C20.0935 6.08826 20.016 5.96619 19.8896 5.89908L10.758 1.05191C10.6276 0.982697 10.4657 0.982697 10.3354 1.05191L1.2038 5.89908C1.19508 5.90355 1.18886 5.91026 1.18056 5.91548C1.17226 5.9207 1.16437 5.92667 1.15607 5.93263C1.12001 5.95813 1.08903 5.98889 1.06434 6.02361C1.06434 6.02622 1.05936 6.02771 1.0577 6.03032V6.03293C1.0343 6.07082 1.01842 6.11207 1.01079 6.15486C1.01079 6.16604 1.00706 6.17648 1.00581 6.18767C1.00457 6.19885 1 6.20892 1 6.22011V15.9144C0.999948 16.0463 1.07746 16.1684 1.2038 16.2355L10.3354 21.0826C10.3464 21.0874 10.3576 21.0916 10.3691 21.0953C10.3804 21.1004 10.392 21.1049 10.4039 21.1087C10.4953 21.143 10.5981 21.143 10.6895 21.1087C10.7015 21.1049 10.7133 21.1004 10.7248 21.0953C10.7356 21.0908 10.7472 21.0882 10.758 21.0826L13.2364 19.7668C13.999 22.14 16.7589 23.5085 19.4008 22.8234C22.0426 22.1383 23.566 19.6592 22.8034 17.286ZM10.5467 1.80583L12.7051 2.95163L9.50487 4.65037C9.3074 4.75519 9.24187 4.98399 9.35856 5.16138C9.47525 5.33876 9.72995 5.39763 9.92742 5.29281L13.5215 3.38638L15.6799 4.53218L7.36433 8.94496L5.20595 7.79917L8.68303 5.95351C8.8805 5.84869 8.94603 5.6199 8.82934 5.44251C8.71265 5.26512 8.45795 5.20626 8.26048 5.31108L4.38991 7.3659L2.23111 6.22011L10.5467 1.80583ZM6.94926 9.59113V12.0807L4.80499 10.9424V8.45279L6.94926 9.59113ZM13.2012 17.3719C13.0908 17.748 13.0356 18.1355 13.0372 18.5245C13.0373 18.6805 13.0464 18.8364 13.0646 18.9916L10.9618 20.1084V18.8973C10.9618 18.6914 10.7759 18.5245 10.5467 18.5245C10.3175 18.5245 10.1316 18.6914 10.1316 18.8973V20.1084L1.83015 15.7019V6.87373L3.97484 8.01207V11.1549C3.97468 11.2869 4.05215 11.4091 4.17864 11.4763L7.15306 13.0554C7.21709 13.0892 7.29004 13.1071 7.36433 13.1072C7.59356 13.1072 7.77941 12.9402 7.77941 12.7343V10.0315L10.1316 11.2802V17.4059C10.1316 17.6118 10.3175 17.7787 10.5467 17.7787C10.7759 17.7787 10.9618 17.6118 10.9618 17.4059V11.2802L18.4846 7.28686C18.682 7.18204 18.7474 6.95334 18.6307 6.77604C18.514 6.59875 18.2594 6.53997 18.062 6.64479L10.5467 10.6344L8.18079 9.37822L16.4964 4.96395L19.2633 6.43264V14.1993C16.614 13.5716 13.8999 14.992 13.2012 17.3719ZM18.018 22.253C15.7256 22.253 13.8673 20.5837 13.8673 18.5245C13.8673 16.4652 15.7256 14.7959 18.018 14.7959C20.3104 14.7959 22.1688 16.4652 22.1688 18.5245C22.1663 20.5828 20.3094 22.2508 18.018 22.253Z" fill="#010304"/>
<path d="M19.547 17.5188C19.3862 17.3792 19.1311 17.3792 18.9703 17.5188L17.3959 18.933L17.0667 18.6373C16.9019 18.4942 16.6391 18.4983 16.4798 18.6465C16.3244 18.7909 16.3244 19.0201 16.4798 19.1646L17.1024 19.7238C17.2645 19.8694 17.5273 19.8694 17.6894 19.7238L19.5572 18.046C19.7165 17.8979 19.7119 17.6618 19.547 17.5188Z" fill="#019529"/>
</svg>
