<svg width="8" height="10" viewBox="0 0 8 10" fill="none" xmlns="http://www.w3.org/2000/svg">
<path fill-rule="evenodd" clip-rule="evenodd" d="M5.18153 0C5.31414 0 5.44131 0.0526784 5.53508 0.146447L5.79775 0.409111C5.89151 0.502879 6.01869 0.555557 6.1513 0.555557H7.38864C7.66479 0.555557 7.88864 0.779415 7.88864 1.05556V1.16667C7.88864 1.44281 7.66479 1.66667 7.38864 1.66667H0.61084C0.334697 1.66667 0.11084 1.44281 0.11084 1.16667V1.05556C0.11084 0.779415 0.334698 0.555557 0.61084 0.555557H1.84818C1.98079 0.555557 2.10797 0.502879 2.20174 0.409111L2.4644 0.146447C2.55817 0.0526784 2.68535 0 2.81796 0H5.18153ZM0.666373 8.88893C0.666373 9.50004 1.16637 10 1.77749 10H6.22195C6.83306 10 7.33306 9.50004 7.33306 8.88893V2.72224C7.33306 2.4461 7.1092 2.22224 6.83306 2.22224H1.16637C0.89023 2.22224 0.666373 2.4461 0.666373 2.72224V8.88893ZM1.77744 3.83331C1.77744 3.55716 2.0013 3.33331 2.27744 3.33331H5.7219C5.99804 3.33331 6.2219 3.55717 6.2219 3.83331V8.38888C6.2219 8.66502 5.99804 8.88888 5.7219 8.88888H2.27744C2.0013 8.88888 1.77744 8.66502 1.77744 8.38888V3.83331Z" fill="#019529"/>
</svg>
