<svg width="12" height="9" viewBox="0 0 12 9" fill="none" xmlns="http://www.w3.org/2000/svg">
<path fill-rule="evenodd" clip-rule="evenodd" d="M6 0.214355C3.27273 0.214355 0.943636 1.9915 0 4.50007C0.943636 7.00864 3.27273 8.78578 6 8.78578C8.72727 8.78578 11.0564 7.00864 12 4.50007C11.0564 1.9915 8.72727 0.214355 6 0.214355ZM5.77121 6.77282C4.32311 6.77282 3.14784 5.59755 3.14784 4.14944C3.14784 2.70134 4.32311 1.52607 5.77121 1.52607C7.21932 1.52607 8.39459 2.70134 8.39459 4.14944C8.39459 5.59755 7.21932 6.77282 5.77121 6.77282ZM4.28568 4.07155C4.28568 3.36012 4.85997 2.78583 5.5714 2.78583C6.28282 2.78583 6.85711 3.36012 6.85711 4.07155C6.85711 4.78298 6.28282 5.35726 5.5714 5.35726C4.85997 5.35726 4.28568 4.78298 4.28568 4.07155Z" fill="#020611"/>
</svg>
