<svg width="12" height="11" viewBox="0 0 12 11" fill="none" xmlns="http://www.w3.org/2000/svg">
<path fill-rule="evenodd" clip-rule="evenodd" d="M2.01272 2.73635L0.935398 1.65903C0.72283 1.44646 0.722221 1.10201 0.934037 0.888694C1.14696 0.674265 1.4936 0.673701 1.70721 0.887437L10.6065 9.79172C10.8188 10.0041 10.8187 10.3484 10.6064 10.5608C10.394 10.7732 10.0496 10.7732 9.83717 10.5608L8.35632 9.07996C7.62542 9.36905 6.82906 9.52723 5.99997 9.52723C3.27271 9.52723 0.943632 7.83087 0 5.43634C0.419998 4.3618 1.12363 3.43453 2.01272 2.73635ZM6.00011 2.4364C8.06737 2.4364 9.911 3.59821 10.811 5.43638C10.5766 5.92116 10.2726 6.35672 9.91612 6.73675C9.70162 6.9654 9.68562 7.32736 9.9073 7.54904C10.1086 7.75033 10.4336 7.76178 10.6317 7.55735C11.2178 6.95256 11.6865 6.23611 12.0001 5.43638C11.0564 3.04185 8.72737 1.34549 6.00011 1.34549C5.74853 1.34549 5.50054 1.35988 5.25668 1.38787C4.67897 1.45419 4.50347 2.14521 4.91466 2.5564C5.2692 2.48549 5.6292 2.4364 6.00011 2.4364ZM5.41621 3.05821L6.54529 4.1873C6.8562 4.32366 7.10711 4.57457 7.24347 4.88548L8.37256 6.01456C8.41619 5.82911 8.44892 5.63275 8.44892 5.43093C8.45437 4.07821 7.35256 2.98185 5.99984 2.98185C5.79802 2.98185 5.60711 3.00912 5.41621 3.05821ZM4.64194 5.36545L6.06557 6.78908C6.04375 6.79454 6.02193 6.79999 6.00011 6.79999C5.24739 6.79999 4.63648 6.18909 4.63648 5.43636C4.63648 5.42273 4.63785 5.41182 4.63921 5.40091C4.64057 5.39 4.64194 5.37909 4.64194 5.36545ZM3.74173 4.46554L2.78719 3.511C2.12719 4.01281 1.57083 4.65644 1.18902 5.43644C2.08901 7.27461 3.93264 8.43643 5.9999 8.43643C6.51808 8.43643 7.0199 8.36006 7.49989 8.22915L6.96535 7.69461C6.67081 7.82006 6.34354 7.89097 5.9999 7.89097C4.64718 7.89097 3.54537 6.78916 3.54537 5.43644C3.54537 5.09281 3.61628 4.76553 3.74173 4.46554Z" fill="#019529"/>
</svg>
