<svg width="54" height="54" viewBox="0 0 54 54" fill="none" xmlns="http://www.w3.org/2000/svg">
<path d="M31.1562 31.5898C30.5 31.5898 30.0625 32.0273 29.625 32.4648V28.3086H27.875V41.2148H29.625V40.5586C30.0625 41.2148 30.7188 41.4336 31.375 41.4336C32.4688 41.4336 32.9062 40.5586 32.9062 39.2461V33.9961C32.9062 32.6836 32.4687 31.5898 31.1562 31.5898ZM30.9375 38.8086C30.9375 39.0273 30.9375 39.2461 30.7187 39.4648C30.5 39.6836 30.0625 39.6836 29.8438 39.4648L29.4062 39.0273V33.3398L29.8438 33.1211C30.0625 32.9023 30.5 32.9023 30.7187 33.3398C30.9375 33.5586 30.9375 33.7773 30.9375 33.9961V38.8086ZM25.0312 20.2148V15.6211C25.0312 15.1836 25.25 14.7461 25.9062 14.7461C26.5625 14.7461 26.7812 15.1836 26.7812 15.6211V20.2148C26.7812 20.6523 26.5625 21.0898 25.9062 21.0898C25.4688 21.0898 25.0312 20.6523 25.0312 20.2148ZM21.0938 30.0586H18.9062V40.9961H16.9375V30.0586H14.9688V28.0898H21.0938C21.0938 28.3086 21.0938 30.0586 21.0938 30.0586ZM24.375 31.5898H26.125V40.9961H24.375V39.9023C24.1562 40.3398 23.7188 40.5586 23.2812 40.7773C22.4062 41.2148 21.0938 41.2148 21.0938 39.4648V31.5898H22.8438V38.8086C22.8438 39.2461 22.8438 39.4648 23.2812 39.4648C23.7188 39.4648 24.1562 39.0273 24.375 38.8086V31.5898ZM5.75 0.527344C2.98858 0.527344 0.75 2.76592 0.75 5.52734V48.0273C0.75 50.7888 2.98858 53.0273 5.75 53.0273H48.25C51.0114 53.0273 53.25 50.7888 53.25 48.0273V5.52734C53.25 2.76592 51.0114 0.527344 48.25 0.527344H5.75ZM30.0625 12.7773H31.8125V20.4336C31.8125 20.8711 31.8125 21.0898 32.25 21.0898C32.6875 21.0898 33.125 20.6523 33.3438 20.4336V12.7773H35.0937V22.8398H33.5625V21.7461C32.6875 22.6211 32.0312 23.0586 31.375 23.0586C30.2812 23.0586 30.0625 22.1836 30.0625 21.3086V12.7773ZM25.9062 12.7773C27.4375 12.7773 28.5312 13.8711 28.5312 15.4023V20.2148C28.5312 21.9648 27.4375 22.8398 25.9062 22.8398C24.1562 22.8398 23.2812 21.9648 23.2812 20.2148V15.4023C23.2812 13.8711 24.375 12.7773 25.9062 12.7773ZM18.4688 9.27734L20 14.7461L21.0938 9.27734H23.2812L20.875 17.3711V22.8398H18.6875V17.3711L16.2812 9.27734H18.4688ZM37.0625 44.0586C33.3438 44.2773 20.875 44.2773 17.1562 44.0586C13 43.8398 12.5625 41.2148 12.5625 34.8711C12.5625 28.3086 13 25.9023 17.1562 25.6836C20.875 25.4648 33.3438 25.4648 37.0625 25.6836C41.2188 25.9023 41.6562 28.5273 41.6562 34.8711C41.6562 41.2148 41 43.8398 37.0625 44.0586ZM36.8438 31.3711C35.3125 31.3711 34.2188 32.4648 34.2188 34.2148V38.3711C34.2188 40.1211 35.0938 41.2148 36.8438 41.2148C38.5938 41.2148 39.4688 40.1211 39.4688 38.3711V37.7148H37.7188V38.3711C37.7188 39.2461 37.7188 39.6836 36.8438 39.6836C36.1875 39.6836 35.9688 39.0273 35.9688 38.3711V36.6211H39.25V34.2148C39.4688 32.4648 38.5938 31.3711 36.8438 31.3711ZM37.5 35.0898H35.9688V34.2148C35.9688 33.5586 36.1875 33.1211 36.8438 33.1211C37.5 33.1211 37.7188 33.5586 37.7188 34.2148V35.0898H37.5Z" fill="#019529"/>
</svg>
