<svg width="18" height="16" viewBox="0 0 18 16" xmlns="http://www.w3.org/2000/svg">
<path d="M0.527343 1.05469H3.76172C4.05244 1.05469 4.28906 1.29131 4.28906 1.58203C4.28906 1.62749 4.22232 1.01033 5.29403 10.6563C4.7064 10.8875 4.28906 11.4601 4.28906 12.1289C4.28906 13.0012 4.99878 13.7105 5.87109 13.7105H6.48907C6.43057 13.8756 6.39843 14.0534 6.39843 14.2383C6.39843 15.1106 7.10815 15.8203 7.98046 15.8203C8.85278 15.8203 9.56249 15.1106 9.56249 14.2383C9.56249 14.0534 9.53036 13.8756 9.47186 13.7105H12.8173C12.7587 13.8756 12.7266 14.0534 12.7266 14.2383C12.7266 15.1106 13.4363 15.8203 14.3086 15.8203C15.1809 15.8203 15.8906 15.1106 15.8906 14.2383C15.8906 13.366 15.1809 12.6563 14.3086 12.6563H5.87109C5.58037 12.6563 5.34375 12.4196 5.34375 12.1289C5.34375 11.8382 5.58037 11.6016 5.87109 11.6016H15.5245C16.3011 11.6016 16.9574 11.0457 17.085 10.2796L17.9928 4.83275C18.0183 4.6799 17.9753 4.52348 17.875 4.40524C17.7748 4.287 17.6277 4.21875 17.4726 4.21875C6.08205 4.21875 9.26418 4.21875 5.63997 4.21875L5.34347 1.5499C5.32617 0.692413 4.62332 0 3.76172 0H0.527343C0.236069 0 0 0.236069 0 0.527344C0 0.818619 0.236069 1.05469 0.527343 1.05469ZM8.50781 14.2383C8.50781 14.529 8.27119 14.7656 7.98046 14.7656C7.68974 14.7656 7.45312 14.529 7.45312 14.2383C7.45312 13.9476 7.68974 13.7105 7.98046 13.7105C8.27119 13.7105 8.50781 13.9476 8.50781 14.2383ZM14.3086 14.7656C14.0179 14.7656 13.7812 14.529 13.7812 14.2383C13.7812 13.9466 14.0179 13.7109 14.3086 13.7109C14.5993 13.7109 14.8359 13.9476 14.8359 14.2383C14.8359 14.529 14.5993 14.7656 14.3086 14.7656ZM16.8501 5.27344L16.0447 10.1062C16.0021 10.3616 15.7834 10.5469 15.5245 10.5469H6.34309L5.75711 5.27344H16.8501Z" />
<path d="M7.98096 9.49219C8.27223 9.49219 8.5083 9.25612 8.5083 8.96484V6.85547C8.5083 6.56419 8.27223 6.32812 7.98096 6.32812C7.68968 6.32812 7.45361 6.56419 7.45361 6.85547V8.96484C7.45361 9.25612 7.68968 9.49219 7.98096 9.49219Z" />
<path d="M11.1445 9.49219C11.4358 9.49219 11.6719 9.25612 11.6719 8.96484V6.85547C11.6719 6.56419 11.4358 6.32812 11.1445 6.32812C10.8533 6.32812 10.6172 6.56419 10.6172 6.85547V8.96484C10.6172 9.25612 10.8533 9.49219 11.1445 9.49219Z" />
<path d="M14.3086 9.49219C14.5999 9.49219 14.8359 9.25612 14.8359 8.96484V6.85547C14.8359 6.56419 14.5999 6.32812 14.3086 6.32812C14.0173 6.32812 13.7812 6.56419 13.7812 6.85547V8.96484C13.7812 9.25612 14.0173 9.49219 14.3086 9.49219Z" />
</svg>
