<svg width="35" height="35" viewBox="0 0 35 35" xmlns="http://www.w3.org/2000/svg">
<path d="M17.4997 0C7.8501 0 0 7.85064 0 17.4997C0 27.1494 7.8501 35 17.4997 35C27.1488 35 34.9995 27.1494 34.9995 17.4997C34.9995 7.85064 27.1488 0 17.4997 0ZM17.4997 33.3791C10.1221 33.3791 1.62033 24.8773 1.62033 17.4997C1.62033 10.1221 10.1221 1.62033 17.4997 1.62033C24.8768 1.62033 33.3786 10.1221 33.3786 17.4997C33.3786 24.8773 24.8768 33.3791 17.4997 33.3791Z"/>
<path d="M23.5 11L14.9003 19.6935L12.1941 16.9874L9.78027 19.4007C11.2232 20.8436 14.9003 24.6673 14.9003 24.6673C14.9003 24.6673 23.1834 16.2375 25.9423 13.4787L23.5 11Z"/>
</svg>
