<svg width="84" height="54" viewBox="0 0 84 54" xmlns="http://www.w3.org/2000/svg">
<path d="M78.1198 22.526L75.9445 13.8249C76.5392 13.6986 76.9855 13.171 76.9855 12.5388V11.1359C76.9855 8.08994 74.5073 5.61193 71.4615 5.61193H61.5534V2.71819C61.5534 1.21932 60.3341 0 58.8352 0H8.3298C6.83092 0 5.6116 1.21932 5.6116 2.71819V26.568C5.6116 27.2943 6.20043 27.8833 6.9269 27.8833C7.6532 27.8833 8.24219 27.2945 8.24219 26.568V2.71819C8.24219 2.66979 8.2814 2.63058 8.3298 2.63058H58.8351C58.8835 2.63058 58.9227 2.66979 58.9227 2.71819V26.5683C58.9227 27.2946 59.5115 27.8836 60.238 27.8836C60.9643 27.8836 61.5533 27.2948 61.5533 26.5683V25.0773H77.0685C77.0698 25.0773 77.0708 25.0777 77.072 25.0777C77.0733 25.0777 77.0744 25.0775 77.0756 25.0775C78.9848 25.0788 80.6059 26.3319 81.1627 28.0587H77.0729C76.3466 28.0587 75.7577 28.6475 75.7577 29.374V32.1798C75.7577 34.4522 77.6063 36.3009 79.8787 36.3009H81.3694V42.0878H77.9303C76.8006 38.8258 73.6996 36.4761 70.0583 36.4761C66.4169 36.4761 63.3158 38.8258 62.1862 42.0878H61.5529V32.1796C61.5529 31.4533 60.9641 30.8643 60.2376 30.8643C59.5113 30.8643 58.9223 31.4531 58.9223 32.1796V42.0875H31.6341C30.5044 38.8255 27.4034 36.4758 23.762 36.4758C20.1207 36.4758 17.0195 38.8255 15.89 42.0875H8.3298C8.2814 42.0875 8.24219 42.0483 8.24219 41.9999V39.1063H13.9416C14.6679 39.1063 15.2569 38.5175 15.2569 37.791C15.2569 37.0646 14.668 36.4758 13.9416 36.4758H1.31529C0.588986 36.4758 0 37.0646 0 37.791C0 38.5175 0.588822 39.1063 1.31529 39.1063H5.61177V41.9999C5.61177 43.4988 6.83108 44.7181 8.32996 44.7181H15.4345C15.4342 44.7473 15.4322 44.7764 15.4322 44.8057C15.4322 49.3988 19.1691 53.1355 23.762 53.1355C28.355 53.1355 32.0918 49.3988 32.0918 44.8057C32.0918 44.7762 32.0899 44.7473 32.0895 44.7181H61.7308C61.7304 44.7473 61.7285 44.7764 61.7285 44.8057C61.7285 49.3988 65.4653 53.1355 70.0583 53.1355C74.6512 53.1355 78.3881 49.3988 78.3881 44.8057C78.3881 44.7762 78.3861 44.7473 78.3858 44.7181H82.6847C83.411 44.7181 84 44.1293 84 43.4028V29.3736C84.0002 25.91 81.4446 23.0321 78.1198 22.526ZM61.5534 8.24235H71.4615C73.057 8.24235 74.3551 9.54042 74.3551 11.1359V11.2235H61.5534V8.24235ZM61.5534 22.4469V13.854H73.2404L75.3887 22.4469H61.5534ZM23.762 50.5054C20.6194 50.5054 18.0627 47.9488 18.0627 44.806C18.0627 41.6633 20.6194 39.1067 23.762 39.1067C26.9047 39.1067 29.4614 41.6633 29.4614 44.806C29.4614 47.9488 26.9047 50.5054 23.762 50.5054ZM70.0586 50.5054C66.916 50.5054 64.3592 47.9488 64.3592 44.806C64.3592 41.6633 66.916 39.1067 70.0586 39.1067C73.2012 39.1067 75.758 41.6633 75.758 44.806C75.758 47.9488 73.2012 50.5054 70.0586 50.5054ZM81.3698 33.6703H79.8791C79.0571 33.6703 78.3884 33.0016 78.3884 32.1796V30.6889H81.3696V33.6703H81.3698Z"/>
<path d="M23.7631 42.0898C22.2642 42.0898 21.0449 43.3092 21.0449 44.808C21.0449 46.3069 22.2642 47.5262 23.7631 47.5262C25.262 47.5262 26.4813 46.3069 26.4813 44.808C26.4813 43.3092 25.262 42.0898 23.7631 42.0898Z"/>
<path d="M70.059 42.0898C68.5601 42.0898 67.3408 43.3092 67.3408 44.808C67.3408 46.3069 68.5601 47.5262 70.059 47.5262C71.5579 47.5262 72.7772 46.3069 72.7772 44.808C72.7772 43.3092 71.5579 42.0898 70.059 42.0898Z"/>
<path d="M54.6252 36.4785H34.9842C34.2579 36.4785 33.6689 37.0673 33.6689 37.7938C33.6689 38.5203 34.2578 39.1091 34.9842 39.1091H54.6252C55.3515 39.1091 55.9405 38.5203 55.9405 37.7938C55.9405 37.0673 55.3517 36.4785 54.6252 36.4785Z"/>
<path d="M20.9561 30.8633H4.12096C3.39465 30.8633 2.80566 31.4521 2.80566 32.1786C2.80566 32.905 3.39449 33.4939 4.12096 33.4939H20.9561C21.6824 33.4939 22.2714 32.905 22.2714 32.1786C22.2714 31.4521 21.6824 30.8633 20.9561 30.8633Z"/>
<path d="M45.7358 13.0101C45.2223 12.4966 44.3893 12.4966 43.8758 13.0103L32.1794 24.7065L26.0948 18.6219C25.5812 18.1082 24.7484 18.1082 24.2349 18.6219C23.7212 19.1356 23.7212 19.9682 24.2349 20.4819L31.2495 27.4965C31.5063 27.7535 31.843 27.8818 32.1794 27.8818C32.5159 27.8818 32.8528 27.7535 33.1094 27.4965L45.7356 14.8703C46.2493 14.3564 46.2493 13.5238 45.7358 13.0101Z"/>
</svg>
