<svg width="15" height="16" viewBox="0 0 15 16"  xmlns="http://www.w3.org/2000/svg">
<path d="M10.0742 6.21094C10.0742 6.53125 10.0273 6.82031 9.93359 7.07812C9.84375 7.33594 9.71484 7.55859 9.54688 7.74609C9.38281 7.93359 9.18359 8.08398 8.94922 8.19727C8.71875 8.31055 8.46289 8.38281 8.18164 8.41406L8.13477 9.55664C8.13086 9.62695 8.07422 9.67969 7.96484 9.71484C7.85938 9.75 7.70508 9.76758 7.50195 9.76758C7.37305 9.76758 7.26367 9.76562 7.17383 9.76172C7.08789 9.75391 7.01953 9.74219 6.96875 9.72656C6.91797 9.71094 6.88086 9.68945 6.85742 9.66211C6.83398 9.63477 6.82031 9.59961 6.81641 9.55664L6.76367 8.17383C6.75977 8.04883 6.76562 7.94727 6.78125 7.86914C6.79688 7.79102 6.82422 7.72852 6.86328 7.68164C6.90625 7.63477 6.95898 7.60352 7.02148 7.58789C7.08398 7.56836 7.1582 7.55859 7.24414 7.55859H7.32617C7.5332 7.55859 7.71094 7.52539 7.85938 7.45898C8.01172 7.39258 8.13672 7.30469 8.23438 7.19531C8.33203 7.08594 8.40234 6.95703 8.44531 6.80859C8.49219 6.66016 8.51562 6.50195 8.51562 6.33398C8.51562 6.14648 8.48828 5.97461 8.43359 5.81836C8.38281 5.66211 8.30273 5.52734 8.19336 5.41406C8.08789 5.30078 7.95312 5.21484 7.78906 5.15625C7.62891 5.09375 7.43945 5.0625 7.2207 5.0625C7.02148 5.0625 6.8457 5.08203 6.69336 5.12109C6.54102 5.16016 6.41016 5.20312 6.30078 5.25C6.19141 5.29688 6.09961 5.33984 6.02539 5.37891C5.95508 5.41797 5.90039 5.4375 5.86133 5.4375C5.83398 5.4375 5.80859 5.42969 5.78516 5.41406C5.76172 5.39453 5.74219 5.36133 5.72656 5.31445C5.71094 5.26758 5.69727 5.20117 5.68555 5.11523C5.67773 5.0293 5.67383 4.91992 5.67383 4.78711C5.67383 4.65039 5.67969 4.55078 5.69141 4.48828C5.70312 4.42578 5.72852 4.375 5.76758 4.33594C5.80664 4.29688 5.88086 4.25195 5.99023 4.20117C6.09961 4.14648 6.23047 4.09766 6.38281 4.05469C6.53516 4.00781 6.70508 3.96875 6.89258 3.9375C7.08008 3.90625 7.27539 3.89062 7.47852 3.89062C7.93945 3.89062 8.33398 3.95508 8.66211 4.08398C8.99023 4.20898 9.25781 4.37891 9.46484 4.59375C9.67578 4.80859 9.83008 5.05469 9.92773 5.33203C10.0254 5.60938 10.0742 5.90234 10.0742 6.21094ZM8.33984 11.2324C8.33984 11.3926 8.32617 11.5273 8.29883 11.6367C8.27539 11.7461 8.23047 11.834 8.16406 11.9004C8.10156 11.9668 8.01562 12.0137 7.90625 12.041C7.80078 12.0723 7.66992 12.0879 7.51367 12.0879C7.34961 12.0879 7.21484 12.0723 7.10938 12.041C7.00391 12.0137 6.91797 11.9668 6.85156 11.9004C6.78906 11.834 6.74414 11.7461 6.7168 11.6367C6.69336 11.5273 6.68164 11.3926 6.68164 11.2324C6.68164 11.0684 6.69336 10.9316 6.7168 10.8223C6.74414 10.709 6.78906 10.6191 6.85156 10.5527C6.91797 10.4824 7.00391 10.4336 7.10938 10.4062C7.21484 10.375 7.34961 10.3594 7.51367 10.3594C7.66992 10.3594 7.80078 10.375 7.90625 10.4062C8.01562 10.4336 8.10156 10.4824 8.16406 10.5527C8.23047 10.6191 8.27539 10.709 8.29883 10.8223C8.32617 10.9316 8.33984 11.0684 8.33984 11.2324Z"/>
</svg>
