<svg width="14" height="15" viewBox="0 0 14 15" xmlns="http://www.w3.org/2000/svg">
<path d="M10.2172 0H3.78276C1.69695 0 0 1.72389 0 3.84281V10.3794C0 12.4983 1.69695 14.2222 3.78276 14.2222H10.2172C12.303 14.2222 14 12.4983 14 10.3794V3.84281C14 1.72389 12.303 0 10.2172 0ZM12.6412 10.3794C12.6412 11.8648 11.6794 12.8441 10.2172 12.8441H3.78276C2.32061 12.8441 1.58646 11.8648 1.58646 10.3794C1.58646 10.3794 1.58646 5.32817 1.58646 3.84281C1.58646 2.35744 2.32058 1.37809 3.78276 1.37809C5.24494 1.37809 8.75509 1.37809 10.2172 1.37809C11.6794 1.37809 12.6412 2.35742 12.6412 3.84281C12.6412 5.32819 12.6412 10.3794 12.6412 10.3794Z" />
<path d="M10.2759 6.64051C10.1744 5.9564 9.86236 5.33636 9.37339 4.84734C8.88441 4.35834 8.26444 4.04621 7.58043 3.94479C7.269 3.89861 6.95324 3.89861 6.64183 3.94479C5.79648 4.07018 5.05058 4.51726 4.54148 5.20371C4.03239 5.89016 3.82103 6.73382 3.9464 7.57921C4.07177 8.42462 4.5188 9.1706 5.20518 9.67978C5.7624 10.0931 6.42311 10.3102 7.10436 10.3102C7.26228 10.3102 7.42134 10.2985 7.5804 10.2749C8.42576 10.1495 9.17166 9.70244 9.68075 9.01599C10.1899 8.32956 10.4012 7.48593 10.2759 6.64051ZM7.41134 9.13457C6.87059 9.21489 6.33096 9.07958 5.89186 8.75387C5.45277 8.42816 5.16681 7.95093 5.08664 7.41012C5.00644 6.86932 5.14162 6.32963 5.46729 5.89049C5.79299 5.45135 6.27015 5.16536 6.81093 5.08515C6.91052 5.07038 7.01081 5.06299 7.1111 5.06299C7.2114 5.06299 7.31171 5.07038 7.41131 5.08518C8.30947 5.21837 9.00243 5.91137 9.13563 6.80965C9.30116 7.92604 8.52767 8.96903 7.41134 9.13457Z" />
<path d="M11.1578 3.05203C11.0267 2.91963 10.8451 2.84375 10.6598 2.84375C10.4745 2.84375 10.293 2.9196 10.1618 3.05203C10.0307 3.18447 9.95557 3.36745 9.95557 3.55486C9.95557 3.74227 10.0307 3.92525 10.1618 4.05769C10.293 4.19009 10.4745 4.26597 10.6598 4.26597C10.8451 4.26597 11.0267 4.19013 11.1578 4.05769C11.289 3.92525 11.3641 3.74196 11.3641 3.55486C11.3641 3.36772 11.289 3.18444 11.1578 3.05203Z" />
</svg>
