<svg width="13" height="18" viewBox="0 0 13 18" xmlns="http://www.w3.org/2000/svg">
<path d="M11.4881 2.10583H9.49299C9.38455 1.78479 9.08073 1.55292 8.72354 1.55292H7.87979C7.62372 1.20855 7.21806 1 6.78834 1C6.35862 1 5.95295 1.20855 5.69688 1.55292H4.85313C4.49595 1.55292 4.19212 1.78479 4.08368 2.10583H2.08855C1.48833 2.10583 1 2.59416 1 3.19438V15.9114C1 16.5117 1.48833 17 2.08855 17H11.4881C12.0883 17 12.5767 16.5117 12.5767 15.9114V3.19438C12.5767 2.59416 12.0883 2.10583 11.4881 2.10583ZM4.08368 3.73002C4.19212 4.05106 4.49595 4.28294 4.85313 4.28294H8.72354C9.08073 4.28294 9.38455 4.05106 9.49299 3.73002H10.9525V15.3758H2.62419V3.73002H4.08368ZM4.85313 2.07127H5.83587C5.92814 2.07127 6.01346 2.0222 6.05987 1.94244C6.21445 1.67691 6.48676 1.51836 6.78834 1.51836C7.08992 1.51836 7.36223 1.67691 7.51677 1.94244C7.56321 2.0222 7.64854 2.07127 7.74077 2.07127H8.72354C8.88551 2.07127 9.01728 2.20304 9.01728 2.36501V3.47019C9.01728 3.47043 9.01724 3.47063 9.01724 3.47084C9.01724 3.47095 9.01724 3.47105 9.01724 3.47119C9.01707 3.63298 8.88537 3.76458 8.72351 3.76458H4.8531C4.69137 3.76458 4.55978 3.63316 4.5594 3.4715C4.5594 3.47126 4.55943 3.47105 4.55943 3.47084C4.55943 3.47039 4.55936 3.46994 4.55936 3.46949V2.36501C4.5594 2.20304 4.69116 2.07127 4.85313 2.07127ZM12.0583 15.9114C12.0583 16.2258 11.8025 16.4816 11.4881 16.4816H2.08855C1.77415 16.4816 1.51836 16.2258 1.51836 15.9114V3.19438C1.51836 2.87998 1.77415 2.62419 2.08855 2.62419H4.04104V3.21166H2.36501C2.22184 3.21166 2.10583 3.32767 2.10583 3.47084V15.635C2.10583 15.7782 2.22184 15.8942 2.36501 15.8942H11.2117C11.3548 15.8942 11.4708 15.7782 11.4708 15.635V3.47084C11.4708 3.32767 11.3548 3.21166 11.2117 3.21166H9.53564V2.62419H11.4881C11.8025 2.62419 12.0583 2.87998 12.0583 3.19438V15.9114Z"/>
<path d="M6.78652 3.17674C6.92969 3.17674 7.0457 3.06073 7.0457 2.91756V2.36465C7.0457 2.22148 6.92969 2.10547 6.78652 2.10547C6.64335 2.10547 6.52734 2.22148 6.52734 2.36465V2.91756C6.52734 3.06073 6.64335 3.17674 6.78652 3.17674Z"/>
<path d="M7.06582 6.77031H8.72457C8.86774 6.77031 8.98375 6.6543 8.98375 6.51113C8.98375 6.36796 8.86774 6.25195 8.72457 6.25195H7.06582C6.92265 6.25195 6.80664 6.36796 6.80664 6.51113C6.80664 6.6543 6.92265 6.77031 7.06582 6.77031Z"/>
<path d="M7.06582 7.87773H9.8304C9.97357 7.87773 10.0896 7.76172 10.0896 7.61855C10.0896 7.47538 9.97357 7.35938 9.8304 7.35938H7.06582C6.92265 7.35938 6.80664 7.47538 6.80664 7.61855C6.80664 7.76172 6.92265 7.87773 7.06582 7.87773Z"/>
<path d="M4.39353 7.80129C4.44416 7.85188 4.51051 7.87718 4.57683 7.87718C4.64314 7.87718 4.70949 7.85188 4.76012 7.80129L6.14241 6.419C6.24362 6.31775 6.24362 6.15367 6.14241 6.05245C6.04115 5.95127 5.87708 5.95127 5.77586 6.05245L4.57683 7.25148L3.93074 6.60537C3.82949 6.50418 3.66541 6.50418 3.56419 6.60537C3.46298 6.70662 3.46298 6.8707 3.56419 6.97191L4.39353 7.80129Z" />
<path d="M7.06582 9.53594H8.72457C8.86774 9.53594 8.98375 9.41993 8.98375 9.27676C8.98375 9.13359 8.86774 9.01758 8.72457 9.01758H7.06582C6.92265 9.01758 6.80664 9.13359 6.80664 9.27676C6.80664 9.41993 6.92265 9.53594 7.06582 9.53594Z" />
<path d="M7.06582 10.6414H9.8304C9.97357 10.6414 10.0896 10.5254 10.0896 10.3822C10.0896 10.2391 9.97357 10.123 9.8304 10.123H7.06582C6.92265 10.123 6.80664 10.2391 6.80664 10.3822C6.80664 10.5254 6.92265 10.6414 7.06582 10.6414Z" />
<path d="M4.39353 10.565C4.44416 10.6156 4.51051 10.6408 4.57683 10.6408C4.64314 10.6408 4.70949 10.6156 4.76012 10.565L6.14241 9.18267C6.24362 9.08142 6.24362 8.91734 6.14241 8.81612C6.04115 8.71494 5.87708 8.71494 5.77586 8.81612L4.57683 10.0152L3.93074 9.36904C3.82949 9.26785 3.66541 9.26785 3.56419 9.36904C3.46298 9.47029 3.46298 9.63437 3.56419 9.73559L4.39353 10.565Z" />
<path d="M7.06582 12.2996H8.72457C8.86774 12.2996 8.98375 12.1836 8.98375 12.0404C8.98375 11.8973 8.86774 11.7812 8.72457 11.7812H7.06582C6.92265 11.7812 6.80664 11.8973 6.80664 12.0404C6.80664 12.1836 6.92265 12.2996 7.06582 12.2996Z" />
<path d="M7.06582 13.4051H9.8304C9.97357 13.4051 10.0896 13.2891 10.0896 13.1459C10.0896 13.0027 9.97357 12.8867 9.8304 12.8867H7.06582C6.92265 12.8867 6.80664 13.0027 6.80664 13.1459C6.80664 13.2891 6.92265 13.4051 7.06582 13.4051Z" />
<path d="M4.39353 13.3306C4.44416 13.3812 4.51051 13.4065 4.57683 13.4065C4.64314 13.4065 4.70949 13.3812 4.76012 13.3306L6.14241 11.9483C6.24362 11.847 6.24362 11.683 6.14241 11.5817C6.04115 11.4806 5.87708 11.4806 5.77586 11.5817L4.57683 12.7808L3.93074 12.1347C3.82949 12.0335 3.66541 12.0335 3.56419 12.1347C3.46298 12.2359 3.46298 12.4 3.56419 12.5012L4.39353 13.3306Z" />
</svg>
