<svg width="16" height="13" viewBox="0 0 16 13" xmlns="http://www.w3.org/2000/svg">
<path d="M15.4355 8.99246L13.986 7.36746C13.817 7.17798 13.5528 7.10356 13.311 7.17863L11.1855 7.82863C10.842 7.93328 10.6492 8.29663 10.7542 8.64016C10.8589 8.98368 11.2219 9.17543 11.5657 9.07143L12.4582 8.79876C11.594 10.5551 9.79417 11.7 7.80062 11.7C5.35499 11.7 3.27142 10.0377 2.73419 7.65703C2.65522 7.30733 2.30747 7.08861 1.95712 7.16596C1.60709 7.24493 1.38707 7.59301 1.46637 7.94336C2.13814 10.9207 4.74302 13 7.80062 13C10.4055 13 12.7478 11.4378 13.7647 9.07176L14.4657 9.85761C14.5938 10.0016 14.7719 10.075 14.9509 10.075C15.105 10.075 15.2594 10.0208 15.3832 9.90993C15.651 9.67106 15.6747 9.26026 15.4355 8.99246Z"/>
<path d="M2.09962 5.85002C2.163 5.85002 2.22702 5.84092 2.28975 5.82175L4.41525 5.17175C4.75845 5.06677 4.9515 4.70342 4.84685 4.3599C4.74187 4.0167 4.37885 3.823 4.035 3.9283L3.14287 4.2013C4.00672 2.445 5.80657 1.30002 7.80012 1.30002C10.2461 1.30002 12.3296 2.96272 12.8665 5.34302C12.9348 5.64495 13.2029 5.85002 13.5 5.85002C13.5474 5.85002 13.5955 5.84482 13.6436 5.8341C13.9936 5.75512 14.2137 5.40705 14.1347 5.0567C13.4629 2.07937 10.858 2.28882e-05 7.80012 2.28882e-05C5.19557 2.28882e-05 2.85297 1.5623 1.83605 3.92797L1.13503 3.14212C0.895825 2.874 0.485026 2.85125 0.217226 3.0898C-0.0505742 3.32867 -0.0739743 3.7398 0.164901 4.0076L1.6144 5.6326C1.73985 5.77332 1.9173 5.85002 2.09962 5.85002Z"/>
</svg>
