<svg width="22" height="16" viewBox="0 0 22 16" xmlns="http://www.w3.org/2000/svg">
<path d="M19.125 1H2.87501C1.84107 1 1 1.78499 1 2.75001V13.25C1 14.215 1.84107 15 2.87501 15H19.125C20.1589 15 21 14.215 21 13.25V2.75001C21 1.78499 20.1589 1 19.125 1ZM19.125 2.16666C19.2099 2.16666 19.2907 2.1831 19.3645 2.21182L11 8.97811L2.63542 2.21182C2.70927 2.18314 2.79005 2.16666 2.87497 2.16666H19.125ZM19.125 13.8333H2.87501C2.53017 13.8333 2.24999 13.5718 2.24999 13.25V3.44441L10.5904 10.1909C10.7083 10.286 10.8541 10.3333 11 10.3333C11.1459 10.3333 11.2917 10.2861 11.4096 10.1909L19.75 3.44441V13.25C19.75 13.5718 19.4698 13.8333 19.125 13.8333Z" stroke-width="0.1"/>
</svg>
