<svg width="71" height="72" viewBox="0 0 71 72" xmlns="http://www.w3.org/2000/svg">
<path d="M70.2974 33.6089H66.9389V18.1595C66.9389 14.4556 63.9257 11.4424 60.2219 11.4424H55.6731L51.0182 3.07298C50.3087 1.79391 48.9586 1 47.4943 1C46.8118 1 46.1347 1.17601 45.5369 1.50774L27.6721 11.4422H7.71705C4.0132 11.4422 1 14.4554 1 18.1593V64.2829C1 67.9868 4.0132 71 7.71705 71H60.2219C63.9257 71 66.9389 67.9868 66.9389 64.2829V50.7372H70.2974V33.6089ZM60.2219 14.1291C62.2906 14.1291 63.9807 15.7008 64.2077 17.7119H59.1591L57.1681 14.1291H60.2219ZM46.844 3.85601C47.474 3.50275 48.3218 3.74982 48.6697 4.37734L56.0853 17.7107H21.9277L46.844 3.85601ZM64.252 64.2829C64.252 66.505 62.4437 68.3133 60.2216 68.3133H7.71705C5.49504 68.3133 3.6867 66.505 3.6867 64.2829V18.1595C3.6867 15.9375 5.49504 14.1291 7.71705 14.1291H22.8412L16.3982 17.7122H8.55674C7.81384 17.7122 7.21328 18.314 7.21328 19.0556C7.21328 19.7973 7.81384 20.3991 8.55674 20.3991H11.566H60.6531H64.252V33.6101H54.4277C49.8653 33.6101 46.1523 37.3234 46.1523 41.8855V42.4633C46.1523 47.0256 49.8655 50.7387 54.4277 50.7387H64.252V64.2829ZM67.6105 48.0505H66.9389H54.4277C51.3459 48.0505 48.839 45.5438 48.839 42.4618V41.8841C48.839 38.8023 51.3457 36.2954 54.4277 36.2954H66.9389H67.6105V48.0505ZM58.5425 42.2833C58.5425 43.9223 57.2151 45.2495 55.5763 45.2495C53.9373 45.2495 52.6101 43.9221 52.6101 42.2833C52.6101 40.6445 53.9375 39.3171 55.5763 39.3171C57.2153 39.3169 58.5425 40.6455 58.5425 42.2833Z" stroke-width="0.3"/>
</svg>
