<svg width="18" height="18" viewBox="0 0 18 18" xmlns="http://www.w3.org/2000/svg">
<path d="M17.8785 9.40937C17.7177 7.79432 16.9949 6.27172 15.8434 5.12202C14.8593 4.13957 13.6547 3.50822 12.3873 3.2275V2.34001C12.905 2.21144 13.2898 1.74363 13.2898 1.18759C13.2898 0.532741 12.7561 0 12.1002 0H9.58114C8.9252 0 8.39158 0.532741 8.39158 1.18759C8.39158 1.7436 8.77637 2.2114 9.294 2.34001V3.22998C8.03045 3.51189 6.82991 4.14236 5.84859 5.12206C5.63384 5.33645 5.43582 5.56136 5.25455 5.79511C5.24577 5.79444 5.23698 5.79378 5.22803 5.79378H2.73482C2.54163 5.79378 2.38495 5.95016 2.38495 6.14307C2.38495 6.33599 2.54163 6.49236 2.73482 6.49236H4.77848C4.52196 6.92112 4.31511 7.37139 4.15767 7.8349H0.349869C0.156672 7.8349 0 7.99128 0 8.1842C0 8.37711 0.156672 8.53349 0.349869 8.53349H3.95996C3.85913 8.97538 3.80126 9.42509 3.78632 9.87606H2.23916C2.04597 9.87606 1.88929 10.0324 1.88929 10.2254C1.88929 10.4183 2.04597 10.5746 2.23916 10.5746H3.79748C3.82701 11.0268 3.89982 11.4765 4.01594 11.9172H1.74935C1.55615 11.9172 1.39948 12.0736 1.39948 12.2665C1.39948 12.4594 1.55615 12.6158 1.74935 12.6158H4.23923C4.58245 13.5223 5.11883 14.3718 5.84859 15.1004C7.00127 16.2512 8.52796 16.9729 10.1474 17.1326C10.3785 17.1554 10.6098 17.1667 10.8408 17.1667C12.206 17.1667 13.5539 16.7722 14.6977 16.0286C14.8596 15.9234 14.9054 15.707 14.7999 15.5453C14.6945 15.3837 14.4777 15.3379 14.3158 15.4432C11.8123 17.0708 8.45935 16.7189 6.34338 14.6064C3.86063 12.1278 3.86063 8.09474 6.34338 5.61606C8.82609 3.13745 12.8658 3.13745 15.3486 5.61606C17.4617 7.72579 17.8162 11.0703 16.1913 13.5685C16.086 13.7303 16.1321 13.9466 16.2941 14.0517C16.4562 14.1567 16.6729 14.1107 16.7781 13.949C17.6463 12.6141 18.0371 11.002 17.8785 9.40937ZM9.09132 1.18763C9.09132 0.917975 9.31104 0.698619 9.58114 0.698619H12.1002C12.3703 0.698619 12.59 0.917975 12.59 1.18763C12.59 1.45728 12.3703 1.67664 12.1002 1.67664H12.0374H9.64387H9.58114C9.31104 1.67664 9.09132 1.45725 9.09132 1.18763ZM9.99374 3.10989V2.37522H11.6876V3.10863C11.1251 3.04185 10.5561 3.04227 9.99374 3.10989Z"/>
<path d="M10.9131 5C8.15609 5 5.91309 7.24297 5.91309 10C5.91309 12.757 8.15609 15 10.9131 15C13.6701 15 15.9131 12.757 15.9131 10C15.9131 7.24297 13.6701 5 10.9131 5ZM10.9131 14.3554C8.5115 14.3554 6.55771 12.4016 6.55771 10C6.55771 7.59845 8.5115 5.64462 10.9131 5.64462C13.3147 5.64462 15.2685 7.59845 15.2685 10C15.2685 12.4016 13.3147 14.3554 10.9131 14.3554Z"/>
<path d="M12.8613 7.55905L11.1972 9.21827C11.058 9.14966 10.9015 9.1109 10.736 9.1109C10.5705 9.1109 10.414 9.14966 10.2749 9.21827L9.53011 8.47568C9.39888 8.34486 9.18621 8.34486 9.05494 8.47568C8.92374 8.60649 8.92374 8.81861 9.05494 8.94943L9.7997 9.69202C9.73086 9.83078 9.69202 9.98686 9.69202 10.1518C9.69202 10.7258 10.1603 11.1928 10.736 11.1928C11.3117 11.1928 11.78 10.7258 11.78 10.1518C11.78 9.98686 11.7412 9.83078 11.6724 9.69202L13.2876 8.08148L13.3364 8.03281C13.4676 7.90199 13.4676 7.68987 13.3364 7.55905C13.2052 7.42823 12.9925 7.42823 12.8613 7.55905ZM10.736 10.5229C10.5309 10.5229 10.364 10.3564 10.364 10.1519C10.364 9.94733 10.5309 9.7809 10.736 9.7809C10.9412 9.7809 11.1081 9.94733 11.1081 10.1519C11.1081 10.3564 10.9412 10.5229 10.736 10.5229Z"/>
<path d="M8.20861 9.70312H7.97233C7.8315 9.70312 7.71729 9.8702 7.71729 10.0763C7.71729 10.2824 7.8315 10.4495 7.97233 10.4495H8.20861C8.34945 10.4495 8.46366 10.2824 8.46366 10.0763C8.46366 9.8702 8.34945 9.70312 8.20861 9.70312Z"/>
<path d="M10.8224 8.46541C11.0285 8.46541 11.1956 8.23704 11.1956 7.95531V7.48276C11.1956 7.20103 11.0285 6.97266 10.8224 6.97266C10.6163 6.97266 10.4492 7.20103 10.4492 7.48276V7.95531C10.4492 8.23704 10.6163 8.46541 10.8224 8.46541Z"/>
<path d="M10.8224 12.4336C10.6163 12.4336 10.4492 12.5478 10.4492 12.6886V12.9249C10.4492 13.0658 10.6163 13.18 10.8224 13.18C11.0285 13.18 11.1956 13.0658 11.1956 12.9249V12.6886C11.1956 12.5478 11.0285 12.4336 10.8224 12.4336Z" />
<path d="M0.373188 11.9414C0.27504 11.9414 0.178757 11.9813 0.109344 12.0508C0.0399312 12.1202 0 12.2164 0 12.3146C0 12.4131 0.0398938 12.509 0.109344 12.5784C0.178795 12.6479 0.27504 12.6878 0.373188 12.6878C0.471337 12.6878 0.56762 12.6479 0.636995 12.5784C0.706408 12.509 0.746377 12.4127 0.746377 12.3146C0.746377 12.2164 0.706446 12.1202 0.636995 12.0508C0.56762 11.9813 0.471337 11.9414 0.373188 11.9414Z"/>
</svg>
