<svg width="19" height="18" viewBox="0 0 19 18" xmlns="http://www.w3.org/2000/svg">
<path d="M17.9812 6.75454C17.9221 6.57352 17.7669 6.44421 17.5785 6.41466L11.963 5.61666L9.43599 0.536847C9.35102 0.366904 9.17738 0.259766 8.98897 0.259766C8.80055 0.259766 8.62691 0.366904 8.54194 0.540541L6.04821 5.63513L0.432709 6.47007C0.244294 6.49963 0.089129 6.62893 0.0300184 6.80996C-0.0290921 6.99098 0.0226296 7.19048 0.159323 7.31979L4.23426 11.2691L3.29218 16.8625C3.25893 17.0509 3.33652 17.2393 3.49168 17.3501C3.57665 17.4129 3.6801 17.4462 3.78354 17.4462C3.86482 17.4462 3.9424 17.4277 4.01629 17.3871L9.0296 14.7308L14.0577 17.3575C14.1316 17.3944 14.2092 17.4129 14.2867 17.4129C14.5601 17.4129 14.7855 17.1876 14.7855 16.9142C14.7855 16.8735 14.7818 16.8366 14.7707 16.7996L13.7991 11.2396L17.8482 7.26806C17.9922 7.13507 18.0403 6.93557 17.9812 6.75454ZM12.9198 10.7113C12.8016 10.8258 12.7499 10.992 12.7794 11.1546L13.6255 16.0053L9.25866 13.7259C9.11458 13.6483 8.94094 13.652 8.79316 13.7259L4.44115 16.0312L5.25761 11.1731C5.28347 11.0105 5.23175 10.8479 5.11353 10.7334L1.58167 7.30501L6.4546 6.5809C6.61715 6.55504 6.75754 6.45529 6.82773 6.30752L8.99266 1.88531L11.1871 6.29643C11.261 6.44421 11.4014 6.54396 11.564 6.56982L16.4406 7.26437L12.9198 10.7113Z"/>
</svg>
