<svg width="28" height="28" viewBox="0 0 28 28" xmlns="http://www.w3.org/2000/svg">
<path d="M13.9525 15C13.9669 15 13.9813 15 13.9986 15C14.0043 15 14.0101 15 14.0158 15C14.0245 15 14.036 15 14.0446 15C14.8876 14.9846 15.5695 14.6679 16.073 14.0623C17.1807 12.7279 16.9966 10.4404 16.9765 10.2221C16.9045 8.5834 16.1795 7.79939 15.581 7.43351C15.1351 7.15988 14.6143 7.0123 14.0331 7H14.0129C14.0101 7 14.0043 7 14.0014 7H13.9842C13.6648 7 13.0376 7.05534 12.4362 7.42121C11.832 7.78709 11.0955 8.5711 11.0235 10.2221C11.0034 10.4404 10.8193 12.7279 11.927 14.0623C12.4276 14.6679 13.1095 14.9846 13.9525 15ZM11.7918 10.299C11.7918 10.2898 11.7946 10.2806 11.7946 10.2744C11.8896 8.06995 13.3541 7.83321 13.9813 7.83321H13.9928C13.9986 7.83321 14.0072 7.83321 14.0158 7.83321C14.7927 7.85165 16.1133 8.18985 16.2025 10.2744C16.2025 10.2836 16.2025 10.2929 16.2054 10.299C16.2082 10.3205 16.4096 12.4112 15.4947 13.5119C15.1322 13.9485 14.6488 14.1637 14.0129 14.1699C14.0072 14.1699 14.0043 14.1699 13.9986 14.1699C13.9928 14.1699 13.9899 14.1699 13.9842 14.1699C13.3512 14.1637 12.8649 13.9485 12.5053 13.5119C11.5932 12.4174 11.7889 10.3174 11.7918 10.299Z" />
<path d="M19.9992 18.3361C19.9992 18.3334 19.9992 18.3307 19.9992 18.328C19.9992 18.3066 19.9963 18.2851 19.9963 18.261C19.9787 17.7298 19.9408 16.4877 18.6728 16.0907C18.6641 16.088 18.6524 16.0853 18.6436 16.0826C17.3261 15.7741 16.2305 15.0766 16.2188 15.0686C16.0406 14.9532 15.7952 14.9935 15.6696 15.1571C15.544 15.3207 15.5878 15.5461 15.766 15.6614C15.8157 15.6936 16.9784 16.4367 18.4333 16.7801C19.114 17.0028 19.1899 17.6708 19.2104 18.2824C19.2104 18.3066 19.2104 18.328 19.2133 18.3495C19.2162 18.5909 19.1987 18.9638 19.152 19.1785C18.6787 19.4253 16.8236 20.2784 14.0014 20.2784C11.191 20.2784 9.32421 19.4226 8.84802 19.1758C8.80127 18.9612 8.78082 18.5883 8.78666 18.3468C8.78666 18.3254 8.78959 18.3039 8.78959 18.2797C8.81004 17.6681 8.88599 17.0001 9.56669 16.7774C11.0216 16.4341 12.1843 15.6883 12.234 15.6588C12.4122 15.5434 12.456 15.3181 12.3304 15.1544C12.2048 14.9908 11.9594 14.9505 11.7811 15.0659C11.7695 15.0739 10.6798 15.7714 9.35635 16.0799C9.34466 16.0826 9.3359 16.0853 9.32713 16.088C8.05922 16.4877 8.02125 17.7298 8.00372 18.2583C8.00372 18.2824 8.00372 18.3039 8.0008 18.3254C8.0008 18.328 8.0008 18.3307 8.0008 18.3334C7.99787 18.4729 7.99495 19.1892 8.14979 19.5487C8.179 19.6184 8.23159 19.6774 8.3017 19.7177C8.38935 19.7713 10.4899 21 14.0044 21C17.5189 21 19.6194 19.7686 19.707 19.7177C19.7742 19.6774 19.8297 19.6184 19.859 19.5487C20.005 19.1919 20.0021 18.4756 19.9992 18.3361Z" />
</svg>
