<svg width="26" height="14" viewBox="0 0 26 14" xmlns="http://www.w3.org/2000/svg">
<path fill-rule="evenodd" clip-rule="evenodd" d="M21.5614 8.90184C22.3924 9.70303 23.2695 10.4568 24.0149 11.3388C24.3441 11.7308 24.6558 12.1352 24.8943 12.5901C25.2322 13.2367 24.9261 13.9482 24.339 13.9868L20.6893 13.9852C19.7479 14.0623 18.997 13.6881 18.3656 13.0526C17.8603 12.5443 17.3923 12.0034 16.9064 11.478C16.7072 11.2632 16.4987 11.0612 16.2497 10.9015C15.7514 10.5821 15.3189 10.6799 15.0342 11.193C14.7442 11.7149 14.6785 12.2928 14.65 12.8745C14.6109 13.7232 14.3511 13.9463 13.4878 13.9851C11.6429 14.071 9.89192 13.7954 8.26534 12.8764C6.83129 12.0661 5.71925 10.9223 4.75134 9.62744C2.86679 7.10599 1.4236 4.33534 0.126524 1.48705C-0.165438 0.845332 0.0480804 0.500859 0.765105 0.488667C1.95576 0.465827 3.14624 0.467453 4.33829 0.487042C4.82221 0.494032 5.14257 0.768114 5.32942 1.21955C5.97359 2.78366 6.76182 4.27177 7.75121 5.65113C8.0147 6.01836 8.28336 6.38559 8.66595 6.64407C9.0892 6.93026 9.41146 6.83541 9.61057 6.36982C9.73692 6.07461 9.79224 5.75663 9.82071 5.44045C9.91505 4.35265 9.92747 3.26672 9.76203 2.18275C9.66045 1.50624 9.27457 1.06829 8.59097 0.94027C8.24213 0.875 8.29407 0.746819 8.46297 0.550198C8.75633 0.21109 9.03224 0 9.58226 0H13.707C14.3564 0.126556 14.5006 0.414619 14.5895 1.05984L14.593 5.58423C14.586 5.83401 14.7194 6.57522 15.175 6.74055C15.5396 6.85825 15.78 6.57018 15.9988 6.34186C16.9863 5.30682 17.6912 4.08361 18.3209 2.81699C18.6003 2.26004 18.8406 1.68164 19.0735 1.10373C19.246 0.674884 19.5167 0.463876 20.0059 0.473223L23.9758 0.476719C24.0935 0.476719 24.2126 0.478426 24.3266 0.49769C24.9955 0.610265 25.1788 0.894427 24.9722 1.53948C24.6467 2.55152 24.0133 3.3949 23.394 4.24219C22.7319 5.14677 22.0239 6.02039 21.3674 6.93034C20.7642 7.76129 20.8121 8.18014 21.5614 8.90184Z"/>
</svg>
