<svg width="9" height="12" viewBox="0 0 9 12" fill="none" xmlns="http://www.w3.org/2000/svg">
<mask id="path-1-inside-1_4226_21470" fill="white">
<path d="M0 1C0 0.447715 0.447715 0 1 0H8C8.55229 0 9 0.447715 9 1V10.7356C9 11.1889 8.44524 11.4083 8.13523 11.0776L5.22954 7.97817C4.83446 7.55676 4.16554 7.55676 3.77046 7.97817L0.864769 11.0776C0.55476 11.4083 0 11.1889 0 10.7356V1Z"/>
</mask>
<path d="M5.22954 7.97817L4.5 8.66211L5.22954 7.97817ZM0.864769 11.0776L1.59431 11.7615L0.864769 11.0776ZM8.13523 11.0776L7.40569 11.7615L8.13523 11.0776ZM1 1H8V-1H1V1ZM8 1V10.7356H10V1H8ZM1 10.7356V1H-1V10.7356H1ZM8.86477 10.3936L5.95907 7.29423L4.5 8.66211L7.40569 11.7615L8.86477 10.3936ZM3.04093 7.29423L0.135231 10.3936L1.59431 11.7615L4.5 8.66211L3.04093 7.29423ZM5.95907 7.29423C5.16893 6.45141 3.83107 6.45141 3.04093 7.29423L4.5 8.66211L5.95907 7.29423ZM-1 10.7356C-1 12.0954 0.664279 12.7536 1.59431 11.7615L0.135231 10.3936C0.44524 10.063 1 10.2823 1 10.7356H-1ZM8 10.7356C8 10.2823 8.55476 10.063 8.86477 10.3936L7.40569 11.7615C8.33572 12.7536 10 12.0954 10 10.7356H8ZM8 1H10C10 -0.104569 9.10457 -1 8 -1V1ZM1 -1C-0.104569 -1 -1 -0.10457 -1 1H1V1V-1Z" fill="#9299B1" mask="url(#path-1-inside-1_4226_21470)"/>
</svg>
