<svg width="10" height="12" viewBox="0 0 10 12" fill="none" xmlns="http://www.w3.org/2000/svg">
<mask id="path-1-inside-1_4007_23648" fill="white">
<path d="M0.470703 1.672C0.470703 1.11971 0.918418 0.671997 1.4707 0.671997H8.34213C8.89442 0.671997 9.34213 1.11971 9.34213 1.672V11.2362C9.34213 11.6894 8.78737 11.9088 8.47736 11.5781L5.63595 8.54731C5.24088 8.1259 4.57195 8.1259 4.17688 8.54731L1.33547 11.5781C1.02546 11.9088 0.470703 11.6894 0.470703 11.2362V1.672Z"/>
</mask>
<path d="M5.63595 8.54731L4.90642 9.23125L5.63595 8.54731ZM4.17688 8.54731L3.44734 7.86337L4.17688 8.54731ZM1.33547 11.5781L0.605935 10.8942L1.33547 11.5781ZM8.47736 11.5781L9.2069 10.8942L8.47736 11.5781ZM1.4707 1.672H8.34213V-0.328003H1.4707V1.672ZM8.34213 1.672V11.2362H10.3421V1.672H8.34213ZM1.4707 11.2362V1.672H-0.529297V11.2362H1.4707ZM9.2069 10.8942L6.36549 7.86337L4.90642 9.23125L7.74783 12.2621L9.2069 10.8942ZM3.44734 7.86337L0.605935 10.8942L2.06501 12.2621L4.90642 9.23125L3.44734 7.86337ZM6.36549 7.86337C5.57534 7.02055 4.23749 7.02055 3.44734 7.86337L4.90642 9.23125L6.36549 7.86337ZM-0.529297 11.2362C-0.529297 12.596 1.13498 13.2541 2.06501 12.2621L0.605935 10.8942C0.915943 10.5635 1.4707 10.7829 1.4707 11.2362H-0.529297ZM8.34213 11.2362C8.34213 10.7829 8.89689 10.5635 9.2069 10.8942L7.74783 12.2621C8.67785 13.2541 10.3421 12.596 10.3421 11.2362H8.34213ZM8.34213 1.672H10.3421C10.3421 0.567427 9.4467 -0.328003 8.34213 -0.328003V1.672ZM1.4707 -0.328003C0.366135 -0.328003 -0.529297 0.567425 -0.529297 1.672H1.4707V1.672V-0.328003Z" fill="#019529" mask="url(#path-1-inside-1_4007_23648)"/>
</svg>
