<svg width="66" height="60" viewBox="0 0 66 60" fill="none" xmlns="http://www.w3.org/2000/svg">
<g filter="url(#filter0_f_3046_292789)">
<path d="M52.0211 4.78836L9.14212 11.3603C6.30683 11.7949 4.35353 14.4551 4.78812 17.2906L8.63072 42.3618C9.06528 45.1971 11.7255 47.1504 14.561 46.7158L41.4057 42.6014L53.9487 51.8104C54.4241 52.1595 55.0085 52.2939 55.5691 52.2079C55.8466 52.1654 56.1184 52.0688 56.368 51.9176C57.1216 51.4607 57.5263 50.5949 57.3927 49.7235L55.9592 40.3706L57.4397 40.1437C60.275 39.7091 62.2283 37.0489 61.7938 34.2134L57.9511 9.14222C57.5168 6.3069 54.8566 4.35378 52.0211 4.78836ZM57.4856 34.8739C57.5561 35.3335 57.2394 35.7649 56.7798 35.8353L53.1456 36.3923C52.012 36.5661 51.2192 37.5842 51.3046 38.7093C51.3063 38.7572 52.2875 45.1832 52.2875 45.1832L43.2671 38.5602C43.2577 38.5533 43.2479 38.5469 43.2385 38.54C43.2032 38.5147 43.1702 38.4931 43.1391 38.474C42.709 38.1996 42.1825 38.0724 41.6389 38.1557L13.9006 42.4071C13.4408 42.4776 13.0096 42.1609 12.9392 41.7013L9.09659 16.63C9.02612 16.1702 9.34283 15.7391 9.80245 15.6686L52.6816 9.09665C53.1412 9.02621 53.5726 9.3429 53.643 9.80252L57.4856 34.8739Z" fill="#07BB38"/>
<path d="M32.9628 23.6015C31.7737 23.7837 30.9565 24.8967 31.1388 26.0858C31.321 27.2749 32.434 28.092 33.6231 27.9098C34.8123 27.7275 35.6293 26.6146 35.4471 25.4255C35.2648 24.2364 34.1518 23.4192 32.9628 23.6015Z" fill="#07BB38"/>
<path d="M22.953 25.1347C21.7641 25.3169 20.9467 26.4299 21.129 27.619C21.3112 28.8081 22.4244 29.6252 23.6133 29.443C24.8026 29.2607 25.6196 28.1478 25.4373 26.9587C25.2551 25.7696 24.1423 24.9524 22.953 25.1347Z" fill="#07BB38"/>
<path d="M43.1698 22.037C41.9809 22.2192 41.1635 23.3323 41.3458 24.5213C41.528 25.7104 42.6412 26.5276 43.8301 26.3453C45.0194 26.1631 45.8364 25.0501 45.6541 23.861C45.4719 22.6719 44.3591 21.8547 43.1698 22.037Z" fill="#07BB38"/>
</g>
<defs>
<filter id="filter0_f_3046_292789" x="0.728516" y="0.728516" width="65.125" height="55.5039" filterUnits="userSpaceOnUse" color-interpolation-filters="sRGB">
<feFlood flood-opacity="0" result="BackgroundImageFix"/>
<feBlend mode="normal" in="SourceGraphic" in2="BackgroundImageFix" result="shape"/>
<feGaussianBlur stdDeviation="2" result="effect1_foregroundBlur_3046_292789"/>
</filter>
</defs>
</svg>
