<svg width="45" height="53" viewBox="0 0 45 53" fill="none" xmlns="http://www.w3.org/2000/svg">
<path d="M44.6545 14.2446L44.6529 14.2037C44.63 13.6995 44.6148 13.1659 44.6056 12.5723C44.5627 9.67761 42.2616 7.28316 39.3665 7.12134C33.3303 6.78449 28.6608 4.81622 24.671 0.927356L24.6369 0.894912C23.3356 -0.298304 21.3725 -0.298304 20.0708 0.894912L20.0367 0.927356C16.0469 4.81622 11.3774 6.78449 5.34121 7.12174C2.44649 7.28316 0.144978 9.67761 0.10212 12.5727C0.0933077 13.1623 0.0776865 13.6958 0.0548556 14.2037L0.0524524 14.2987C-0.0649065 20.4538 -0.210704 28.1142 2.35197 35.0672C3.76108 38.8908 5.89516 42.2145 8.69456 44.9466C11.8829 48.058 16.0589 50.5281 21.1066 52.2881C21.2708 52.3454 21.4414 52.3919 21.6153 52.4267C21.8604 52.4756 22.1071 52.5 22.3539 52.5C22.6006 52.5 22.8477 52.4756 23.0925 52.4267C23.2663 52.3919 23.4381 52.345 23.6031 52.2873C28.6448 50.5241 32.8164 48.0528 36.0019 44.9418C38.8001 42.2089 40.9342 38.8844 42.3445 35.06C44.9168 28.0861 44.7714 20.4113 44.6545 14.2446ZM41.0386 33.9941C38.3358 41.3225 31.2339 47.9397 22.5866 50.9638C22.5557 50.9742 22.5229 50.9834 22.4888 50.9902C22.3995 51.0079 22.3086 51.0079 22.2181 50.9898C22.1844 50.983 22.1516 50.9742 22.1211 50.9638C13.4646 47.9453 6.3591 41.3309 3.65825 34.0021C1.29625 27.5931 1.43003 20.5611 1.54819 14.3575L1.54899 14.3231C1.57302 13.79 1.58904 13.2316 1.59786 12.618C1.61708 11.3326 4.2253 8.68477 5.51305 8.61307C8.92887 8.42242 11.9297 7.76232 14.6871 6.59514C17.4408 5.42956 19.8865 3.78654 22.1632 1.57234C22.279 1.47461 22.4292 1.47421 22.5445 1.57234C24.8216 3.78654 27.2673 5.42956 30.0206 6.59514C32.778 7.76232 35.7788 8.42242 39.1951 8.61307C40.4828 8.68477 43.091 11.3326 43.1099 12.6184C43.1191 13.2352 43.1351 13.7936 43.1591 14.3231C43.2769 20.5339 43.4075 27.5714 41.0386 33.9941Z" fill="white"/>
<path d="M28.5203 19.541L19.4365 28.7239L16.5781 25.8654L14.0283 28.4146C15.5525 29.9387 19.4365 33.9776 19.4365 33.9776C19.4365 33.9776 28.186 25.0734 31.1001 22.1593L28.5203 19.541Z" fill="white"/>
</svg>
