<svg width="48" height="53" viewBox="0 0 48 53" fill="none" xmlns="http://www.w3.org/2000/svg">
<path d="M46.739 38.8643C45.8769 35.8779 43.7557 33.4157 40.9298 32.1212V12.4571C40.9299 12.1424 40.7637 11.8511 40.4929 11.691L20.9178 0.123874C20.6384 -0.0412912 20.2913 -0.0412912 20.012 0.123874L0.436881 11.691C0.418195 11.7017 0.404849 11.7177 0.387053 11.7301C0.369258 11.7426 0.352352 11.7568 0.334556 11.7711C0.257257 11.8319 0.190857 11.9053 0.137916 11.9882C0.137916 11.9944 0.127238 11.998 0.123679 12.0042V12.0104C0.0735178 12.1008 0.0394839 12.1993 0.0231343 12.3014C0.0231343 12.3281 0.0151262 12.353 0.0124569 12.3797C0.00978755 12.4064 5.57994e-08 12.4304 5.57994e-08 12.4571V35.5913C-0.000111166 35.9059 0.166055 36.1972 0.436881 36.3574L20.012 47.9245C20.0354 47.9358 20.0595 47.946 20.0841 47.9547C20.1083 47.9669 20.1333 47.9775 20.1588 47.9868C20.3547 48.0686 20.5751 48.0686 20.771 47.9868C20.7968 47.9775 20.822 47.9669 20.8466 47.9547C20.8697 47.9441 20.8946 47.9378 20.9178 47.9245L26.2306 44.7845C27.8655 50.4477 33.7816 53.7134 39.4449 52.0785C45.1081 50.4438 48.3739 44.5275 46.739 38.8643ZM20.4649 1.923L25.0917 4.65729L18.2315 8.71111C17.8082 8.96125 17.6678 9.50724 17.9179 9.93055C18.168 10.3539 18.714 10.4943 19.1373 10.2442L26.8419 5.69477L31.4688 8.42905L13.643 18.9596L9.01611 16.2253L16.4698 11.8209C16.8931 11.5707 17.0336 11.0248 16.7834 10.6014C16.5333 10.1781 15.9873 10.0377 15.564 10.2878L7.26681 15.1914L2.63908 12.4571L20.4649 1.923ZM12.7532 20.5016V26.4426L8.15659 23.7261V17.7851L12.7532 20.5016ZM26.1551 39.0692C25.9184 39.9668 25.8002 40.8915 25.8035 41.8197C25.8038 42.1921 25.8233 42.5642 25.8623 42.9346L21.3547 45.5995V42.7095C21.3547 42.2181 20.9563 41.8197 20.4649 41.8197C19.9735 41.8197 19.5751 42.2181 19.5751 42.7095V45.5995L1.77955 35.0841V14.0169L6.37703 16.7333V24.2333C6.3767 24.5483 6.54275 24.84 6.81391 25.0003L13.1901 28.7685C13.3273 28.8492 13.4837 28.8919 13.643 28.8922C14.1343 28.8922 14.5327 28.4938 14.5327 28.0024V21.5524L19.5751 24.5322V39.1504C19.5751 39.6418 19.9735 40.0402 20.4649 40.0402C20.9563 40.0402 21.3547 39.6418 21.3547 39.1504V24.5322L37.481 15.0027C37.9041 14.7526 38.0443 14.2068 37.7942 13.7837C37.544 13.3606 36.9983 13.2204 36.5752 13.4705L20.4649 22.9911L15.3931 19.9935L33.2189 9.45942L39.1502 12.9642V31.4983C33.4711 30.0005 27.6529 33.39 26.1551 39.0692ZM36.4809 50.7175C31.5667 50.7175 27.5831 46.7339 27.5831 41.8197C27.5831 36.9056 31.5667 32.922 36.4809 32.922C41.395 32.922 45.3786 36.9056 45.3786 41.8197C45.3733 46.7316 41.3928 50.7121 36.4809 50.7175Z" fill="white"/>
</svg>
