<svg width="53" height="53" viewBox="0 0 53 53" fill="none" xmlns="http://www.w3.org/2000/svg">
<mask id="path-1-inside-1" fill="white">
<path d="M52.1947 16.2979L34.7265 5.05896C34.3778 4.83458 33.9133 4.93552 33.6891 5.28407C33.4648 5.63271 33.5655 6.09716 33.9142 6.32154L51.127 17.3962H47.1143L27.5201 4.78938C26.8531 4.36023 25.991 4.36033 25.3238 4.78938L5.72962 17.3962H1.71698L26.421 1.50046L29.9198 3.75149C30.2685 3.97576 30.7329 3.87503 30.9573 3.52638C31.1816 3.17774 31.0808 2.71329 30.7322 2.48891L27.2334 0.237876C26.7405 -0.0792918 26.1036 -0.0792918 25.6106 0.237876L0.649265 16.2979C0.117729 16.64 -0.119656 17.2772 0.0585889 17.8837C0.236834 18.4901 0.781272 18.8976 1.41334 18.8976H5.19953V21.4851V23.7512C5.19953 24.3487 5.62331 24.8491 6.18602 24.9674V26.2886C6.18602 26.974 6.74356 27.5315 7.42889 27.5315H7.5321V36.7288C7.5321 37.1434 7.86815 37.4795 8.28275 37.4795C8.69735 37.4795 9.0334 37.1434 9.0334 36.7288V26.7809C9.0334 26.3663 8.69735 26.0302 8.28275 26.0302H7.68743V24.994H13.0041V26.03H12.4088C11.9942 26.03 11.6582 26.366 11.6582 26.7806V43.3662C11.6582 43.7808 11.9942 44.1169 12.4088 44.1169H13.0041V45.2434H7.68743V44.1169H8.28275C8.69735 44.1169 9.0334 43.7808 9.0334 43.3662V41.4475C9.0334 41.0329 8.69735 40.6969 8.28275 40.6969C7.86815 40.6969 7.5321 41.0329 7.5321 41.4475V42.6156H7.42889C6.74356 42.6156 6.18602 43.173 6.18602 43.8583V45.1796C5.62321 45.2979 5.19953 45.7983 5.19953 46.3958V47.9111H2.5404C1.71058 47.9111 1.03548 48.5862 1.03548 49.4161V50.9951C1.03548 51.8249 1.71058 52.5 2.5404 52.5H50.3036C51.1334 52.5 51.8085 51.8249 51.8085 50.9951V49.4161C51.8085 48.5862 51.1334 47.9111 50.3036 47.9111H47.6444V46.3958C47.6444 45.7983 47.2206 45.2979 46.6579 45.1796V43.8583C46.6579 43.173 46.1004 42.6156 45.4151 42.6156H45.3119V27.5313H45.4151C46.1004 27.5313 46.6579 26.9738 46.6579 26.2884V24.9672C47.2207 24.8488 47.6444 24.3485 47.6444 23.751V21.4849V18.8974H51.4306C52.0627 18.8974 52.6071 18.4899 52.7854 17.8834C52.9636 17.2772 52.7262 16.6399 52.1947 16.2979ZM26.1361 6.05196C26.3098 5.94018 26.5342 5.94028 26.7079 6.05196L44.3397 17.3963H8.50434L26.1361 6.05196ZM6.70084 18.8975H46.143V20.7343H38.1027H30.8175H22.0264H14.7413H6.70084V18.8975ZM30.5818 45.1798V43.8586C30.5818 43.1732 30.0242 42.6158 29.3389 42.6158H29.2357V27.5315H29.3389C30.0242 27.5315 30.5818 26.974 30.5818 26.2886V24.9674C31.1446 24.8491 31.5683 24.3487 31.5683 23.7512V22.2358H37.352V23.7512C37.352 24.3487 37.7758 24.8491 38.3385 24.9674V26.2886C38.3385 26.974 38.8961 27.5315 39.5814 27.5315H39.6846V42.6158H39.5814C38.8961 42.6158 38.3385 43.1732 38.3385 43.8586V45.1798C37.7758 45.2981 37.352 45.7985 37.352 46.396V47.9113H31.5683V46.396C31.5683 45.7985 31.1445 45.2981 30.5818 45.1798ZM14.5054 45.1798V43.8586C14.5054 43.1732 13.9479 42.6158 13.2626 42.6158H13.1594V27.5315H13.2626C13.9479 27.5315 14.5054 26.974 14.5054 26.2886V24.9674C15.0682 24.8491 15.4919 24.3487 15.4919 23.7512V22.2358H21.2758V23.7512C21.2758 24.3487 21.6996 24.8491 22.2623 24.9674V26.2886C22.2623 26.974 22.8198 27.5315 23.5051 27.5315H23.6083V42.6158H23.5051C22.8198 42.6158 22.2623 43.1732 22.2623 43.8586V45.1798C21.6996 45.2981 21.2758 45.7985 21.2758 46.396V47.9113H15.4919V46.396C15.4919 45.7985 15.0682 45.2981 14.5054 45.1798ZM28.4851 44.1169H29.0804V45.2434H23.7637V44.1169H24.359C24.7736 44.1169 25.1096 43.7808 25.1096 43.3662V26.7807C25.1096 26.3661 24.7736 26.03 24.359 26.03H23.7637V24.994H29.0804V26.03H28.4851C28.0705 26.03 27.7344 26.366 27.7344 26.7806V43.3662C27.7344 43.7808 28.0705 44.1169 28.4851 44.1169ZM23.0129 23.4927H23.0096H22.7771V22.2358H30.0669V23.4927H29.831C29.8305 23.4927 29.8299 23.4928 29.8294 23.4928C29.8289 23.4928 29.8282 23.4927 29.8277 23.4927H23.0129ZM22.7771 46.7078C22.8504 46.7316 22.9284 46.745 23.0096 46.745H29.8276C29.9113 46.745 29.9916 46.7306 30.0669 46.7053V47.9112H22.7771V46.7078ZM6.93678 23.4927H6.70094V22.2358H13.9907V23.4927H13.9906H13.7548H6.93678ZM6.70084 46.7066C6.77504 46.7311 6.85421 46.745 6.93667 46.745H13.7548C13.8373 46.745 13.9164 46.7311 13.9906 46.7066V47.9112H6.70084V46.7066ZM50.3072 49.4162L50.3051 50.9987C50.3051 50.9987 50.3047 50.9988 50.3036 50.9988L2.53679 50.9953L2.5404 49.4127L50.3072 49.4162ZM45.9051 46.7449C45.9884 46.7449 46.0682 46.7307 46.1431 46.7057V47.9112H38.8533V46.7073C38.9269 46.7314 39.0054 46.7449 39.0871 46.7449H45.9051ZM40.4351 26.0301H39.8398V24.994H45.1565V26.03H44.5612C44.1466 26.03 43.8106 26.366 43.8106 26.7806V43.3662C43.8106 43.7808 44.1466 44.117 44.5612 44.117H45.1565V45.2435H39.8398V44.117H40.4351C40.8497 44.117 41.1858 43.7809 41.1858 43.3663V26.7807C41.1858 26.3661 40.8497 26.0301 40.4351 26.0301ZM46.1432 23.4927H45.9073C45.907 23.4927 45.9066 23.4928 45.9062 23.4928C45.9059 23.4928 45.9055 23.4927 45.9052 23.4927H39.0893H39.0872H38.8534V22.2358H46.1432V23.4927Z"/>
</mask>
<path d="M52.1947 16.2979L34.7265 5.05896C34.3778 4.83458 33.9133 4.93552 33.6891 5.28407C33.4648 5.63271 33.5655 6.09716 33.9142 6.32154L51.127 17.3962H47.1143L27.5201 4.78938C26.8531 4.36023 25.991 4.36033 25.3238 4.78938L5.72962 17.3962H1.71698L26.421 1.50046L29.9198 3.75149C30.2685 3.97576 30.7329 3.87503 30.9573 3.52638C31.1816 3.17774 31.0808 2.71329 30.7322 2.48891L27.2334 0.237876C26.7405 -0.0792918 26.1036 -0.0792918 25.6106 0.237876L0.649265 16.2979C0.117729 16.64 -0.119656 17.2772 0.0585889 17.8837C0.236834 18.4901 0.781272 18.8976 1.41334 18.8976H5.19953V21.4851V23.7512C5.19953 24.3487 5.62331 24.8491 6.18602 24.9674V26.2886C6.18602 26.974 6.74356 27.5315 7.42889 27.5315H7.5321V36.7288C7.5321 37.1434 7.86815 37.4795 8.28275 37.4795C8.69735 37.4795 9.0334 37.1434 9.0334 36.7288V26.7809C9.0334 26.3663 8.69735 26.0302 8.28275 26.0302H7.68743V24.994H13.0041V26.03H12.4088C11.9942 26.03 11.6582 26.366 11.6582 26.7806V43.3662C11.6582 43.7808 11.9942 44.1169 12.4088 44.1169H13.0041V45.2434H7.68743V44.1169H8.28275C8.69735 44.1169 9.0334 43.7808 9.0334 43.3662V41.4475C9.0334 41.0329 8.69735 40.6969 8.28275 40.6969C7.86815 40.6969 7.5321 41.0329 7.5321 41.4475V42.6156H7.42889C6.74356 42.6156 6.18602 43.173 6.18602 43.8583V45.1796C5.62321 45.2979 5.19953 45.7983 5.19953 46.3958V47.9111H2.5404C1.71058 47.9111 1.03548 48.5862 1.03548 49.4161V50.9951C1.03548 51.8249 1.71058 52.5 2.5404 52.5H50.3036C51.1334 52.5 51.8085 51.8249 51.8085 50.9951V49.4161C51.8085 48.5862 51.1334 47.9111 50.3036 47.9111H47.6444V46.3958C47.6444 45.7983 47.2206 45.2979 46.6579 45.1796V43.8583C46.6579 43.173 46.1004 42.6156 45.4151 42.6156H45.3119V27.5313H45.4151C46.1004 27.5313 46.6579 26.9738 46.6579 26.2884V24.9672C47.2207 24.8488 47.6444 24.3485 47.6444 23.751V21.4849V18.8974H51.4306C52.0627 18.8974 52.6071 18.4899 52.7854 17.8834C52.9636 17.2772 52.7262 16.6399 52.1947 16.2979ZM26.1361 6.05196C26.3098 5.94018 26.5342 5.94028 26.7079 6.05196L44.3397 17.3963H8.50434L26.1361 6.05196ZM6.70084 18.8975H46.143V20.7343H38.1027H30.8175H22.0264H14.7413H6.70084V18.8975ZM30.5818 45.1798V43.8586C30.5818 43.1732 30.0242 42.6158 29.3389 42.6158H29.2357V27.5315H29.3389C30.0242 27.5315 30.5818 26.974 30.5818 26.2886V24.9674C31.1446 24.8491 31.5683 24.3487 31.5683 23.7512V22.2358H37.352V23.7512C37.352 24.3487 37.7758 24.8491 38.3385 24.9674V26.2886C38.3385 26.974 38.8961 27.5315 39.5814 27.5315H39.6846V42.6158H39.5814C38.8961 42.6158 38.3385 43.1732 38.3385 43.8586V45.1798C37.7758 45.2981 37.352 45.7985 37.352 46.396V47.9113H31.5683V46.396C31.5683 45.7985 31.1445 45.2981 30.5818 45.1798ZM14.5054 45.1798V43.8586C14.5054 43.1732 13.9479 42.6158 13.2626 42.6158H13.1594V27.5315H13.2626C13.9479 27.5315 14.5054 26.974 14.5054 26.2886V24.9674C15.0682 24.8491 15.4919 24.3487 15.4919 23.7512V22.2358H21.2758V23.7512C21.2758 24.3487 21.6996 24.8491 22.2623 24.9674V26.2886C22.2623 26.974 22.8198 27.5315 23.5051 27.5315H23.6083V42.6158H23.5051C22.8198 42.6158 22.2623 43.1732 22.2623 43.8586V45.1798C21.6996 45.2981 21.2758 45.7985 21.2758 46.396V47.9113H15.4919V46.396C15.4919 45.7985 15.0682 45.2981 14.5054 45.1798ZM28.4851 44.1169H29.0804V45.2434H23.7637V44.1169H24.359C24.7736 44.1169 25.1096 43.7808 25.1096 43.3662V26.7807C25.1096 26.3661 24.7736 26.03 24.359 26.03H23.7637V24.994H29.0804V26.03H28.4851C28.0705 26.03 27.7344 26.366 27.7344 26.7806V43.3662C27.7344 43.7808 28.0705 44.1169 28.4851 44.1169ZM23.0129 23.4927H23.0096H22.7771V22.2358H30.0669V23.4927H29.831C29.8305 23.4927 29.8299 23.4928 29.8294 23.4928C29.8289 23.4928 29.8282 23.4927 29.8277 23.4927H23.0129ZM22.7771 46.7078C22.8504 46.7316 22.9284 46.745 23.0096 46.745H29.8276C29.9113 46.745 29.9916 46.7306 30.0669 46.7053V47.9112H22.7771V46.7078ZM6.93678 23.4927H6.70094V22.2358H13.9907V23.4927H13.9906H13.7548H6.93678ZM6.70084 46.7066C6.77504 46.7311 6.85421 46.745 6.93667 46.745H13.7548C13.8373 46.745 13.9164 46.7311 13.9906 46.7066V47.9112H6.70084V46.7066ZM50.3072 49.4162L50.3051 50.9987C50.3051 50.9987 50.3047 50.9988 50.3036 50.9988L2.53679 50.9953L2.5404 49.4127L50.3072 49.4162ZM45.9051 46.7449C45.9884 46.7449 46.0682 46.7307 46.1431 46.7057V47.9112H38.8533V46.7073C38.9269 46.7314 39.0054 46.7449 39.0871 46.7449H45.9051ZM40.4351 26.0301H39.8398V24.994H45.1565V26.03H44.5612C44.1466 26.03 43.8106 26.366 43.8106 26.7806V43.3662C43.8106 43.7808 44.1466 44.117 44.5612 44.117H45.1565V45.2435H39.8398V44.117H40.4351C40.8497 44.117 41.1858 43.7809 41.1858 43.3663V26.7807C41.1858 26.3661 40.8497 26.0301 40.4351 26.0301ZM46.1432 23.4927H45.9073C45.907 23.4927 45.9066 23.4928 45.9062 23.4928C45.9059 23.4928 45.9055 23.4927 45.9052 23.4927H39.0893H39.0872H38.8534V22.2358H46.1432V23.4927Z" fill="white" stroke="white" stroke-width="0.6" mask="url(#path-1-inside-1)"/>
</svg>
