<svg width="53" height="53" viewBox="0 0 53 53" fill="none" xmlns="http://www.w3.org/2000/svg">
<path d="M26.2496 0C11.7752 0 0 11.776 0 26.2496C0 40.724 11.7752 52.5 26.2496 52.5C40.7232 52.5 52.4992 40.724 52.4992 26.2496C52.4992 11.776 40.7232 0 26.2496 0ZM26.2496 50.0687C15.1832 50.0687 2.43049 37.316 2.43049 26.2496C2.43049 15.1832 15.1832 2.43049 26.2496 2.43049C37.3152 2.43049 50.0679 15.1832 50.0679 26.2496C50.0679 37.316 37.3152 50.0687 26.2496 50.0687Z" fill="white"/>
<path d="M35.2495 16.5L22.3499 29.5403L18.2907 25.4811L14.6699 29.1011C16.8343 31.2654 22.3499 37.0009 22.3499 37.0009C22.3499 37.0009 34.7747 24.3563 38.9129 20.2181L35.2495 16.5Z" fill="white"/>
</svg>
