<svg width="54" height="54" viewBox="0 0 54 54" fill="none" xmlns="http://www.w3.org/2000/svg">
<path d="M52.9731 25.4567H50.4542V13.8696C50.4542 11.0917 48.1943 8.83182 45.4164 8.83182H42.0048L38.5136 2.55473C37.9815 1.59543 36.9689 1 35.8707 1C35.3588 1 34.851 1.132 34.4027 1.38081L21.0041 8.83167H6.03779C3.2599 8.83167 1 11.0916 1 13.8695V48.4622C1 51.2401 3.2599 53.5 6.03779 53.5H45.4164C48.1943 53.5 50.4542 51.2401 50.4542 48.4622V38.3029H52.9731V25.4567ZM45.4164 10.8468C46.968 10.8468 48.2355 12.0256 48.4058 13.534H44.6194L43.1261 10.8468H45.4164ZM35.383 3.14201C35.8555 2.87706 36.4914 3.06237 36.7523 3.533L42.314 13.533H16.6958L35.383 3.14201ZM48.439 48.4622C48.439 50.1287 47.0827 51.485 45.4162 51.485H6.03779C4.37128 51.485 3.01502 50.1287 3.01502 48.4622V13.8696C3.01502 12.2031 4.37128 10.8468 6.03779 10.8468H17.3809L12.5486 13.5341H6.66755C6.11038 13.5341 5.65996 13.9855 5.65996 14.5417C5.65996 15.0979 6.11038 15.5493 6.66755 15.5493H8.92448H45.7398H48.439V25.4576H41.0708C37.649 25.4576 34.8642 28.2425 34.8642 31.6641V32.0975C34.8642 35.5192 37.6492 38.304 41.0708 38.304H48.439V48.4622ZM50.9579 36.2879H50.4542H41.0708C38.7594 36.2879 36.8792 34.4079 36.8792 32.0964V31.663C36.8792 29.3517 38.7593 27.4715 41.0708 27.4715H50.4542H50.9579V36.2879ZM44.1569 31.9625C44.1569 33.1917 43.1613 34.1871 41.9322 34.1871C40.703 34.1871 39.7076 33.1916 39.7076 31.9625C39.7076 30.7334 40.7031 29.7379 41.9322 29.7379C43.1615 29.7377 44.1569 30.7342 44.1569 31.9625Z" fill="white" stroke="white" stroke-width="0.3"/>
</svg>
