<svg width="64" height="71" viewBox="0 0 64 71" fill="none" xmlns="http://www.w3.org/2000/svg">
<path d="M6.01777 39.7109C5.35324 39.7109 4.81445 40.2497 4.81445 40.9143V45.7275C4.81445 46.392 5.35324 46.9308 6.01777 46.9308C6.6823 46.9308 7.22109 46.392 7.22109 45.7275V40.9143C7.22109 40.2497 6.6823 39.7109 6.01777 39.7109Z" fill="#019529"/>
<path d="M10.8293 42.1211C10.1648 42.1211 9.62598 42.6599 9.62598 43.3244V48.1377C9.62598 48.8022 10.1648 49.341 10.8293 49.341C11.4938 49.341 12.0326 48.8022 12.0326 48.1377V43.3244C12.0326 42.6599 11.4938 42.1211 10.8293 42.1211Z" fill="#019529"/>
<path d="M54.7213 48.5688C54.1604 48.2123 53.4167 48.3782 53.0602 48.9391C52.7182 49.4774 52.8555 50.1892 53.3736 50.5615C56.6812 52.7885 57.557 57.2752 55.3301 60.5827C53.1031 63.8903 48.6164 64.7663 45.3089 62.5393C42.0013 60.3122 41.1253 55.8255 43.3523 52.518C44.6933 50.5264 46.9367 49.3317 49.3376 49.3305C50.0022 49.3305 50.5409 48.7917 50.5409 48.1271C50.5409 47.4626 50.0022 46.9238 49.3376 46.9238C44.0211 46.9249 39.7118 51.2356 39.7129 56.5522C39.7139 61.8687 44.0247 66.178 49.3412 66.1769C54.6578 66.1759 58.967 61.8651 58.966 56.5486C58.9654 53.3485 57.3746 50.3578 54.7213 48.5688Z" fill="black"/>
<path d="M63.2089 52.5594C62.0431 48.5206 59.1744 45.1907 55.3526 43.44V16.8467C55.3528 16.4212 55.128 16.0273 54.7618 15.8107L28.2888 0.167524C27.911 -0.0558415 27.4415 -0.0558415 27.0638 0.167524L0.590829 15.8107C0.565559 15.8251 0.54751 15.8468 0.523443 15.8636C0.499377 15.8804 0.476514 15.8997 0.452447 15.919C0.347909 16.0012 0.258112 16.1005 0.186514 16.2126C0.186514 16.221 0.172074 16.2258 0.167261 16.2342V16.2426C0.0994241 16.3649 0.0533973 16.4981 0.0312864 16.6361C0.0312864 16.6722 0.0204564 16.7059 0.0168465 16.742C0.0132365 16.7781 7.5462e-08 16.8106 7.5462e-08 16.8467V48.133C-0.000150339 48.5585 0.224569 48.9524 0.590829 49.169L27.0638 64.8122C27.0956 64.8275 27.128 64.8412 27.1613 64.8531C27.1941 64.8695 27.2279 64.8839 27.2624 64.8964C27.5272 65.0071 27.8254 65.0071 28.0903 64.8964C28.1251 64.8839 28.1593 64.8695 28.1925 64.8531C28.2238 64.8386 28.2575 64.8302 28.2888 64.8122L35.4738 60.5657C37.6848 68.2245 45.6856 72.641 53.3446 70.43C61.0034 68.2192 65.4199 60.2182 63.2089 52.5594ZM27.6763 2.60063L33.9336 6.29843L24.656 11.7807C24.0835 12.119 23.8935 12.8574 24.2318 13.4299C24.5701 14.0024 25.3085 14.1923 25.881 13.8541L36.3005 7.7015L42.5577 11.3993L18.4505 25.6406L12.1932 21.9428L22.2734 15.9863C22.8459 15.6481 23.0359 14.9097 22.6976 14.3372C22.3593 13.7647 21.6209 13.5747 21.0484 13.913L9.8275 20.5445L3.56904 16.8467L27.6763 2.60063ZM17.2472 27.7259V35.7605L11.0308 32.0867V24.0522L17.2472 27.7259ZM35.3717 52.8364C35.0516 54.0503 34.8917 55.3008 34.8962 56.5562C34.8965 57.0598 34.923 57.5631 34.9756 58.064L28.8796 61.6679V57.7595C28.8796 57.095 28.3408 56.5562 27.6763 56.5562C27.0118 56.5562 26.473 57.095 26.473 57.7595V61.6679L2.40664 47.4471V18.9561L8.62418 22.6299V32.7726C8.62373 33.1986 8.8483 33.5931 9.21501 33.8099L17.838 38.9059C18.0236 39.0151 18.2351 39.0729 18.4505 39.0732C19.115 39.0732 19.6538 38.5344 19.6538 37.8699V29.147L26.473 33.1769V52.9462C26.473 53.6108 27.0118 54.1496 27.6763 54.1496C28.3408 54.1496 28.8796 53.6108 28.8796 52.9462V33.1769L50.6886 20.2894C51.2607 19.9511 51.4504 19.213 51.1121 18.6409C50.7738 18.0687 50.0358 17.879 49.4636 18.2173L27.6763 31.0928L20.8174 27.0388L44.9247 12.7927L52.946 17.5326V42.5977C45.2657 40.5721 37.3973 45.156 35.3717 52.8364ZM49.336 68.5894C42.6903 68.5894 37.3028 63.202 37.3028 56.5562C37.3028 49.9104 42.6903 44.523 49.336 44.523C55.9818 44.523 61.3692 49.9104 61.3692 56.5562C61.362 63.199 55.9788 68.582 49.336 68.5894Z" fill="black"/>
<path d="M53.7679 53.3066C53.3016 52.8561 52.5621 52.8561 52.0959 53.3066L47.5317 57.8708L46.5774 56.9166C46.0994 56.4548 45.3377 56.468 44.876 56.9461C44.4255 57.4123 44.4255 58.1518 44.876 58.6181L46.6809 60.423C47.1508 60.8928 47.9125 60.8928 48.3824 60.423L53.7974 55.0081C54.2591 54.5301 54.2459 53.7682 53.7679 53.3066Z" fill="#019529"/>
</svg>
