<svg width="54" height="54" viewBox="0 0 54 54" fill="none" xmlns="http://www.w3.org/2000/svg">
<path d="M1.75 0.527344C1.19772 0.527344 0.75 0.975059 0.75 1.52734V52.0273C0.75 52.5796 1.19772 53.0273 1.75 53.0273H52.25C52.8023 53.0273 53.25 52.5796 53.25 52.0273V1.52734C53.25 0.975059 52.8023 0.527344 52.25 0.527344H1.75ZM35.75 14.8398C35.75 15.3921 35.3023 15.8398 34.75 15.8398H31.5938C30.2812 15.8398 29.1875 16.4961 29.1875 17.8086V19.2148C29.1875 19.7671 29.6352 20.2148 30.1875 20.2148H34.6811C35.2596 20.2148 35.7174 20.7042 35.6789 21.2814L35.3747 25.8439C35.3397 26.3692 34.9034 26.7773 34.3769 26.7773H30.1875C29.6352 26.7773 29.1875 27.2251 29.1875 27.7773V43.2773C29.1875 43.8296 28.7398 44.2773 28.1875 44.2773H23.625C23.0727 44.2773 22.625 43.8296 22.625 43.2773V27.7773C22.625 27.2251 22.1773 26.7773 21.625 26.7773H19.25C18.6977 26.7773 18.25 26.3296 18.25 25.7773V21.2148C18.25 20.6626 18.6977 20.2148 19.25 20.2148H21.625C22.1773 20.2148 22.625 19.7671 22.625 19.2148V16.0586C22.625 11.6836 25.0312 9.27734 30.2812 9.27734H34.75C35.3023 9.27734 35.75 9.72506 35.75 10.2773V14.8398Z" fill="#019529"/>
</svg>
