<svg width="19" height="21" viewBox="0 0 19 21" fill="none" xmlns="http://www.w3.org/2000/svg">
<path d="M0 3.33333C0 2.78105 0.447715 2.33333 1 2.33333H6.0047C6.21817 2.33333 6.42604 2.26502 6.5979 2.13839L9.5 0L12.4021 2.13839C12.574 2.26502 12.7818 2.33333 12.9953 2.33333H18C18.5523 2.33333 19 2.78317 19 3.33546C19 9.68482 19 13.6485 19 19.9979C19 20.5502 18.5523 21 18 21H1C0.447715 21 0 20.5523 0 20V3.33333Z" fill="#019529"/>
<line x1="6.5" y1="8.5" x2="6.5" y2="15.5" stroke="white" stroke-linecap="round"/>
<line x1="9.5" y1="8.5" x2="9.5" y2="15.5" stroke="white" stroke-linecap="round"/>
<line x1="12.5" y1="8.5" x2="12.5" y2="15.5" stroke="white" stroke-linecap="round"/>
</svg>
