<svg width="19" height="22" viewBox="0 0 19 22" fill="none" xmlns="http://www.w3.org/2000/svg">
<path d="M18.0503 6.67651L18.0497 6.66095C18.041 6.46884 18.0352 6.26559 18.0317 6.03946C18.0153 4.93671 17.1387 4.02454 16.0358 3.96289C13.7363 3.83457 11.9575 3.08475 10.4375 1.60328L10.4246 1.59092C9.92881 1.13636 9.18098 1.13636 8.68507 1.59092L8.6721 1.60328C7.15217 3.08475 5.37331 3.83457 3.07381 3.96305C1.97106 4.02454 1.09429 4.93671 1.07797 6.03961C1.07461 6.26422 1.06866 6.46747 1.05996 6.66095L1.05904 6.69711C1.01434 9.04192 0.958794 11.9602 1.93505 14.6089C2.47185 16.0655 3.28484 17.3317 4.35127 18.3725C5.56587 19.5578 7.15675 20.4988 9.07966 21.1693C9.14222 21.1911 9.20722 21.2088 9.27345 21.2221C9.36683 21.2407 9.46082 21.25 9.55482 21.25C9.64881 21.25 9.74296 21.2407 9.83619 21.2221C9.90241 21.2088 9.96787 21.1909 10.0307 21.169C11.9514 20.4973 13.5406 19.5558 14.7541 18.3707C15.8201 17.3296 16.6331 16.0631 17.1703 14.6062C18.1502 11.9495 18.0948 9.02575 18.0503 6.67651ZM16.6728 14.2001C15.6432 16.9919 12.9377 19.5127 9.64347 20.6648C9.63172 20.6688 9.61921 20.6723 9.60624 20.6749C9.57221 20.6816 9.53757 20.6816 9.50309 20.6747C9.49027 20.6721 9.47776 20.6688 9.46616 20.6648C6.16844 19.5149 3.46158 16.9951 2.43268 14.2032C1.53287 11.7616 1.58384 9.08282 1.62885 6.71954L1.62915 6.70642C1.63831 6.50332 1.64441 6.29062 1.64777 6.05685C1.65509 5.5672 2.6487 4.55848 3.13927 4.53117C4.44054 4.45854 5.58372 4.20708 6.63414 3.76243C7.68318 3.31841 8.61488 2.69249 9.48218 1.84899C9.52628 1.81176 9.5835 1.8116 9.62745 1.84899C10.4949 2.69249 11.4266 3.31841 12.4755 3.76243C13.5259 4.20708 14.6691 4.45854 15.9705 4.53117C16.4611 4.55848 17.4547 5.5672 17.4619 6.05701C17.4654 6.29199 17.4715 6.5047 17.4806 6.70642C17.5255 9.07244 17.5752 11.7534 16.6728 14.2001Z" fill="white" stroke="white" stroke-width="0.999997"/>
<path d="M11.9036 8.69434L8.44308 12.1926L7.35414 11.1036L6.38281 12.0748C6.96344 12.6554 8.44308 14.194 8.44308 14.194C8.44308 14.194 11.7762 10.8019 12.8863 9.69176L11.9036 8.69434Z" fill="white"/>
</svg>
