<svg width="17" height="17" viewBox="0 0 17 17" fill="none" xmlns="http://www.w3.org/2000/svg">
<path d="M16.1937 14.6914L13.4061 11.8662C14.2314 10.69 14.7214 9.25614 14.7214 7.70589C14.7214 3.73252 11.5316 0.5 7.61058 0.5C3.68961 0.5 0.5 3.73252 0.5 7.70589C0.5 11.679 3.68961 14.9115 7.61058 14.9115C9.24858 14.9115 10.7543 14.3421 11.9576 13.3955L14.7147 16.1895C14.9188 16.3963 15.1869 16.5 15.4542 16.5C15.722 16.5 15.9896 16.3966 16.1937 16.1895C16.6021 15.7762 16.6021 15.1053 16.1937 14.6914ZM2.17351 7.70618C2.17351 4.66772 4.61303 2.19587 7.61114 2.19587C10.6093 2.19587 13.0488 4.66772 13.0488 7.70618C13.0488 8.97029 12.6224 10.133 11.9129 11.0639C11.6783 11.3713 11.415 11.6549 11.1225 11.9062C10.1742 12.7215 8.94944 13.2165 7.61114 13.2165C4.61275 13.2162 2.17351 10.7444 2.17351 7.70618Z" fill="white"/>
</svg>
