<svg width="45" height="27" viewBox="0 0 45 27" fill="none" xmlns="http://www.w3.org/2000/svg">
<path d="M32.6955 0.5C25.911 0.5 20.391 6.38825 20.391 13.625C20.391 18.3808 16.764 22.25 12.3053 22.25C7.8465 22.25 4.21875 18.3808 4.21875 13.625C4.21875 8.86925 7.84575 5 12.3045 5C13.914 5 15.468 5.5025 16.7985 6.4535C17.2432 6.77225 17.6587 7.13675 18.0322 7.53725C18.828 8.38925 20.2178 8.39225 21.015 7.544C21.8393 6.66875 21.8422 5.2415 21.0217 4.36175C20.4517 3.752 19.821 3.19775 19.1475 2.71625C17.1195 1.2665 14.754 0.50075 12.3045 0.50075C5.52 0.5 0 6.38825 0 13.625C0 20.8617 5.52 26.75 12.3045 26.75C19.089 26.75 24.609 20.8617 24.609 13.625C24.609 8.86925 28.236 5 32.6947 5C37.1535 5 40.7812 8.86925 40.7812 13.625C40.7812 18.3808 37.1543 22.25 32.6955 22.25C30.5363 22.25 28.506 21.3537 26.979 19.7255C26.1825 18.8757 24.7927 18.8757 23.9955 19.7255C23.5972 20.1507 23.3783 20.7155 23.3783 21.3162C23.3783 21.9178 23.598 22.4832 23.9963 22.907C26.3197 25.3857 29.4098 26.75 32.6955 26.75C39.48 26.75 45 20.8617 45 13.625C45 6.38825 39.48 0.5 32.6955 0.5Z" fill="white"/>
</svg>
