<svg width="71" height="26" viewBox="0 0 71 26" fill="none" xmlns="http://www.w3.org/2000/svg">
<path d="M9.39109 11V1.298H15.8871V3.132H11.5751V5.162H15.4111V6.996H11.5751V11H9.39109ZM17.5034 7.374C17.5034 6.72067 17.6014 6.15133 17.7974 5.666C18.0028 5.17133 18.2688 4.76067 18.5954 4.434C18.9221 4.10733 19.2954 3.86 19.7154 3.692C20.1448 3.524 20.5834 3.44 21.0314 3.44C22.0768 3.44 22.9028 3.762 23.5094 4.406C24.1161 5.04067 24.4194 5.97867 24.4194 7.22C24.4194 7.34133 24.4148 7.47667 24.4054 7.626C24.3961 7.766 24.3868 7.892 24.3774 8.004H19.6454C19.6921 8.43333 19.8928 8.774 20.2474 9.026C20.6021 9.278 21.0781 9.404 21.6754 9.404C22.0581 9.404 22.4314 9.37133 22.7954 9.306C23.1688 9.23133 23.4721 9.14267 23.7054 9.04L23.9854 10.734C23.8734 10.79 23.7241 10.846 23.5374 10.902C23.3508 10.958 23.1408 11.0047 22.9074 11.042C22.6834 11.0887 22.4408 11.126 22.1794 11.154C21.9181 11.182 21.6568 11.196 21.3954 11.196C20.7328 11.196 20.1541 11.098 19.6594 10.902C19.1741 10.706 18.7681 10.44 18.4414 10.104C18.1241 9.75867 17.8861 9.35267 17.7274 8.886C17.5781 8.41933 17.5034 7.91533 17.5034 7.374ZM22.4034 6.576C22.3941 6.39867 22.3614 6.226 22.3054 6.058C22.2588 5.89 22.1794 5.74067 22.0674 5.61C21.9648 5.47933 21.8294 5.372 21.6614 5.288C21.5028 5.204 21.3021 5.162 21.0594 5.162C20.8261 5.162 20.6254 5.204 20.4574 5.288C20.2894 5.36267 20.1494 5.46533 20.0374 5.596C19.9254 5.72667 19.8368 5.88067 19.7714 6.058C19.7154 6.226 19.6734 6.39867 19.6454 6.576H22.4034ZM28.8432 9.502C29.2259 9.502 29.4966 9.46467 29.6552 9.39C29.8139 9.31533 29.8932 9.17067 29.8932 8.956C29.8932 8.788 29.7906 8.64333 29.5852 8.522C29.3799 8.39133 29.0672 8.24667 28.6472 8.088C28.3206 7.96667 28.0219 7.84067 27.7512 7.71C27.4899 7.57933 27.2659 7.42533 27.0792 7.248C26.8926 7.06133 26.7479 6.842 26.6452 6.59C26.5426 6.338 26.4912 6.03467 26.4912 5.68C26.4912 4.98933 26.7479 4.44333 27.2612 4.042C27.7746 3.64067 28.4792 3.44 29.3752 3.44C29.8232 3.44 30.2526 3.482 30.6632 3.566C31.0739 3.64067 31.4006 3.72467 31.6432 3.818L31.2792 5.442C31.0366 5.358 30.7706 5.28333 30.4812 5.218C30.2012 5.15267 29.8839 5.12 29.5292 5.12C28.8759 5.12 28.5492 5.302 28.5492 5.666C28.5492 5.75 28.5632 5.82467 28.5912 5.89C28.6192 5.95533 28.6752 6.02067 28.7592 6.086C28.8432 6.142 28.9552 6.20733 29.0952 6.282C29.2446 6.34733 29.4312 6.422 29.6552 6.506C30.1126 6.674 30.4906 6.842 30.7892 7.01C31.0879 7.16867 31.3212 7.346 31.4892 7.542C31.6666 7.72867 31.7879 7.93867 31.8532 8.172C31.9279 8.40533 31.9652 8.676 31.9652 8.984C31.9652 9.712 31.6899 10.2627 31.1392 10.636C30.5979 11.0093 29.8279 11.196 28.8292 11.196C28.1759 11.196 27.6299 11.14 27.1912 11.028C26.7619 10.916 26.4632 10.8227 26.2952 10.748L26.6452 9.054C26.9999 9.194 27.3639 9.306 27.7372 9.39C28.1106 9.46467 28.4792 9.502 28.8432 9.502ZM34.1541 1.802L36.2401 1.466V3.636H38.7461V5.372H36.2401V7.962C36.2401 8.40067 36.3148 8.75067 36.4641 9.012C36.6228 9.27333 36.9355 9.404 37.4021 9.404C37.6261 9.404 37.8548 9.38533 38.0881 9.348C38.3308 9.30133 38.5501 9.24067 38.7461 9.166L39.0401 10.79C38.7881 10.8927 38.5081 10.9813 38.2001 11.056C37.8921 11.1307 37.5141 11.168 37.0661 11.168C36.4968 11.168 36.0255 11.0933 35.6521 10.944C35.2788 10.7853 34.9801 10.5707 34.7561 10.3C34.5321 10.02 34.3735 9.684 34.2801 9.292C34.1961 8.9 34.1541 8.466 34.1541 7.99V1.802ZM47.7594 7.304C47.7594 7.88267 47.6754 8.41467 47.5074 8.9C47.3394 9.376 47.0967 9.78667 46.7794 10.132C46.4621 10.468 46.0794 10.7293 45.6314 10.916C45.1927 11.1027 44.6981 11.196 44.1474 11.196C43.6061 11.196 43.1114 11.1027 42.6634 10.916C42.2247 10.7293 41.8467 10.468 41.5294 10.132C41.2121 9.78667 40.9647 9.376 40.7874 8.9C40.6101 8.41467 40.5214 7.88267 40.5214 7.304C40.5214 6.72533 40.6101 6.198 40.7874 5.722C40.9741 5.246 41.2261 4.84 41.5434 4.504C41.8701 4.168 42.2527 3.90667 42.6914 3.72C43.1394 3.53333 43.6247 3.44 44.1474 3.44C44.6794 3.44 45.1647 3.53333 45.6034 3.72C46.0514 3.90667 46.4341 4.168 46.7514 4.504C47.0687 4.84 47.3161 5.246 47.4934 5.722C47.6707 6.198 47.7594 6.72533 47.7594 7.304ZM45.6314 7.304C45.6314 6.66 45.5007 6.156 45.2394 5.792C44.9874 5.41867 44.6234 5.232 44.1474 5.232C43.6714 5.232 43.3027 5.41867 43.0414 5.792C42.7801 6.156 42.6494 6.66 42.6494 7.304C42.6494 7.948 42.7801 8.46133 43.0414 8.844C43.3027 9.21733 43.6714 9.404 44.1474 9.404C44.6234 9.404 44.9874 9.21733 45.2394 8.844C45.5007 8.46133 45.6314 7.948 45.6314 7.304ZM56.9633 7.304C56.9633 7.88267 56.8793 8.41467 56.7113 8.9C56.5433 9.376 56.3006 9.78667 55.9833 10.132C55.666 10.468 55.2833 10.7293 54.8353 10.916C54.3966 11.1027 53.902 11.196 53.3513 11.196C52.81 11.196 52.3153 11.1027 51.8673 10.916C51.4286 10.7293 51.0506 10.468 50.7333 10.132C50.416 9.78667 50.1686 9.376 49.9913 8.9C49.814 8.41467 49.7253 7.88267 49.7253 7.304C49.7253 6.72533 49.814 6.198 49.9913 5.722C50.178 5.246 50.43 4.84 50.7473 4.504C51.074 4.168 51.4566 3.90667 51.8953 3.72C52.3433 3.53333 52.8286 3.44 53.3513 3.44C53.8833 3.44 54.3686 3.53333 54.8073 3.72C55.2553 3.90667 55.638 4.168 55.9553 4.504C56.2726 4.84 56.52 5.246 56.6973 5.722C56.8746 6.198 56.9633 6.72533 56.9633 7.304ZM54.8353 7.304C54.8353 6.66 54.7046 6.156 54.4433 5.792C54.1913 5.41867 53.8273 5.232 53.3513 5.232C52.8753 5.232 52.5066 5.41867 52.2453 5.792C51.984 6.156 51.8533 6.66 51.8533 7.304C51.8533 7.948 51.984 8.46133 52.2453 8.844C52.5066 9.21733 52.8753 9.404 53.3513 9.404C53.8273 9.404 54.1913 9.21733 54.4433 8.844C54.7046 8.46133 54.8353 7.948 54.8353 7.304ZM62.2192 11.14C61.6126 11.1307 61.1179 11.0653 60.7352 10.944C60.3619 10.8227 60.0632 10.6547 59.8392 10.44C59.6246 10.216 59.4752 9.95 59.3912 9.642C59.3166 9.32467 59.2792 8.97 59.2792 8.578V0.472L61.3652 0.136V8.158C61.3652 8.34467 61.3792 8.51267 61.4072 8.662C61.4352 8.81133 61.4866 8.93733 61.5612 9.04C61.6452 9.14267 61.7619 9.22667 61.9112 9.292C62.0606 9.35733 62.2612 9.39933 62.5132 9.418L62.2192 11.14ZM4.33369 23.096C4.68569 23.096 4.97369 23.0693 5.19769 23.016C5.43235 22.952 5.61902 22.872 5.75769 22.776C5.89635 22.6693 5.99235 22.5467 6.04569 22.408C6.09902 22.2693 6.12569 22.1147 6.12569 21.944C6.12569 21.5813 5.95502 21.2827 5.61369 21.048C5.27235 20.8027 4.68569 20.5413 3.85369 20.264C3.49102 20.136 3.12835 19.992 2.76569 19.832C2.40302 19.6613 2.07769 19.4533 1.78969 19.208C1.50169 18.952 1.26702 18.648 1.08569 18.296C0.904353 17.9333 0.813686 17.496 0.813686 16.984C0.813686 16.472 0.909686 16.0133 1.10169 15.608C1.29369 15.192 1.56569 14.84 1.91769 14.552C2.26969 14.264 2.69635 14.0453 3.19769 13.896C3.69902 13.736 4.26435 13.656 4.89369 13.656C5.64035 13.656 6.28569 13.736 6.82969 13.896C7.37369 14.056 7.82169 14.232 8.17369 14.424L7.45369 16.392C7.14435 16.232 6.79769 16.0933 6.41369 15.976C6.04035 15.848 5.58702 15.784 5.05369 15.784C4.45635 15.784 4.02435 15.8693 3.75769 16.04C3.50169 16.2 3.37369 16.4507 3.37369 16.792C3.37369 16.9947 3.42169 17.1653 3.51769 17.304C3.61369 17.4427 3.74702 17.5707 3.91769 17.688C4.09902 17.7947 4.30169 17.896 4.52569 17.992C4.76035 18.0773 5.01635 18.168 5.29369 18.264C5.86969 18.4773 6.37102 18.6907 6.79769 18.904C7.22435 19.1067 7.57635 19.3467 7.85369 19.624C8.14169 19.9013 8.35502 20.2267 8.49369 20.6C8.63235 20.9733 8.70169 21.4267 8.70169 21.96C8.70169 22.9947 8.33902 23.8 7.61369 24.376C6.88835 24.9413 5.79502 25.224 4.33369 25.224C3.84302 25.224 3.40035 25.192 3.00569 25.128C2.61102 25.0747 2.25902 25.0053 1.94969 24.92C1.65102 24.8347 1.38969 24.744 1.16569 24.648C0.952353 24.552 0.771019 24.4613 0.621686 24.376L1.32569 22.392C1.65635 22.5733 2.06169 22.7387 2.54169 22.888C3.03235 23.0267 3.62969 23.096 4.33369 23.096ZM11.4222 25V13.912H18.9102V16.008H13.9182V18.184H18.3502V20.232H13.9182V22.904H19.2782V25H11.4222ZM25.1733 13.784C26.8373 13.784 28.112 14.0827 28.9973 14.68C29.8826 15.2667 30.3253 16.184 30.3253 17.432C30.3253 18.2107 30.144 18.8453 29.7813 19.336C29.4293 19.816 28.9173 20.1947 28.2453 20.472C28.4693 20.7493 28.704 21.0693 28.9493 21.432C29.1946 21.784 29.4346 22.1573 29.6693 22.552C29.9146 22.936 30.1493 23.3413 30.3733 23.768C30.5973 24.184 30.8053 24.5947 30.9973 25H28.1973C27.9946 24.6373 27.7866 24.2693 27.5733 23.896C27.3706 23.5227 27.1573 23.16 26.9333 22.808C26.72 22.456 26.5066 22.1253 26.2933 21.816C26.08 21.496 25.8666 21.208 25.6533 20.952H24.4213V25H21.9253V14.072C22.4693 13.9653 23.0293 13.8907 23.6053 13.848C24.192 13.8053 24.7146 13.784 25.1733 13.784ZM25.3173 15.912C25.136 15.912 24.9706 15.9173 24.8213 15.928C24.6826 15.9387 24.5493 15.9493 24.4213 15.96V18.968H25.1253C26.064 18.968 26.736 18.8507 27.1413 18.616C27.5466 18.3813 27.7493 17.9813 27.7493 17.416C27.7493 16.872 27.5413 16.488 27.1253 16.264C26.72 16.0293 26.1173 15.912 25.3173 15.912ZM36.4588 25C36.0215 24.072 35.5895 23.1067 35.1628 22.104C34.7361 21.1013 34.3308 20.1093 33.9468 19.128C33.5628 18.1467 33.2055 17.208 32.8748 16.312C32.5548 15.416 32.2775 14.616 32.0428 13.912H34.7948C35.0081 14.552 35.2375 15.2453 35.4828 15.992C35.7388 16.728 35.9948 17.464 36.2508 18.2C36.5175 18.936 36.7735 19.64 37.0188 20.312C37.2641 20.984 37.4935 21.5653 37.7068 22.056C37.9095 21.5653 38.1335 20.984 38.3788 20.312C38.6348 19.64 38.8908 18.936 39.1468 18.2C39.4135 17.464 39.6695 16.728 39.9148 15.992C40.1708 15.2453 40.4055 14.552 40.6188 13.912H43.2748C43.0295 14.616 42.7468 15.416 42.4268 16.312C42.1068 17.208 41.7548 18.1467 41.3708 19.128C40.9868 20.1093 40.5815 21.1013 40.1548 22.104C39.7281 23.1067 39.2961 24.072 38.8588 25H36.4588ZM45.5097 13.912H48.0057V25H45.5097V13.912ZM56.4282 25.224C54.6255 25.224 53.2495 24.7227 52.3002 23.72C51.3615 22.7173 50.8922 21.2933 50.8922 19.448C50.8922 18.5307 51.0362 17.7147 51.3242 17C51.6122 16.2747 52.0069 15.6667 52.5082 15.176C53.0095 14.6747 53.6069 14.296 54.3002 14.04C54.9935 13.784 55.7455 13.656 56.5562 13.656C57.0255 13.656 57.4522 13.6933 57.8362 13.768C58.2202 13.832 58.5562 13.912 58.8442 14.008C59.1322 14.0933 59.3722 14.184 59.5642 14.28C59.7562 14.376 59.8949 14.4507 59.9802 14.504L59.2602 16.52C58.9189 16.3387 58.5189 16.184 58.0602 16.056C57.6122 15.928 57.1002 15.864 56.5242 15.864C56.1402 15.864 55.7615 15.928 55.3882 16.056C55.0255 16.184 54.7002 16.392 54.4122 16.68C54.1349 16.9573 53.9109 17.32 53.7402 17.768C53.5695 18.216 53.4842 18.76 53.4842 19.4C53.4842 19.912 53.5375 20.392 53.6442 20.84C53.7615 21.2773 53.9429 21.656 54.1882 21.976C54.4442 22.296 54.7749 22.552 55.1802 22.744C55.5855 22.9253 56.0762 23.016 56.6522 23.016C57.0149 23.016 57.3402 22.9947 57.6282 22.952C57.9162 22.9093 58.1722 22.8613 58.3962 22.808C58.6202 22.744 58.8175 22.6747 58.9882 22.6C59.1589 22.5253 59.3135 22.456 59.4522 22.392L60.1402 24.392C59.7882 24.6053 59.2922 24.7973 58.6522 24.968C58.0122 25.1387 57.2709 25.224 56.4282 25.224ZM62.5472 25V13.912H70.0352V16.008H65.0432V18.184H69.4752V20.232H65.0432V22.904H70.4032V25H62.5472Z" fill="white"/>
</svg>
