<svg width="36" height="36" viewBox="0 0 36 36" fill="none" xmlns="http://www.w3.org/2000/svg">
<path d="M16.0321 10.4688L15.8777 10.3319C16.6358 7.59346 15.9457 4.53274 13.8073 2.37911C11.6817 0.245443 8.67744 -0.453418 5.97221 0.283952L10.5522 4.89358L9.35056 9.4105L4.86263 10.6185L0.279762 6.01175C-0.448622 8.73303 0.244335 11.7581 2.36997 13.8975C4.59622 16.1395 7.80451 16.797 10.6089 15.8785L10.6344 15.9042L29.4817 34.8718C30.2271 35.6206 31.2021 36 32.1799 36C33.1577 36 34.1312 35.6206 34.8809 34.8718C36.373 33.3757 36.373 30.944 34.8809 29.4364L16.0321 10.4688ZM32.5086 34.2272C31.7066 34.2272 31.0533 33.5697 31.0533 32.7596C31.0533 31.9466 31.7066 31.292 32.5086 31.292C33.3164 31.292 33.9682 31.9466 33.9682 32.7596C33.9697 33.5697 33.3178 34.2272 32.5086 34.2272Z" fill="white"/>
</svg>
