<svg width="60" height="61" viewBox="0 0 60 61" fill="none" xmlns="http://www.w3.org/2000/svg">
<path d="M42.0646 4.52734H17.9354C10.1136 4.52734 3.75 10.9919 3.75 18.9379V43.4502C3.75 51.3961 10.1136 57.8607 17.9354 57.8607H42.0646C49.8864 57.8607 56.25 51.3961 56.25 43.4502V18.9379C56.25 10.9919 49.8864 4.52734 42.0646 4.52734ZM51.1547 43.4502C51.1547 49.0203 47.5478 52.6928 42.0646 52.6928H17.9354C12.4523 52.6928 9.69924 49.0204 9.69924 43.4502C9.69924 43.4502 9.69924 24.508 9.69924 18.9379C9.69924 13.3678 12.4522 9.6952 17.9354 9.6952C23.4185 9.6952 36.5816 9.6952 42.0646 9.6952C47.5477 9.6952 51.1547 13.3677 51.1547 18.9379C51.1547 24.5081 51.1547 43.4502 51.1547 43.4502Z" fill="#019529"/>
<path d="M42.2818 29.4332C41.9014 26.8678 40.7312 24.5426 38.8975 22.7088C37.0639 20.875 34.739 19.7045 32.1739 19.3242C31.006 19.151 29.822 19.151 28.6542 19.3242C25.4841 19.7944 22.687 21.471 20.7779 24.0451C18.8688 26.6193 18.0762 29.7831 18.5463 32.9533C19.0164 36.1236 20.6928 38.921 23.2667 40.8304C25.3563 42.3804 27.834 43.1943 30.3887 43.1943C30.9809 43.1943 31.5773 43.1507 32.1738 43.0621C35.3439 42.5919 38.141 40.9154 40.0501 38.3412C41.9593 35.7671 42.752 32.6035 42.2818 29.4332ZM31.5398 38.7859C29.512 39.0871 27.4884 38.5797 25.8418 37.3583C24.1952 36.1369 23.1228 34.3472 22.8222 32.3192C22.5214 30.2912 23.0284 28.2674 24.2497 26.6206C25.471 24.9738 27.2604 23.9013 29.2883 23.6006C29.6618 23.5452 30.0379 23.5175 30.414 23.5175C30.79 23.5175 31.1662 23.5452 31.5397 23.6007C34.9078 24.1001 37.5064 26.6989 38.0059 30.0674C38.6266 34.2539 35.7261 38.1651 31.5398 38.7859Z" fill="#019529"/>
<path d="M45.5905 15.9764C45.0986 15.4799 44.4179 15.1953 43.723 15.1953C43.0282 15.1953 42.3474 15.4797 41.8556 15.9764C41.3638 16.473 41.082 17.1592 41.082 17.862C41.082 18.5648 41.3638 19.2509 41.8556 19.7476C42.3474 20.2441 43.0282 20.5286 43.723 20.5286C44.4179 20.5286 45.0986 20.2442 45.5905 19.7476C46.0822 19.2509 46.364 18.5636 46.364 17.862C46.364 17.1602 46.0822 16.4729 45.5905 15.9764Z" fill="#019529"/>
</svg>
