<svg width="12" height="15" viewBox="0 0 12 15" fill="none" xmlns="http://www.w3.org/2000/svg">
<path fill-rule="evenodd" clip-rule="evenodd" d="M7.77272 0C7.97163 0 8.1624 0.0790176 8.30305 0.21967L8.69705 0.613666C8.8377 0.754319 9.02846 0.833336 9.22738 0.833336H11.0834C11.4976 0.833336 11.8334 1.16912 11.8334 1.58334V1.75001C11.8334 2.16422 11.4976 2.50001 11.0834 2.50001H0.916687C0.502473 2.50001 0.166687 2.16422 0.166687 1.75001V1.58334C0.166687 1.16912 0.502474 0.833336 0.916687 0.833336H2.7727C2.97162 0.833336 3.16238 0.754319 3.30303 0.613666L3.69703 0.21967C3.83768 0.0790176 4.02845 0 4.22736 0H7.77272ZM0.999986 13.3334C0.999986 14.2501 1.74999 15.0001 2.66666 15.0001H9.33335C10.25 15.0001 11 14.2501 11 13.3334V4.08336C11 3.66915 10.6642 3.33336 10.25 3.33336H1.74999C1.33577 3.33336 0.999986 3.66915 0.999986 4.08336V13.3334ZM2.66658 5.74996C2.66658 5.33575 3.00237 4.99996 3.41658 4.99996H8.58327C8.99749 4.99996 9.33327 5.33575 9.33327 5.74996V12.5833C9.33327 12.9975 8.99749 13.3333 8.58327 13.3333H3.41658C3.00237 13.3333 2.66658 12.9975 2.66658 12.5833V5.74996Z" fill="#D0D3E1"/>
</svg>
