<svg width="19" height="14" viewBox="0 0 19 14" fill="none" xmlns="http://www.w3.org/2000/svg">
<path d="M16.3161 8.52077L13.7763 8.33932L12.0977 5.54312L11.2586 4.14301V3.75521C11.2588 3.33433 10.9179 2.99296 10.497 2.9927C10.4027 2.99257 10.3092 3.01008 10.2214 3.04406L7.80792 3.97505L7.99028 3.363C8.13425 2.84848 7.90066 2.30309 7.42894 2.05225L5.53519 1.03488C5.39745 0.960955 5.22586 1.00817 5.14531 1.14215L2.36753 5.59033L2.30891 5.55635C2.16857 5.47568 1.98946 5.52419 1.90891 5.66452C1.9071 5.66751 1.90554 5.67049 1.90385 5.6736L1.03422 7.3108C0.959249 7.45218 1.01152 7.6274 1.15146 7.70483L11.7278 13.5669C11.7713 13.5909 11.8201 13.6035 11.8697 13.6035H16.2414C17.2122 13.6025 17.9991 12.8158 18 11.8449V10.3289C17.9969 9.379 17.2634 8.59146 16.3161 8.52077ZM13.1637 8.458L12.829 8.56967L10.2063 5.15973L10.8805 4.65351L13.1637 8.458ZM5.50406 1.68351L7.15164 2.56781C7.38004 2.68856 7.49418 2.95133 7.4266 3.20061L7.18445 4.01668L5.50199 3.00775L4.91938 2.65808L5.50406 1.68351ZM3.76868 4.48088L3.91874 4.24638L4.88306 4.96362C5.37384 5.3321 5.62442 5.93897 5.53662 6.54648L5.50004 7.39355L2.88049 5.88371L3.76868 4.48088ZM16.2414 13.0173H11.9451L1.68648 7.33104L2.27882 6.2173L11.9914 11.8058C12.036 11.8315 12.0865 11.845 12.138 11.8449H17.4138C17.4138 12.4923 16.8889 13.0173 16.2414 13.0173ZM17.4138 11.2586H12.2162L10.2058 10.1012L10.8817 9.41207C10.9934 9.29495 10.9889 9.10935 10.8717 8.99768C10.7569 8.88821 10.5758 8.89003 10.4631 9.0017L9.68118 9.79897L8.56732 9.15708L9.68442 8.26345C9.81075 8.16228 9.83124 7.97772 9.73007 7.85126C9.62891 7.72493 9.44435 7.70444 9.31802 7.80561L8.02154 8.84295L7.06721 8.29419L8.51518 7.08746C8.63969 6.98383 8.65655 6.79901 8.55305 6.6745C8.44942 6.54998 8.26447 6.53312 8.13995 6.63662L6.52558 7.98226L6.07241 7.72143L6.11988 6.59629C6.22844 5.78566 5.88875 4.97997 5.23273 4.49178L4.23404 3.74924L4.61134 3.1569L7.20586 4.71356C7.24074 4.73367 7.2794 4.74612 7.31934 4.75027C7.32635 4.75027 7.33244 4.7526 7.33958 4.75312C7.34658 4.75377 7.35099 4.7552 7.35657 4.7552C7.39275 4.75533 7.42881 4.74871 7.46266 4.73561L10.4318 3.59049C10.4861 3.56974 10.5469 3.57687 10.595 3.60956C10.6433 3.64263 10.672 3.69749 10.6716 3.75612V4.07855L9.61633 4.86985C9.48689 4.96713 9.46082 5.15091 9.55809 5.28022C9.55874 5.28113 9.55939 5.28204 9.56004 5.28281L12.4911 9.09327C12.5669 9.19249 12.6975 9.23244 12.8159 9.19262L13.6397 8.91791L16.2737 9.10611C16.9147 9.15358 17.4113 9.68613 17.4138 10.3289V11.2586Z" fill="#019529" stroke="#019529" stroke-width="0.2"/>
</svg>
