<svg width="20" height="21" viewBox="0 0 20 21" fill="none" xmlns="http://www.w3.org/2000/svg">
<path d="M0.00195312 3.33335C0.00195312 2.78106 0.449668 2.33335 1.00195 2.33335H6.00665C6.22013 2.33335 6.428 2.26504 6.59985 2.1384L9.50195 1.52588e-05L12.4041 2.1384C12.5759 2.26504 12.7838 2.33335 12.9973 2.33335H18.002C18.5542 2.33335 19.002 2.78319 19.002 3.33547C19.002 9.68483 19.002 13.6485 19.002 19.9979C19.002 20.5502 18.5542 21 18.002 21H1.00195C0.449668 21 0.00195312 20.5523 0.00195312 20V3.33335Z" fill="#019529"/>
<line opacity="0.3" x1="6.50195" y1="8.50002" x2="6.50195" y2="15.5" stroke="white" stroke-linecap="round"/>
<line opacity="0.3" x1="9.50195" y1="8.50002" x2="9.50195" y2="15.5" stroke="white" stroke-linecap="round"/>
<line opacity="0.3" x1="12.502" y1="8.50002" x2="12.502" y2="15.5" stroke="white" stroke-linecap="round"/>
</svg>
