<svg width="36" height="25" viewBox="0 0 36 25" fill="none" xmlns="http://www.w3.org/2000/svg">
<path d="M35.9025 22.6375C35.9025 23.8097 34.9524 24.7599 33.7803 24.7599H2.12225C0.950155 24.76 0 23.8097 0 22.6375V2.12232C0 0.950156 0.950155 0 2.12225 0H33.7803C34.9525 0 35.9025 0.950226 35.9025 2.12232V22.6375Z" fill="white"/>
<path d="M7.96849 12.522L7.12548 8.47796C6.98138 7.92028 6.56205 7.75437 6.03809 7.73242H2.1731L2.13867 7.91719C5.14895 8.64696 7.14077 10.4074 7.96849 12.522Z" fill="#F79F1A"/>
<path d="M16.9251 7.81445H14.4278L12.8682 16.9673H15.3613L16.9251 7.81445Z" fill="#059BBF"/>
<path d="M9.49131 16.9558L13.4189 7.81836H10.7759L8.33261 14.0612L8.07183 13.1186C7.59289 11.9847 6.22411 10.3526 4.61719 9.32514L6.85058 16.9589L9.49131 16.9558Z" fill="#059BBF"/>
<path d="M24.0475 13.9717C24.0567 12.9325 23.3895 12.1399 21.9517 11.4853C21.0779 11.0624 20.5454 10.7805 20.5517 10.3514C20.5517 9.97232 21.0028 9.56513 21.98 9.56513C22.7977 9.55257 23.3864 9.7311 23.8469 9.91595L24.0726 10.0194L24.411 8.03653C23.916 7.85162 23.1422 7.6543 22.1744 7.6543C19.7091 7.6543 17.9738 8.89483 17.9581 10.674C17.9424 11.9897 19.1987 12.7227 20.1446 13.1612C21.1156 13.6082 21.4414 13.8942 21.4351 14.2951C21.4289 14.9082 20.6613 15.1878 19.9441 15.1878C18.9448 15.1878 18.4154 15.05 17.5943 14.708L17.2753 14.5614L16.9248 16.6124C17.507 16.8669 18.5845 17.0893 19.7029 17.0986C22.3246 17.0986 24.0287 15.8738 24.0475 13.9717Z" fill="#059BBF"/>
<path d="M27.014 15.5938C27.299 15.5938 29.8457 15.5969 30.2092 15.5969C30.2843 15.9156 30.513 16.9689 30.513 16.9689H32.8278L30.8074 7.82227H28.881C28.2826 7.82227 27.838 7.98516 27.5747 8.58022L23.8691 16.9689H26.4911C26.4909 16.9689 26.9169 15.8414 27.014 15.5938ZM28.7242 11.1613C28.7118 11.1864 28.931 10.632 29.0564 10.2874L29.2254 11.0767C29.2254 11.0767 29.7017 13.2633 29.8018 13.7206H27.7313C27.938 13.1944 28.7242 11.1613 28.7242 11.1613Z" fill="#059BBF"/>
<path d="M35.9026 0L0.138678 0C0.138678 0 0 0.950155 0 2.12232V4.32499H35.9025V2.12232C35.9025 0.950155 35.9026 0 35.9026 0Z" fill="#059BBF"/>
<path d="M35.9025 24.7586H0.138496C0.138496 24.7586 0 23.8084 0 22.6363V20.4336H35.9025V22.6363C35.9025 23.8084 35.9025 24.7586 35.9025 24.7586Z" fill="#F79F1A"/>
</svg>
