<svg width="8" height="10" viewBox="0 0 8 10" fill="none" xmlns="http://www.w3.org/2000/svg">
<path fill-rule="evenodd" clip-rule="evenodd" d="M5.18177 0C5.31438 0 5.44156 0.0526784 5.53533 0.146447L5.79799 0.409111C5.89176 0.502879 6.01894 0.555557 6.15154 0.555557H7.38889C7.66503 0.555557 7.88889 0.779415 7.88889 1.05556V1.16667C7.88889 1.44281 7.66503 1.66667 7.38889 1.66667H0.611084C0.334942 1.66667 0.111084 1.44281 0.111084 1.16667V1.05556C0.111084 0.779415 0.334942 0.555557 0.611084 0.555557H1.84843C1.98104 0.555557 2.10821 0.502879 2.20198 0.409111L2.46465 0.146447C2.55841 0.0526784 2.68559 0 2.8182 0H5.18177ZM0.666617 8.88893C0.666617 9.50004 1.16662 10 1.77773 10H6.22219C6.8333 10 7.33331 9.50004 7.33331 8.88893V2.72224C7.33331 2.4461 7.10945 2.22224 6.83331 2.22224H1.16662C0.890474 2.22224 0.666617 2.4461 0.666617 2.72224V8.88893ZM1.77768 3.83331C1.77768 3.55716 2.00154 3.33331 2.27768 3.33331H5.72214C5.99828 3.33331 6.22214 3.55717 6.22214 3.83331V8.38888C6.22214 8.66502 5.99828 8.88888 5.72214 8.88888H2.27768C2.00154 8.88888 1.77768 8.66502 1.77768 8.38888V3.83331Z" fill="#E6E9F8"/>
</svg>
