<svg width="11" height="12" viewBox="0 0 11 12" xmlns="http://www.w3.org/2000/svg">
<path d="M9.63338 4.05254C9.11124 2.8227 8.22395 1.92827 6.99646 1.39937C6.38295 1.13503 5.7402 1 5.0687 1C4.39732 1 3.75931 1.13375 3.14648 1.39937C1.92915 1.92687 1.03794 2.82072 0.514869 4.05254C0.252761 4.66968 0.125 5.31623 0.125 5.99451C0.125 6.67292 0.252761 7.32483 0.514869 7.9421C1.03794 9.17392 1.92927 10.0731 3.14648 10.6008C3.75943 10.8664 4.39731 11 5.0687 11C5.7401 11 6.38295 10.865 6.99636 10.6008C8.22385 10.0718 9.11114 9.17182 9.6334 7.9421C9.8963 7.32285 10.0287 6.67292 10.0287 5.99451C10.0287 5.31623 9.89641 4.67177 9.63338 4.05254ZM8.8429 8.20469C8.45418 8.87818 7.92165 9.41248 7.25095 9.80752C6.58431 10.2002 5.85388 10.3983 5.06882 10.3983C4.47864 10.3983 3.91549 10.2834 3.37936 10.0482C2.84325 9.81301 2.38037 9.50385 1.99316 9.11277C1.60594 8.72158 1.29775 8.24937 1.06729 7.70682C0.837515 7.16625 0.726163 6.59088 0.726163 5.99452C0.726163 5.20128 0.919075 4.46708 1.30561 3.79546C1.69352 3.12138 2.22617 2.58651 2.89213 2.19262C3.55797 1.79874 4.28366 1.60174 5.0687 1.60174C5.85388 1.60174 6.58418 1.7999 7.25083 2.19262C7.92153 2.58767 8.45292 3.12252 8.84278 3.79544C9.23265 4.46824 9.42754 5.20128 9.42754 5.99451C9.42754 6.78777 9.23393 7.52697 8.8429 8.20469Z" stroke-width="0.2"/>
<path d="M5.04362 5.91083V3.48491C5.04362 3.33975 4.89713 3.22266 4.72898 3.22266C4.57172 3.22266 4.43066 3.33975 4.43066 3.48491V5.94829C4.43066 5.95299 4.44154 5.97177 4.44154 5.98577C4.43066 6.07008 4.45786 6.14033 4.5229 6.19658L6.14477 7.59682C6.2533 7.69053 6.45395 7.69053 6.5624 7.59682C6.68712 7.48912 6.67891 7.33286 6.5624 7.23154L5.04362 5.91083Z" stroke-width="0.2"/>
</svg>
