<svg width="14" height="14" viewBox="0 0 14 14" xmlns="http://www.w3.org/2000/svg">
<path d="M1 0C0.447716 0 0 0.447715 0 1V13C0 13.5523 0.447715 14 1 14H13C13.5523 14 14 13.5523 14 13V1C14 0.447716 13.5523 0 13 0H1ZM9.33333 3.20833C9.33333 3.69158 8.94158 4.08333 8.45833 4.08333H8.225C7.875 4.08333 7.58333 4.25833 7.58333 4.60833C7.58333 4.96272 7.87062 5.25 8.225 5.25H8.4292C8.9185 5.25 9.30574 5.66391 9.27319 6.15213L9.26918 6.21227C9.23963 6.65555 8.87145 7 8.42719 7C7.96114 7 7.58333 7.37781 7.58333 7.84386V10.7917C7.58333 11.2749 7.19158 11.6667 6.70833 11.6667C6.22508 11.6667 5.83333 11.2749 5.83333 10.7917V7.58333C5.83333 7.26117 5.57217 7 5.25 7C4.92783 7 4.66667 6.73883 4.66667 6.41667V5.83333C4.66667 5.51117 4.92783 5.25 5.25 5.25C5.57217 5.25 5.83333 4.98883 5.83333 4.66667V4.14167C5.83333 2.975 6.475 2.33333 7.875 2.33333H8.45833C8.94158 2.33333 9.33333 2.72508 9.33333 3.20833Z"/>
</svg>
