<svg width="52" height="70" viewBox="0 0 52 70" xmlns="http://www.w3.org/2000/svg">
<path d="M25.9 0C11.6187 0 0 11.0398 0 24.6094C0 29.1941 1.33658 33.6684 3.86615 37.5501L24.4257 69.0305C24.8195 69.6336 25.5134 70 26.2596 70C26.2653 70 26.2709 70 26.2767 70C27.0294 69.9944 27.7247 69.6166 28.1113 69.0031L48.1468 37.2176C50.5368 33.4179 51.8 29.0581 51.8 24.6094C51.8 11.0398 40.1813 0 25.9 0ZM44.4424 35.1118L26.2269 64.0098L7.53503 35.3891C5.4295 32.1582 4.28789 28.4307 4.28789 24.6094C4.28789 13.3014 13.999 4.07422 25.9 4.07422C37.8011 4.07422 47.4977 13.3014 47.4977 24.6094C47.4977 28.3173 46.4314 31.9495 44.4424 35.1118Z"/>
<path d="M25.8992 11.8477C18.7586 11.8477 12.9492 17.3675 12.9492 24.1523C12.9492 30.8938 18.6641 36.457 25.8992 36.457C33.2236 36.457 38.8492 30.8197 38.8492 24.1523C38.8492 17.3675 33.0398 11.8477 25.8992 11.8477ZM25.8992 32.3828C21.1139 32.3828 17.2371 28.6869 17.2371 24.1523C17.2371 19.6291 21.1388 15.9219 25.8992 15.9219C30.6596 15.9219 34.5469 19.6291 34.5469 24.1523C34.5469 28.6207 30.7604 32.3828 25.8992 32.3828Z"/>
</svg>
