<svg width="17" height="19" viewBox="0 0 17 19" xmlns="http://www.w3.org/2000/svg">
<path d="M12.718 12.8959L11.0826 12.3509L10.4954 11.1766C11.0244 10.6383 11.3916 9.92596 11.5155 9.18298L11.5887 8.74409H12.2149C12.7841 8.74409 13.2471 8.28102 13.2471 7.71184V5.5441C13.2471 2.69817 10.9318 0.382812 8.08585 0.382812C5.23262 0.382812 2.92456 2.69152 2.92456 5.5441V7.71184C2.92456 8.16039 3.21225 8.54287 3.61273 8.68491V9.08818C3.61273 9.65737 4.0758 10.1204 4.64499 10.1204H4.94717C5.09633 10.4445 5.28939 10.7446 5.52433 11.0142C5.57306 11.0702 5.62388 11.1245 5.67594 11.1773L5.08914 12.3509L3.45366 12.896C1.55207 13.5301 0.171875 15.5319 0.171875 17.6559C0.171875 17.846 0.325922 18 0.515961 18H15.6557C15.8457 18 15.9998 17.846 15.9998 17.6559C15.9998 15.5319 14.6197 13.5301 12.718 12.8959ZM12.559 7.71184C12.559 7.90157 12.4046 8.05592 12.2149 8.05592H11.6897C11.7772 7.37842 11.8355 6.65746 11.8589 5.94737C11.8596 5.92734 11.8602 5.90787 11.8608 5.88818H12.559V7.71184ZM3.95682 8.05592C3.76709 8.05592 3.61273 7.90157 3.61273 7.71184V5.88818H4.31116C4.31229 5.92407 4.3135 5.96013 4.31484 5.99643C4.31487 5.99767 4.31494 5.99888 4.31498 6.00011C4.31498 6.00022 4.31498 6.00032 4.31498 6.00042C4.33906 6.69107 4.39659 7.39332 4.48206 8.05589H3.95682V8.05592ZM4.64499 9.43227C4.45526 9.43227 4.3009 9.27791 4.3009 9.08818V8.74409H4.58299L4.65621 9.18311C4.67018 9.26655 4.68735 9.34969 4.7072 9.43227H4.64499ZM4.30149 5.20001H3.62581C3.80009 2.89392 5.72463 1.07098 8.08585 1.07098C10.4366 1.07098 12.3696 2.89367 12.5459 5.20001H11.8702C11.8455 3.29973 10.298 1.75916 8.39384 1.75916H7.77792C5.87379 1.75916 4.32623 3.29973 4.30149 5.20001ZM7.77789 2.44733H8.3938C9.93562 2.44733 11.1835 3.70844 11.1826 5.24853C11.1826 5.35681 11.1818 5.45109 11.1799 5.53687C11.1799 5.53797 11.1799 5.53911 11.1799 5.54024L10.7495 5.47876C9.58031 5.31181 8.47635 4.75982 7.64098 3.92445C7.57643 3.85994 7.48893 3.82367 7.39768 3.82367C6.4736 3.82367 5.58902 4.24469 5.00428 4.95599C5.14839 3.5549 6.33283 2.44733 7.77789 2.44733ZM5.42056 9.43227C5.24831 8.85926 5.05122 7.17324 5.00766 6.09281L5.47076 5.47532C5.89608 4.9084 6.5578 4.55616 7.26169 4.51573C8.18787 5.39714 9.38604 5.97919 10.6522 6.15998L11.1588 6.23237C11.1249 6.951 11.0557 7.67213 10.9566 8.33536C10.9566 8.33556 10.9565 8.3358 10.9565 8.33604C10.925 8.54927 10.9001 8.68649 10.8367 9.06977C10.6544 10.1628 9.83889 11.1511 8.76229 11.4203C8.31921 11.5309 7.85242 11.5309 7.40958 11.4203C6.73734 11.2523 6.12095 10.7871 5.72315 10.1204H6.4246C6.56664 10.5209 6.94909 10.8086 7.39768 10.8086H8.08585C8.65617 10.8086 9.1181 10.3467 9.1181 9.77635C9.1181 9.20717 8.65503 8.74409 8.08585 8.74409H7.39768C6.93911 8.74409 6.5623 9.04028 6.42402 9.43227H5.42056ZM7.36874 12.1167C7.60475 12.1664 7.84537 12.1918 8.08585 12.1918C8.2741 12.1918 8.46238 12.1761 8.64853 12.1455L8.04053 12.7885L7.36874 12.1167ZM7.56748 13.2887L6.47611 14.4429C6.17565 13.8678 5.91749 13.2692 5.70574 12.6565L6.11558 11.8368L7.56748 13.2887ZM9.99779 11.7202L10.4659 12.6565C10.2538 13.2702 9.99556 13.869 9.69541 14.4434L8.52731 13.2753L9.99779 11.7202ZM7.05359 9.77635C7.05359 9.58638 7.20767 9.43227 7.39768 9.43227H8.08585C8.27558 9.43227 8.42993 9.58662 8.42993 9.77635C8.42993 9.96636 8.27582 10.1204 8.08585 10.1204H7.39768C7.20795 10.1204 7.05359 9.96608 7.05359 9.77635ZM0.87381 17.3118C1.01017 15.6073 2.14459 14.0579 3.6713 13.5488L5.11969 13.0661C5.38505 13.7999 5.71379 14.5131 6.09906 15.1905C6.09972 15.1917 6.10033 15.1928 6.10099 15.194C6.10099 15.194 6.10102 15.194 6.10102 15.194C6.38252 15.6892 6.69935 16.173 7.04285 16.6323L7.46615 17.3118H0.87381ZM8.08585 17.0051L7.6192 16.2559C7.61397 16.2475 7.60839 16.2394 7.60248 16.2315C7.32383 15.8598 7.06391 15.4711 6.82718 15.0732L8.05429 13.7755L9.3473 15.0685C9.10899 15.4693 8.84817 15.8596 8.56929 16.2314C8.55243 16.2539 8.57634 16.2185 8.08585 17.0051ZM8.70555 17.3118L9.12881 16.6323C9.47382 16.1713 9.79292 15.6835 10.0772 15.1826C10.079 15.1796 10.0806 15.1765 10.0823 15.1735C10.0825 15.1731 10.0827 15.1728 10.0829 15.1724C10.4633 14.5014 10.7886 13.7944 11.052 13.0661L12.5004 13.5488C14.0271 14.0579 15.1615 15.6073 15.2979 17.3118H8.70555Z" stroke="black" stroke-width="0.1"/>
</svg>
