<svg width="16" height="16" viewBox="0 0 16 16" xmlns="http://www.w3.org/2000/svg">
<path d="M15.6937 14.1914L12.9061 11.3662C13.7314 10.19 14.2214 8.75614 14.2214 7.20589C14.2214 3.23252 11.0316 0 7.11058 0C3.18961 0 0 3.23252 0 7.20589C0 11.179 3.18961 14.4115 7.11058 14.4115C8.74858 14.4115 10.2543 13.8421 11.4576 12.8955L14.2147 15.6895C14.4188 15.8963 14.6869 16 14.9542 16C15.222 16 15.4896 15.8966 15.6937 15.6895C16.1021 15.2762 16.1021 14.6053 15.6937 14.1914ZM1.67351 7.20618C1.67351 4.16772 4.11303 1.69587 7.11114 1.69587C10.1093 1.69587 12.5488 4.16772 12.5488 7.20618C12.5488 8.47029 12.1224 9.63298 11.4129 10.5639C11.1783 10.8713 10.915 11.1549 10.6225 11.4062C9.67424 12.2215 8.44944 12.7165 7.11114 12.7165C4.11275 12.7162 1.67351 10.2444 1.67351 7.20618Z"/>
</svg>
