<svg width="16" height="18" viewBox="0 0 16 18" xmlns="http://www.w3.org/2000/svg">
<path d="M15.3101 4.88386L15.3096 4.86985C15.3017 4.69696 15.2965 4.51403 15.2933 4.31051C15.2787 3.31804 14.4897 2.49708 13.4971 2.4416C11.4275 2.32611 9.82656 1.65128 8.45863 0.317951L8.44695 0.306827C8.00077 -0.102276 7.32772 -0.102276 6.8814 0.306827L6.86973 0.317951C5.5018 1.65128 3.90082 2.32611 1.83127 2.44174C0.838798 2.49708 0.0497066 3.31804 0.0350125 4.31065C0.0319912 4.5128 0.0266354 4.69572 0.0188076 4.86985L0.0179837 4.9024C-0.0222537 7.01273 -0.0722413 9.63915 0.806389 12.023C1.28951 13.334 2.0212 14.4735 2.98099 15.4103C4.07413 16.477 5.50592 17.3239 7.23654 17.9274C7.29284 17.947 7.35134 17.9629 7.41094 17.9749C7.49499 17.9916 7.57958 18 7.66418 18C7.74877 18 7.83351 17.9916 7.91741 17.9749C7.97701 17.9629 8.03593 17.9469 8.09251 17.9271C9.82107 17.3226 11.2513 16.4752 12.3435 15.4086C13.3029 14.4716 14.0346 13.3318 14.5181 12.0206C15.4 9.62953 15.3502 6.99817 15.3101 4.88386ZM13.5272 11.6551C12.6005 14.1677 10.7088 15.8932 7.74397 16.9301C7.73339 16.9336 7.72213 16.9368 7.71046 16.9391C7.67983 16.9452 7.64866 16.9452 7.61762 16.939C7.60609 16.9367 7.59483 16.9336 7.58439 16.9301C4.61644 15.8952 2.7235 14.1706 1.79749 11.6579C0.987663 9.46048 1.03353 7.04954 1.07404 4.92259L1.07432 4.91078C1.08256 4.72799 1.08805 4.53656 1.09107 4.32617C1.09766 3.88548 1.44868 3.52087 1.89019 3.49629C3.06133 3.43092 4.0902 3.2046 5.03557 2.80443C5.9797 2.4048 6.81823 1.84148 7.59881 1.08232C7.6385 1.04881 7.69 1.04868 7.72955 1.08232C8.51026 1.84148 9.34879 2.4048 10.2928 2.80443C11.2382 3.2046 12.267 3.43092 13.4383 3.49629C13.8798 3.52087 14.2308 3.88548 14.2373 4.3263C14.2404 4.53779 14.2459 4.72923 14.2542 4.91078C14.2946 7.0402 14.3393 9.45306 13.5272 11.6551Z" />
<path d="M7.66359 4.51367C5.19002 4.51367 3.17773 6.52609 3.17773 8.99953C3.17773 11.4731 5.19002 13.4855 7.66359 13.4855C10.137 13.4855 12.1495 11.4731 12.1495 8.99953C12.1495 6.52609 10.137 4.51367 7.66359 4.51367ZM7.66359 12.4292C5.77243 12.4292 4.23393 10.8907 4.23393 8.99953C4.23393 7.10837 5.77243 5.56987 7.66359 5.56987C9.55462 5.56987 11.0931 7.10837 11.0931 8.99953C11.0931 10.8907 9.55462 12.4292 7.66359 12.4292Z" />
<path d="M8.95296 7.60793L6.8694 9.69149L6.30388 9.12597C6.09761 8.9197 5.76321 8.9197 5.55694 9.12597C5.35081 9.33223 5.35081 9.66663 5.55694 9.87276L6.496 10.8118C6.59913 10.915 6.73427 10.9665 6.8694 10.9665C7.00453 10.9665 7.13966 10.915 7.2428 10.8118L9.69989 8.35473C9.90602 8.14846 9.90602 7.81406 9.69989 7.60793C9.49362 7.40152 9.15922 7.40152 8.95296 7.60793Z" />
</svg>
