<svg width="14" height="14" viewBox="0 0 14 14" xmlns="http://www.w3.org/2000/svg">
<path d="M8.10833 8.28333C7.93333 8.28333 7.81667 8.4 7.7 8.51667V7.40833H7.23333V10.85H7.7V10.675C7.81667 10.85 7.99167 10.9083 8.16667 10.9083C8.45833 10.9083 8.575 10.675 8.575 10.325V8.925C8.575 8.575 8.45833 8.28333 8.10833 8.28333ZM8.05 10.2083C8.05 10.2667 8.05 10.325 7.99167 10.3833C7.93333 10.4417 7.81667 10.4417 7.75833 10.3833L7.64167 10.2667V8.75L7.75833 8.69167C7.81667 8.63333 7.93333 8.63333 7.99167 8.75C8.05 8.80833 8.05 8.86667 8.05 8.925V10.2083ZM6.475 5.25V4.025C6.475 3.90833 6.53333 3.79167 6.70833 3.79167C6.88333 3.79167 6.94167 3.90833 6.94167 4.025V5.25C6.94167 5.36667 6.88333 5.48333 6.70833 5.48333C6.59167 5.48333 6.475 5.36667 6.475 5.25ZM5.425 7.875H4.84167V10.7917H4.31667V7.875H3.79167V7.35H5.425C5.425 7.40833 5.425 7.875 5.425 7.875ZM6.3 8.28333H6.76667V10.7917H6.3V10.5C6.24167 10.6167 6.125 10.675 6.00833 10.7333C5.775 10.85 5.425 10.85 5.425 10.3833V8.28333H5.89167V10.2083C5.89167 10.325 5.89167 10.3833 6.00833 10.3833C6.125 10.3833 6.24167 10.2667 6.3 10.2083V8.28333ZM5 0C2.23858 0 0 2.23858 0 5V9C0 11.7614 2.23858 14 5 14H9C11.7614 14 14 11.7614 14 9V5C14 2.23858 11.7614 0 9 0H5ZM7.81667 3.26667H8.28333V5.30833C8.28333 5.425 8.28333 5.48333 8.4 5.48333C8.51667 5.48333 8.63333 5.36667 8.69167 5.30833V3.26667H9.15833V5.95H8.75V5.65833C8.51667 5.89167 8.34167 6.00833 8.16667 6.00833C7.875 6.00833 7.81667 5.775 7.81667 5.54167V3.26667ZM6.70833 3.26667C7.11667 3.26667 7.40833 3.55833 7.40833 3.96667V5.25C7.40833 5.71667 7.11667 5.95 6.70833 5.95C6.24167 5.95 6.00833 5.71667 6.00833 5.25V3.96667C6.00833 3.55833 6.3 3.26667 6.70833 3.26667ZM4.725 2.33333L5.13333 3.79167L5.425 2.33333H6.00833L5.36667 4.49167V5.95H4.78333V4.49167L4.14167 2.33333H4.725ZM9.68333 11.6083C8.69167 11.6667 5.36667 11.6667 4.375 11.6083C3.26667 11.55 3.15 10.85 3.15 9.15833C3.15 7.40833 3.26667 6.76667 4.375 6.70833C5.36667 6.65 8.69167 6.65 9.68333 6.70833C10.7917 6.76667 10.9083 7.46667 10.9083 9.15833C10.9083 10.85 10.7333 11.55 9.68333 11.6083ZM9.625 8.225C9.21667 8.225 8.925 8.51667 8.925 8.98333V10.0917C8.925 10.5583 9.15833 10.85 9.625 10.85C10.0917 10.85 10.325 10.5583 10.325 10.0917V9.91667H9.85833V10.0917C9.85833 10.325 9.85833 10.4417 9.625 10.4417C9.45 10.4417 9.39167 10.2667 9.39167 10.0917V9.625H10.2667V8.98333C10.325 8.51667 10.0917 8.225 9.625 8.225ZM9.8 9.21667H9.39167V8.98333C9.39167 8.80833 9.45 8.69167 9.625 8.69167C9.8 8.69167 9.85833 8.80833 9.85833 8.98333V9.21667H9.8Z"/>
</svg>
